{
.appVersion = "3151";
.formatVersion = 3;
axes = (
{
name = Weight;
tag = wght;
},
{
name = Width;
tag = wdth;
}
);
customParameters = (
{
name = "Use Typo Metrics";
value = 1;
},
{
name = fsType;
value = (
);
}
);
date = "2022-07-30 15:19:26 +0000";
familyName = "Duyet Serif";
featurePrefixes = (
{
automatic = 1;
code = "languagesystem DFLT dflt;

languagesystem latn dflt;
languagesystem latn AZE;
languagesystem latn CRT;
languagesystem latn KAZ;
languagesystem latn TAT;
languagesystem latn TRK;
languagesystem latn ROM;
languagesystem latn MOL;
languagesystem latn CAT;
";
name = Languagesystems;
}
);
features = (
{
automatic = 1;
code = "feature locl;
feature ordn;
feature case;
feature ss01;
";
tag = aalt;
},
{
code = "lookup ccmp_Other_1 {
	@CombiningTopAccents = [acutecomb brevecomb caroncomb circumflexcomb commaturnedabovecomb dieresiscomb dotaccentcomb gravecomb hungarumlautcomb macroncomb ringcomb tildecomb];
	@CombiningNonTopAccents = [cedillacomb ogonekcomb];
	sub [i j]' @CombiningTopAccents by [idotless jdotless];
	sub [i j]' @CombiningNonTopAccents @CombiningTopAccents by [idotless jdotless];
	sub iogonek' @CombiningTopAccents by idotless ogonekcomb;
} ccmp_Other_1;
";
tag = ccmp;
},
{
automatic = 1;
code = "lookup locl_latn_0 {
	script latn;
	language AZE;
	sub i by idotaccent;
	language CRT;
	sub i by idotaccent;
	language KAZ;
	sub i by idotaccent;
	language TAT;
	sub i by idotaccent;
	language TRK;
	sub i by idotaccent;
} locl_latn_0;

lookup locl_latn_1 {
	script latn;
	language ROM;
	sub Scedilla by Scommaaccent;
	sub scedilla by scommaaccent;
	language MOL;
	sub Scedilla by Scommaaccent;
	sub scedilla by scommaaccent;
} locl_latn_1;

lookup locl_latn_2 {
	script latn;
	language CAT;
	sub l periodcentered' l by periodcentered.loclCAT;
	sub L periodcentered' L by periodcentered.loclCAT.case;
} locl_latn_2;
";
tag = locl;
},
{
automatic = 1;
code = "sub [zero one two three four five six seven eight nine] [A a]' by ordfeminine;

glyphs = (
{
glyphname = horncomb;
layers = (
{
anchors = (
{
name = _topright;
pos = (0,0);
}
);
layerId = m01;
shapes = (
{
closed = 1;
nodes = (
(-34,626,ls),
(-27,621,o),
(-21,613,o),
(-18,604,cs),
(-15,595,o),
(-13,583,o),
(-13,568,cs),
(-13,552,o),
(-18,535,o),
(-29,519,cs),
(-39,502,o),
(-55,487,o),
(-76,476,cs),
(-98,464,o),
(-126,458,o),
(-161,458,cs),
(-162,458,ls),
(-123,459,o),
(-90,461,o),
(-64,466,cs),
(-38,471,o),
(-18,477,o),
(-3,485,cs),
(14,419,o),
(26,426,o),
(33,434,cs),
(40,443,o),
(45,451,o),
(45,461,cs),
(45,479,o),
(36,493,o),
(20,505,cs),
(3,517,o),
(-14,619,o),
(-33,626,cs)
);
}
);
width = 0;
}
);
unicode = 795;
},
{
glyphname = dotbelowcomb;
layers = (
{
anchors = (
{
name = _bottom;
pos = (-10,0);
}
);
layerId = m01;
shapes = (
{
closed = 1;
nodes = (
(31,-150,ls),
(41,-150,o),
(49,-148,o),
(57,-144,cs),
(66,-141,o),
(71,-137,o),
(76,-131,cs),
(80,-126,o),
(83,-120,o),
(83,-113,cs),
(82,-104,o),
(77,-95,o),
(68,-88,cs),
(57,-81,o),
(46,-77,o),
(32,-77,cs),
(17,-77,o),
(6,-81,o),
(-4,-104,cs),
(-12,-112,o),
(-17,-122,o),
(-17,-133,cs),
(-16,-145,o),
(-12,-155,o),
(-4,-163,cs),
(6,-145,o),
(17,-150,o),
(31,-150,cs)
);
}
);
width = 0;
}
);
unicode = 803;
},
{
glyphname = hookabovecomb;
layers = (
{
anchors = (
{
name = _top;
pos = (0,0);
}
);
layerId = m01;
shapes = (
{
closed = 1;
nodes = (
(-114,669,ls),
(-133,669,o),
(-150,664,o),
(-166,653,cs),
(-182,642,o),
(-194,628,o),
(-203,609,cs),
(-203,609,ls),
(-195,616,o),
(-187,622,o),
(-178,626,cs),
(-169,630,o),
(-160,632,o),
(-150,632,cs),
(-137,632,o),
(-126,628,o),
(-117,621,cs),
(-108,613,o),
(-104,602,o),
(-104,589,cs),
(-104,575,o),
(-110,561,o),
(-122,547,cs),
(-134,532,o),
(-152,519,o),
(-177,506,cs),
(-176,506,ls),
(-133,518,o),
(-102,533,o),
(-81,551,cs),
(-61,569,o),
(-50,589,o),
(-50,610,cs),
(-50,628,o),
(-56,642,o),
(-69,653,cs),
(-81,664,o),
(-96,669,o),
(-114,669,cs)
);
}
);
width = 0;
}
);
unicode = 777;
},
{
glyphname = A;
kernLeft = A;
kernRight = A;
lastChange = "2022-09-01 21:01:03 +0000";
layers = (
{
anchors = (
{
name = bottom;
pos = (229,0);
},
{
name = ogonek;
pos = (421,0);
},
{
name = top;
pos = (229,720);
}
);
layerId = m01;
shapes = (
{
closed = 1;
nodes = (
(182,0,ls),
(193,0,o),
(200,3,o),
(200,8,cs),
(200,12,o),
(193,15,o),
(177,17,cs),
(158,18,ls),
(116,21,o),
(105,36,o),
(117,64,cs),
(162,161,ls),
(169,173,o),
(183,179,o),
(206,179,cs),
(345,179,ls),
(369,179,o),
(384,173,o),
(389,161,cs),
(439,48,ls),
(448,27,o),
(442,20,o),
(412,18,cs),
(386,17,ls),
(370,16,o),
(363,12,o),
(363,8,cs),
(363,3,o),
(370,0,o),
(382,0,cs),
(608,0,ls),
(620,0,o),
(628,3,o),
(628,7,cs),
(628,12,o),
(621,15,o),
(610,17,cs),
(590,19,ls),
(555,22,o),
(544,31,o),
(531,58,cs),
(323,516,ls),
(319,525,o),
(309,527,o),
(301,527,cs),
(294,527,o),
(285,525,o),
(282,516,cs),
(77,65,ls),
(64,37,o),
(49,22,o),
(15,19,cs),
(-4,23,ls),
(-13,21,o),
(-18,17,o),
(-18,10,cs),
(-18,3,o),
(-12,0,o),
(-3,0,cs)
);
},
{
closed = 1;
nodes = (
(189,201,o),
(183,206,o),
(185,213,cs),
(274,407,l),
(281,407,l),
(365,213,ls),
(368,206,o),
(361,201,o),
(347,201,cs),
(202,201,ls)
);
}
);
width = 605;
}
);
unicode = 65;
},
{
glyphname = AE;
kernRight = E;
lastChange = "2022-08-23 19:51:09 +0000";
layers = (
{
background = {
shapes = (
{
closed = 1;
nodes = (
(202,0,ls),
(214,0,o),
(221,3,o),
(221,8,cs),
(221,12,o),
(214,15,o),
(198,17,cs),
(178,18,ls),
(138,21,o),
(125,36,o),
(139,64,cs),
(184,161,ls),
(191,173,o),
(204,179,o),
(228,179,cs),
(367,179,ls),
(390,179,o),
(405,173,o),
(409,161,cs),
(460,48,l),
(553,58,l),
(344,516,ls),
(340,525,o),
(331,527,o),
(323,527,cs),
(316,527,o),
(307,525,o),
(302,516,cs),
(98,65,ls),
(86,37,o),
(70,22,o),
(36,19,cs),
(16,17,ls),
(3,15,o),
(-2,17,o),
(-2,10,cs),
(-2,3,o),
(6,0,o),
(17,0,cs)
);
},
{
closed = 1;
nodes = (
(210,201,o),
(204,206,o),
(206,213,cs),
(294,407,l),
(301,407,l),
(386,213,ls),
(389,206,o),
(382,201,o),
(369,201,cs),
(223,201,ls)
);
},
{
closed = 1;
nodes = (
(938,0,ls),
(959,0,o),
(971,6,o),
(972,17,cs),
(986,145,ls),
(987,153,o),
(979,157,o),
(969,157,cs),
(959,157,o),
(952,154,o),
(950,148,cs),
(934,105,ls),
(908,38,o),
(844,18,o),
(756,18,cs),
(669,18,o),
(642,32,o),
(642,67,cs),
(642,248,ls),
(642,255,o),
(649,258,o),
(660,258,cs),
(724,258,ls),
(765,258,o),
(785,251,o),
(797,218,cs),
(811,182,ls),
(813,176,o),
(822,172,o),
(833,173,cs),
(843,173,o),
(848,177,o),
(848,185,cs),
(848,348,ls),
(848,355,o),
(843,359,o),
(833,360,cs),
(822,360,o),
(813,356,o),
(811,350,cs),
(797,314,ls),
(788,291,o),
(766,280,o),
(726,280,cs),
(660,280,ls),
(649,280,o),
(642,284,o),
(642,291,cs),
(642,465,ls),
(642,492,o),
(664,502,o),
(735,502,cs),
(841,502,o),
(899,473,o),
(919,407,cs),
(927,381,ls),
(928,375,o),
(935,371,o),
(945,371,cs),
(956,371,o),
(964,376,o),
(963,383,cs),
(952,503,ls),
(951,514,o),
(938,520,o),
(919,520,cs),
(475,520,ls),
(461,520,o),
(455,518,o),
(455,513,cs),
(455,508,o),
(460,505,o),
(473,503,cs),
(503,501,ls),
(539,497,o),
(547,493,o),
(547,473,cs),
(547,48,ls),
(547,27,o),
(539,23,o),
(503,20,cs),
(473,17,ls),
(460,15,o),
(455,12,o),
(455,8,cs),
(455,3,o),
(461,0,o),
(475,0,cs)
);
}
);
};
layerId = m01;
shapes = (
{
closed = 1;
nodes = (
(194,0,ls),
(209,0,o),
(215,3,o),
(215,8,cs),
(215,12,o),
(209,15,o),
(193,17,cs),
(172,18,ls),
(131,21,o),
(123,38,o),
(147,64,cs),
(319,252,ls),
(323,257,o),
(331,258,o),
(340,258,cs),
(529,258,ls),
(540,258,o),
(547,255,o),
(547,248,cs),
(547,48,ls),
(547,27,o),
(539,23,o),
(503,20,cs),
(473,17,ls),
(460,15,o),
(455,12,o),
(455,8,cs),
(455,3,o),
(461,0,o),
(475,0,cs),
(938,0,ls),
(959,0,o),
(971,6,o),
(972,17,cs),
(986,145,ls),
(987,153,o),
(979,157,o),
(969,157,cs),
(959,157,o),
(952,154,o),
(950,148,cs),
(934,105,ls),
(908,38,o),
(844,18,o),
(756,18,cs),
(669,18,o),
(642,32,o),
(642,67,cs),
(642,248,ls),
(642,255,o),
(649,258,o),
(660,258,cs),
(724,258,ls),
(765,258,o),
(785,251,o),
(797,218,cs),
(811,182,ls),
(813,176,o),
(822,172,o),
(833,173,cs),
(843,173,o),
(848,177,o),
(848,185,cs),
(848,348,ls),
(848,355,o),
(843,359,o),
(833,360,cs),
(822,360,o),
(813,356,o),
(811,350,cs),
(797,314,ls),
(788,291,o),
(766,280,o),
(726,280,cs),
(660,280,ls),
(649,280,o),
(642,284,o),
(642,291,cs),
(642,465,ls),
(642,492,o),
(664,502,o),
(735,502,cs),
(841,502,o),
(899,473,o),
(919,407,cs),
(927,381,ls),
(928,375,o),
(935,371,o),
(945,371,cs),
(956,371,o),
(964,376,o),
(963,383,cs),
(952,503,ls),
(951,514,o),
(938,520,o),
(919,520,cs),
(416,520,ls),
(404,520,o),
(397,518,o),
(397,513,cs),
(397,508,o),
(402,505,o),
(414,503,cs),
(444,500,ls),
(482,496,o),
(494,493,o),
(476,473,cs),
(103,65,ls),
(80,39,o),
(49,22,o),
(15,19,cs),
(-4,23,ls),
(-13,21,o),
(-18,18,o),
(-18,11,cs),
(-18,4,o),
(-12,0,o),
(-3,0,cs)
);
},
{
closed = 1;
nodes = (
(529,482,ls),
(536,490,o),
(547,489,o),
(547,479,cs),
(547,291,ls),
(547,284,o),
(540,280,o),
(529,280,cs),
(369,280,ls),
(355,280,o),
(351,286,o),
(355,292,cs)
);
}
);
width = 1029;
}
);
metricLeft = A;
metricRight = E;
unicode = 198;
},
{
glyphname = B;
kernLeft = H;
lastChange = "2022-09-01 21:00:59 +0000";
layers = (
{
background = {
shapes = (
{
closed = 1;
nodes = (
(319,0,ls),
(477,0,o),
(596,61,o),
(596,147,cs),
(596,218,o),
(513,272,o),
(389,290,c),
(389,293,l),
(484,315,o),
(542,358,o),
(542,405,cs),
(542,471,o),
(446,520,o),
(314,520,cs),
(45,520,ls),
(32,520,o),
(25,518,o),
(25,513,cs),
(25,507,o),
(30,505,o),
(43,503,cs),
(72,501,ls),
(109,497,o),
(117,493,o),
(117,473,cs),
(117,48,ls),
(117,27,o),
(109,23,o),
(72,20,cs),
(43,17,ls),
(30,15,o),
(25,13,o),
(25,8,cs),
(25,3,o),
(32,0,o),
(45,0,cs)
);
},
{
closed = 1;
nodes = (
(239,18,o),
(212,34,o),
(212,68,cs),
(212,243,ls),
(212,268,o),
(237,279,o),
(293,279,cs),
(416,279,o),
(496,230,o),
(496,150,cs),
(496,70,o),
(416,18,o),
(301,18,cs)
);
},
{
closed = 1;
nodes = (
(232,297,o),
(212,309,o),
(212,337,cs),
(212,473,ls),
(212,493,o),
(235,502,o),
(282,502,cs),
(379,502,o),
(446,462,o),
(446,402,cs),
(446,342,o),
(376,297,o),
(282,297,cs)
);
}
);
};
layerId = m01;
shapes = (
{
closed = 1;
nodes = (
(319,0,ls),
(477,0,o),
(596,61,o),
(596,147,cs),
(596,214,o),
(527,264,o),
(407,286,cs),
(394,289,o),
(396,295,o),
(406,298,cs),
(493,322,o),
(542,361,o),
(542,405,cs),
(542,471,o),
(446,520,o),
(314,520,cs),
(45,520,ls),
(32,520,o),
(25,518,o),
(25,513,cs),
(25,507,o),
(30,505,o),
(43,503,cs),
(72,501,ls),
(109,497,o),
(117,493,o),
(117,473,cs),
(117,48,ls),
(117,27,o),
(109,23,o),
(72,20,cs),
(43,17,ls),
(30,15,o),
(25,13,o),
(25,8,cs),
(25,3,o),
(32,0,o),
(45,0,cs)
);
},
{
closed = 1;
nodes = (
(239,18,o),
(212,34,o),
(212,68,cs),
(212,243,ls),
(212,268,o),
(237,279,o),
(293,279,cs),
(416,279,o),
(496,230,o),
(496,150,cs),
(496,70,o),
(416,18,o),
(301,18,cs)
);
},
{
closed = 1;
nodes = (
(232,297,o),
(212,309,o),
(212,337,cs),
(212,473,ls),
(212,493,o),
(235,502,o),
(282,502,cs),
(379,502,o),
(446,462,o),
(446,402,cs),
(446,342,o),
(376,297,o),
(282,297,cs)
);
}
);
width = 632;
}
);
unicode = 66;
},
{
glyphname = C;
kernLeft = O;
kernRight = C;
lastChange = "2022-09-01 20:50:49 +0000";
layers = (
{
anchors = (
{
name = bottom;
pos = (276,0);
},
{
name = top;
pos = (280,720);
}
);
background = {
shapes = (
{
closed = 1;
nodes = (
(462,-7,o),
(518,2,o),
(559,13,cs),
(572,17,o),
(573,20,o),
(574,28,cs),
(584,145,ls),
(585,153,o),
(580,156,o),
(570,157,cs),
(559,158,o),
(552,155,o),
(549,148,cs),
(537,113,ls),
(511,36,o),
(458,13,o),
(378,13,cs),
(262,13,o),
(156,100,o),
(156,263,cs),
(156,421,o),
(248,508,o),
(378,508,cs),
(444,508,o),
(496,484,o),
(526,408,cs),
(536,380,ls),
(538,373,o),
(546,370,o),
(557,371,cs),
(566,371,o),
(572,375,o),
(572,382,cs),
(565,493,ls),
(565,501,o),
(562,504,o),
(550,508,cs),
(508,519,o),
(453,527,o),
(382,527,cs),
(198,527,o),
(53,422,o),
(53,263,cs),
(53,99,o),
(183,-7,o),
(378,-7,cs)
);
}
);
};
layerId = m01;
shapes = (
{
closed = 1;
nodes = (
(462,-7,o),
(518,2,o),
(559,13,cs),
(572,17,o),
(576,20,o),
(576,28,cs),
(582,145,ls),
(582,153,o),
(576,156,o),
(567,157,cs),
(557,158,o),
(549,155,o),
(546,148,cs),
(530,113,ls),
(496,36,o),
(452,14,o),
(373,14,cs),
(262,14,o),
(156,100,o),
(156,263,cs),
(156,421,o),
(248,507,o),
(371,507,cs),
(438,507,o),
(485,482,o),
(522,407,cs),
(536,380,ls),
(538,373,o),
(544,371,o),
(554,371,cs),
(565,371,o),
(570,375,o),
(570,382,cs),
(566,493,ls),
(566,501,o),
(562,504,o),
(550,508,cs),
(508,519,o),
(453,527,o),
(382,527,cs),
(198,527,o),
(53,422,o),
(53,263,cs),
(53,99,o),
(183,-7,o),
(378,-7,cs)
);
}
);
width = 635;
}
);
unicode = 67;
},
{
glyphname = D;
kernLeft = H;
kernRight = O;
lastChange = "2022-09-01 20:50:56 +0000";
layers = (
{
anchors = (
{
name = bottom;
pos = (265,0);
},
{
name = center;
pos = (265,360);
},
{
name = top;
pos = (255,720);
}
);
background = {
shapes = (
{
closed = 0;
nodes = (
(292,20,l),
(256,20,ls),
(220,20,o),
(212,28,o),
(212,48,cs),
(212,472,ls),
(212,492,o),
(220,498,o),
(256,501,cs),
(292,503,ls),
(301,504,o),
(307,507,o),
(307,512,cs),
(307,518,o),
(300,520,o),
(288,520,cs),
(45,520,ls),
(32,520,o),
(25,518,o),
(25,513,cs),
(25,508,o),
(30,505,o),
(43,503,cs),
(72,501,ls),
(109,497,o),
(117,493,o),
(117,473,cs),
(117,48,ls),
(117,27,o),
(109,23,o),
(72,20,cs),
(43,17,ls),
(30,15,o),
(25,12,o),
(25,8,cs),
(25,3,o),
(32,0,o),
(45,0,cs),
(356,0,ls),
(527,0,o),
(661,110,o),
(661,261,cs),
(661,411,o),
(527,520,o),
(356,520,cs)
);
},
{
closed = 0;
nodes = (
(356,501,l),
(482,501,o),
(558,427,o),
(558,261,cs),
(558,94,o),
(482,20,o),
(356,20,cs)
);
}
);
};
layerId = m01;
shapes = (
{
closed = 1;
nodes = (
(299,0,ls),
(512,0,o),
(649,100,o),
(649,258,cs),
(649,414,o),
(519,520,o),
(312,520,cs),
(45,520,ls),
(32,520,o),
(25,518,o),
(25,513,cs),
(25,507,o),
(30,505,o),
(43,503,cs),
(72,501,ls),
(109,497,o),
(117,493,o),
(117,473,cs),
(117,48,ls),
(117,31,o),
(105,22,o),
(72,20,cs),
(43,17,ls),
(30,15,o),
(25,13,o),
(25,8,cs),
(25,3,o),
(32,0,o),
(45,0,cs)
);
},
{
closed = 1;
nodes = (
(238,19,o),
(212,33,o),
(212,71,cs),
(212,449,ls),
(212,484,o),
(247,502,o),
(312,502,cs),
(466,502,o),
(545,411,o),
(545,258,cs),
(545,103,o),
(460,19,o),
(304,19,cs)
);
}
);
width = 702;
}
);
unicode = 68;
},
{
glyphname = Eth;
kernLeft = H;
kernRight = O;
lastChange = "2022-08-23 19:52:33 +0000";
layers = (
{
layerId = m01;
shapes = (
{
ref = D;
},
{
closed = 1;
nodes = (
(376,258,ls),
(384,258,o),
(389,262,o),
(389,266,cs),
(389,272,ls),
(389,276,o),
(384,279,o),
(376,279,cs),
(38,279,ls),
(30,279,o),
(25,276,o),
(25,272,cs),
(25,266,ls),
(25,262,o),
(30,258,o),
(38,258,cs)
);
}
);
width = 702;
}
);
unicode = 208;
},
{
glyphname = E;
kernLeft = H;
kernRight = E;
lastChange = "2022-09-01 20:51:22 +0000";
layers = (
{
anchors = (
{
name = bottom;
pos = (227,0);
},
{
name = ogonek;
pos = (385,0);
},
{
name = top;
pos = (227,720);
},
{
name = topleft;
pos = (20,720);
}
);
background = {
shapes = (
{
closed = 1;
nodes = (
(509,0,ls),
(529,0,o),
(540,6,o),
(542,17,cs),
(555,145,ls),
(557,153,o),
(549,157,o),
(539,157,cs),
(529,157,o),
(522,154,o),
(520,148,cs),
(500,93,ls),
(478,32,o),
(417,18,o),
(325,18,cs),
(239,18,o),
(212,32,o),
(212,67,cs),
(212,248,ls),
(212,255,o),
(218,258,o),
(230,258,cs),
(299,258,ls),
(338,258,o),
(361,251,o),
(371,218,cs),
(382,182,ls),
(384,176,o),
(393,172,o),
(404,173,cs),
(413,173,o),
(417,177,o),
(417,185,cs),
(417,348,ls),
(417,355,o),
(413,359,o),
(404,360,cs),
(393,360,o),
(384,356,o),
(382,350,cs),
(371,314,ls),
(365,291,o),
(340,280,o),
(300,280,cs),
(230,280,ls),
(218,280,o),
(212,284,o),
(212,291,cs),
(212,465,ls),
(212,492,o),
(235,502,o),
(306,502,cs),
(398,502,o),
(473,487,o),
(488,421,cs),
(497,381,ls),
(499,375,o),
(505,371,o),
(515,371,cs),
(527,371,o),
(535,376,o),
(532,383,cs),
(522,503,ls),
(521,514,o),
(509,520,o),
(489,520,cs),
(45,520,ls),
(32,520,o),
(25,518,o),
(25,513,cs),
(25,508,o),
(30,505,o),
(43,503,cs),
(72,501,ls),
(109,497,o),
(117,493,o),
(117,473,cs),
(117,48,ls),
(117,27,o),
(109,23,o),
(72,20,cs),
(43,17,ls),
(30,15,o),
(25,12,o),
(25,8,cs),
(25,3,o),
(32,0,o),
(45,0,cs)
);
}
);
};
layerId = m01;
shapes = (
{
closed = 1;
nodes = (
(509,0,ls),
(529,0,o),
(540,6,o),
(542,17,cs),
(555,145,ls),
(557,153,o),
(549,157,o),
(539,157,cs),
(529,157,o),
(522,154,o),
(520,148,cs),
(504,105,ls),
(478,38,o),
(414,18,o),
(325,18,cs),
(239,18,o),
(212,32,o),
(212,67,cs),
(212,248,ls),
(212,255,o),
(218,258,o),
(230,258,cs),
(294,258,ls),
(335,258,o),
(355,251,o),
(368,218,cs),
(381,182,ls),
(384,176,o),
(393,172,o),
(404,173,cs),
(413,173,o),
(417,177,o),
(417,185,cs),
(417,348,ls),
(417,355,o),
(413,359,o),
(404,360,cs),
(393,360,o),
(384,356,o),
(381,350,cs),
(368,314,ls),
(359,291,o),
(336,280,o),
(297,280,cs),
(230,280,ls),
(218,280,o),
(212,284,o),
(212,291,cs),
(212,465,ls),
(212,492,o),
(235,502,o),
(306,502,cs),
(412,502,o),
(469,473,o),
(489,407,cs),
(497,381,ls),
(499,375,o),
(505,371,o),
(515,371,cs),
(527,371,o),
(535,376,o),
(532,383,cs),
(522,503,ls),
(521,514,o),
(509,520,o),
(489,520,cs),
(45,520,ls),
(32,520,o),
(25,518,o),
(25,513,cs),
(25,508,o),
(30,505,o),
(43,503,cs),
(72,501,ls),
(109,497,o),
(117,493,o),
(117,473,cs),
(117,48,ls),
(117,27,o),
(109,23,o),
(72,20,cs),
(43,17,ls),
(30,15,o),
(25,12,o),
(25,8,cs),
(25,3,o),
(32,0,o),
(45,0,cs)
);
}
);
width = 599;
}
);
unicode = 69;
},
{
glyphname = F;
kernLeft = H;
lastChange = "2022-09-01 20:52:39 +0000";
layers = (
{
background = {
shapes = (
{
closed = 1;
nodes = (
(314,0,ls),
(327,0,o),
(334,3,o),
(334,8,cs),
(334,13,o),
(328,16,o),
(319,17,cs),
(256,22,ls),
(220,25,o),
(212,31,o),
(212,51,cs),
(212,248,ls),
(212,255,o),
(218,258,o),
(230,258,cs),
(279,258,ls),
(319,258,o),
(342,251,o),
(352,218,cs),
(362,183,ls),
(363,177,o),
(373,173,o),
(384,173,cs),
(393,174,o),
(398,178,o),
(398,185,cs),
(398,347,ls),
(398,354,o),
(393,359,o),
(384,359,cs),
(373,360,o),
(363,355,o),
(362,349,cs),
(352,314,ls),
(345,291,o),
(320,280,o),
(281,280,cs),
(230,280,ls),
(218,280,o),
(212,284,o),
(212,291,cs),
(212,461,ls),
(212,489,o),
(235,502,o),
(312,502,cs),
(386,502,o),
(453,487,o),
(469,421,cs),
(478,381,ls),
(480,375,o),
(486,371,o),
(497,371,cs),
(508,371,o),
(515,376,o),
(514,383,cs),
(504,503,ls),
(503,514,o),
(491,520,o),
(470,520,cs),
(45,520,ls),
(32,520,o),
(25,518,o),
(25,513,cs),
(25,508,o),
(30,505,o),
(43,503,cs),
(72,501,ls),
(109,497,o),
(117,493,o),
(117,473,cs),
(117,48,ls),
(117,27,o),
(109,23,o),
(72,20,cs),
(43,17,ls),
(30,15,o),
(25,12,o),
(25,8,cs),
(25,3,o),
(32,0,o),
(45,0,cs)
);
}
);
};
layerId = m01;
shapes = (
{
closed = 1;
nodes = (
(314,0,ls),
(327,0,o),
(334,3,o),
(334,8,cs),
(334,13,o),
(328,16,o),
(319,17,cs),
(256,22,ls),
(220,25,o),
(212,31,o),
(212,51,cs),
(212,248,ls),
(212,255,o),
(218,258,o),
(230,258,cs),
(275,258,ls),
(315,258,o),
(335,251,o),
(347,218,cs),
(362,182,ls),
(365,176,o),
(371,173,o),
(382,173,cs),
(391,173,o),
(398,177,o),
(398,185,cs),
(398,348,ls),
(398,355,o),
(391,360,o),
(382,360,cs),
(371,360,o),
(365,356,o),
(362,350,cs),
(347,314,ls),
(338,291,o),
(316,280,o),
(276,280,cs),
(230,280,ls),
(218,280,o),
(212,284,o),
(212,291,cs),
(212,461,ls),
(212,489,o),
(235,502,o),
(312,502,cs),
(373,502,o),
(451,479,o),
(473,405,cs),
(478,381,ls),
(480,375,o),
(486,371,o),
(497,371,cs),
(508,371,o),
(515,376,o),
(514,383,cs),
(504,503,ls),
(503,514,o),
(491,520,o),
(470,520,cs),
(45,520,ls),
(32,520,o),
(25,518,o),
(25,513,cs),
(25,508,o),
(30,505,o),
(43,503,cs),
(72,501,ls),
(109,497,o),
(117,493,o),
(117,473,cs),
(117,48,ls),
(117,27,o),
(109,23,o),
(72,20,cs),
(43,17,ls),
(30,15,o),
(25,12,o),
(25,8,cs),
(25,3,o),
(32,0,o),
(45,0,cs)
);
}
);
width = 539;
}
);
unicode = 70;
},
{
glyphname = G;
kernLeft = O;
kernRight = G;
lastChange = "2022-09-01 20:53:01 +0000";
layers = (
{
anchors = (
{
name = bottom;
pos = (291,0);
},
{
name = top;
pos = (291,720);
}
);
background = {
shapes = (
{
closed = 1;
nodes = (
(462,-7,o),
(518,2,o),
(559,13,cs),
(572,17,o),
(573,20,o),
(574,28,cs),
(584,145,ls),
(585,153,o),
(580,156,o),
(570,157,cs),
(559,158,o),
(552,155,o),
(549,148,cs),
(537,113,ls),
(511,36,o),
(458,13,o),
(378,13,cs),
(262,13,o),
(156,100,o),
(156,263,cs),
(156,421,o),
(248,508,o),
(378,508,cs),
(444,508,o),
(496,484,o),
(526,408,cs),
(536,380,ls),
(538,373,o),
(546,370,o),
(557,371,cs),
(566,371,o),
(572,375,o),
(572,382,cs),
(565,493,ls),
(565,501,o),
(562,504,o),
(550,508,cs),
(508,519,o),
(453,527,o),
(382,527,cs),
(198,527,o),
(53,422,o),
(53,263,cs),
(53,99,o),
(183,-7,o),
(378,-7,cs)
);
}
);
};
guides = (
{
pos = (361,730);
},
{
angle = 90;
pos = (452,530);
}
);
layerId = m01;
shapes = (
{
closed = 1;
nodes = (
(457,-7,o),
(511,2,o),
(553,13,cs),
(580,20,o),
(589,26,o),
(589,36,cs),
(589,232,ls),
(589,252,o),
(590,259,o),
(628,263,cs),
(649,264,ls),
(658,264,o),
(662,267,o),
(662,272,cs),
(662,277,o),
(656,280,o),
(643,280,cs),
(400,280,ls),
(388,280,o),
(381,277,o),
(381,272,cs),
(381,268,o),
(386,264,o),
(398,264,cs),
(450,261,ls),
(486,258,o),
(494,253,o),
(494,233,cs),
(494,75,ls),
(494,27,o),
(458,13,o),
(385,13,cs),
(250,13,o),
(156,100,o),
(156,263,cs),
(156,421,o),
(248,507,o),
(378,507,cs),
(465,507,o),
(506,482,o),
(546,402,cs),
(557,380,ls),
(559,373,o),
(565,371,o),
(575,371,cs),
(584,371,o),
(591,375,o),
(591,382,cs),
(588,493,ls),
(588,501,o),
(582,504,o),
(570,508,cs),
(528,519,o),
(470,527,o),
(402,527,cs),
(198,527,o),
(53,422,o),
(53,263,cs),
(53,99,o),
(169,-7,o),
(385,-7,cs)
);
}
);
width = 689;
}
);
unicode = 71;
},
{
glyphname = H;
kernLeft = H;
kernRight = H;
lastChange = "2022-09-01 20:53:06 +0000";
layers = (
{
background = {
shapes = (
{
closed = 1;
nodes = (
(302,0,l),
(302,16,l),
(245,21,ls),
(220,23,o),
(212,27,o),
(212,45,cs),
(212,258,l),
(511,258,l),
(511,45,ls),
(511,27,o),
(503,23,o),
(477,21,cs),
(420,16,l),
(420,0,l),
(697,0,l),
(697,16,l),
(637,21,ls),
(612,23,o),
(605,27,o),
(605,45,cs),
(605,475,ls),
(605,493,o),
(612,497,o),
(637,499,cs),
(697,504,l),
(697,520,l),
(420,520,l),
(420,504,l),
(477,499,ls),
(503,497,o),
(511,493,o),
(511,475,cs),
(511,280,l),
(212,280,l),
(212,475,ls),
(212,493,o),
(220,497,o),
(245,499,cs),
(302,504,l),
(302,520,l),
(25,520,l),
(25,504,l),
(85,499,ls),
(109,497,o),
(117,493,o),
(117,475,cs),
(117,45,ls),
(117,27,o),
(109,23,o),
(85,21,cs),
(25,16,l),
(25,0,l)
);
}
);
};
layerId = m01;
shapes = (
{
closed = 1;
nodes = (
(288,0,ls),
(300,0,o),
(307,3,o),
(307,8,cs),
(307,13,o),
(301,16,o),
(292,17,cs),
(256,20,ls),
(220,22,o),
(212,28,o),
(212,48,cs),
(212,248,ls),
(212,255,o),
(218,258,o),
(230,258,cs),
(492,258,ls),
(504,258,o),
(511,255,o),
(511,248,cs),
(511,48,ls),
(511,28,o),
(503,22,o),
(466,20,cs),
(430,17,ls),
(421,16,o),
(415,13,o),
(415,8,cs),
(415,3,o),
(422,0,o),
(435,0,cs),
(677,0,ls),
(690,0,o),
(697,3,o),
(697,8,cs),
(697,12,o),
(691,15,o),
(680,17,cs),
(650,20,ls),
(612,23,o),
(605,27,o),
(605,48,cs),
(605,473,ls),
(605,493,o),
(612,497,o),
(650,501,cs),
(680,503,ls),
(691,505,o),
(697,508,o),
(697,513,cs),
(697,518,o),
(690,520,o),
(677,520,cs),
(435,520,ls),
(422,520,o),
(415,518,o),
(415,512,cs),
(415,507,o),
(421,504,o),
(430,503,cs),
(466,501,ls),
(503,498,o),
(511,492,o),
(511,472,cs),
(511,291,ls),
(511,284,o),
(504,280,o),
(492,280,cs),
(230,280,ls),
(218,280,o),
(212,284,o),
(212,291,cs),
(212,472,ls),
(212,492,o),
(220,498,o),
(256,501,cs),
(292,503,ls),
(301,504,o),
(307,507,o),
(307,512,cs),
(307,518,o),
(300,520,o),
(288,520,cs),
(45,520,ls),
(32,520,o),
(25,518,o),
(25,513,cs),
(25,508,o),
(30,505,o),
(43,503,cs),
(72,501,ls),
(109,497,o),
(117,493,o),
(117,473,cs),
(117,48,ls),
(117,27,o),
(109,23,o),
(72,20,cs),
(43,17,ls),
(30,15,o),
(25,12,o),
(25,8,cs),
(25,3,o),
(32,0,o),
(45,0,cs)
);
}
);
width = 722;
}
);
unicode = 72;
},
{
glyphname = Hbar;
kernLeft = H;
kernRight = H;
lastChange = "2022-08-23 19:52:53 +0000";
layers = (
{
layerId = m01;
shapes = (
{
ref = H;
},
{
closed = 1;
nodes = (
(684,384,ls),
(691,384,o),
(697,388,o),
(697,392,cs),
(697,398,ls),
(697,402,o),
(691,405,o),
(684,405,cs),
(38,405,ls),
(30,405,o),
(25,402,o),
(25,398,cs),
(25,392,ls),
(25,388,o),
(30,384,o),
(38,384,cs)
);
}
);
width = 722;
}
);
unicode = 294;
},
{
glyphname = I;
kernLeft = H;
kernRight = H;
lastChange = "2022-08-25 19:54:44 +0000";
layers = (
{
anchors = (
{
name = bottom;
pos = (125,0);
},
{
name = ogonek;
pos = (160,0);
},
{
name = top;
pos = (125,720);
},
{
name = topleft;
pos = (20,720);
}
);
background = {
shapes = (
{
closed = 1;
nodes = (
(304,0,l),
(304,16,l),
(245,21,ls),
(220,23,o),
(212,27,o),
(212,45,cs),
(212,475,ls),
(212,493,o),
(220,497,o),
(245,499,cs),
(304,504,l),
(304,520,l),
(25,520,l),
(25,504,l),
(85,499,ls),
(109,497,o),
(117,493,o),
(117,475,cs),
(117,45,ls),
(117,27,o),
(109,23,o),
(85,21,cs),
(25,16,l),
(25,0,l)
);
}
);
};
layerId = m01;
shapes = (
{
closed = 1;
nodes = (
(284,0,ls),
(298,0,o),
(304,3,o),
(304,8,cs),
(304,12,o),
(299,15,o),
(288,17,cs),
(256,20,ls),
(220,23,o),
(212,27,o),
(212,48,cs),
(212,473,ls),
(212,493,o),
(220,497,o),
(256,501,cs),
(288,503,ls),
(299,505,o),
(304,508,o),
(304,513,cs),
(304,518,o),
(298,520,o),
(284,520,cs),
(45,520,ls),
(32,520,o),
(25,518,o),
(25,513,cs),
(25,508,o),
(30,505,o),
(43,503,cs),
(72,501,ls),
(109,497,o),
(117,493,o),
(117,473,cs),
(117,48,ls),
(117,27,o),
(109,23,o),
(72,20,cs),
(43,17,ls),
(30,15,o),
(25,12,o),
(25,8,cs),
(25,3,o),
(32,0,o),
(45,0,cs)
);
}
);
width = 329;
}
);
unicode = 73;
},
{
glyphname = J;
kernRight = J;
lastChange = "2022-09-01 21:01:27 +0000";
layers = (
{
layerId = m01;
shapes = (
{
closed = 1;
nodes = (
(138,-156,o),
(212,-84,o),
(212,31,cs),
(212,473,ls),
(212,493,o),
(220,497,o),
(256,501,cs),
(288,503,ls),
(299,505,o),
(304,507,o),
(304,513,cs),
(304,518,o),
(298,520,o),
(284,520,cs),
(45,520,ls),
(32,520,o),
(25,518,o),
(25,513,cs),
(25,507,o),
(30,505,o),
(43,503,cs),
(72,501,ls),
(109,497,o),
(117,493,o),
(117,473,cs),
(117,-65,ls),
(117,-104,o),
(99,-127,o),
(66,-127,cs),
(18,-127,o),
(38,-79,o),
(-15,-109,cs),
(-39,-109,o),
(-56,-128,o),
(-56,-155,cs),
(-56,-191,o),
(-28,-215,o),
(18,-156,cs)
);
}
);
width = 329;
}
);
unicode = 74;
},
{
glyphname = K;
kernLeft = H;
kernRight = K;
lastChange = "2022-09-01 20:53:20 +0000";
layers = (
{
anchors = (
{
name = bottom;
pos = (268,0);
},
{
name = top;
pos = (248,720);
}
);
background = {
shapes = (
{
closed = 1;
nodes = (
(288,0,ls),
(300,0,o),
(307,3,o),
(307,8,cs),
(307,13,o),
(301,16,o),
(292,17,cs),
(256,20,ls),
(220,22,o),
(212,28,o),
(212,48,cs),
(212,472,ls),
(212,492,o),
(220,498,o),
(256,501,cs),
(292,503,ls),
(301,504,o),
(307,507,o),
(307,512,cs),
(307,518,o),
(300,520,o),
(288,520,cs),
(45,520,ls),
(32,520,o),
(25,518,o),
(25,513,cs),
(25,508,o),
(30,505,o),
(43,503,cs),
(72,501,ls),
(109,497,o),
(117,493,o),
(117,473,cs),
(117,48,ls),
(117,27,o),
(109,23,o),
(72,20,cs),
(43,17,ls),
(30,15,o),
(25,12,o),
(25,8,cs),
(25,3,o),
(32,0,o),
(45,0,cs)
);
},
{
closed = 1;
nodes = (
(488,450,ls),
(531,488,o),
(561,499,o),
(615,502,cs),
(641,503,ls),
(653,504,o),
(658,508,o),
(658,513,cs),
(658,518,o),
(651,520,o),
(638,520,cs),
(414,520,ls),
(402,520,o),
(396,518,o),
(396,513,cs),
(396,508,o),
(400,505,o),
(413,503,cs),
(443,501,ls),
(478,497,o),
(480,484,o),
(451,459,cs),
(218,259,l),
(202,259,l),
(202,207,l)
);
},
{
closed = 1;
nodes = (
(262,269,l),
(262,260,l),
(271,260,l),
(470,54,ls),
(491,32,o),
(483,20,o),
(450,18,cs),
(427,17,ls),
(416,16,o),
(409,12,o),
(409,8,cs),
(409,3,o),
(416,0,o),
(429,0,cs),
(664,0,ls),
(676,0,o),
(682,3,o),
(682,8,cs),
(682,13,o),
(677,16,o),
(667,17,cs),
(635,20,ls),
(614,22,o),
(600,27,o),
(585,42,cs),
(320,315,l)
);
}
);
};
layerId = m01;
shapes = (
{
closed = 1;
nodes = (
(288,0,ls),
(300,0,o),
(307,3,o),
(307,8,cs),
(307,13,o),
(301,16,o),
(292,17,cs),
(256,20,ls),
(220,22,o),
(212,28,o),
(212,48,cs),
(212,198,ls),
(212,212,o),
(215,218,o),
(228,229,cs),
(255,252,ls),
(263,259,o),
(274,258,o),
(281,252,cs),
(470,54,ls),
(491,32,o),
(483,20,o),
(450,18,cs),
(427,17,ls),
(416,16,o),
(409,12,o),
(409,8,cs),
(409,3,o),
(416,0,o),
(429,0,cs),
(664,0,ls),
(676,0,o),
(682,3,o),
(682,8,cs),
(682,13,o),
(677,16,o),
(667,17,cs),
(635,20,ls),
(614,22,o),
(600,27,o),
(585,42,cs),
(337,298,ls),
(329,306,o),
(329,314,o),
(338,322,cs),
(488,450,ls),
(531,488,o),
(561,499,o),
(615,502,cs),
(641,503,ls),
(653,504,o),
(658,508,o),
(658,513,cs),
(658,518,o),
(651,520,o),
(638,520,cs),
(414,520,ls),
(402,520,o),
(396,518,o),
(396,513,cs),
(396,508,o),
(400,505,o),
(413,503,cs),
(443,501,ls),
(478,497,o),
(480,484,o),
(451,459,cs),
(235,273,ls),
(224,264,o),
(212,267,o),
(212,277,cs),
(212,472,ls),
(212,492,o),
(220,498,o),
(256,501,cs),
(292,503,ls),
(301,504,o),
(307,507,o),
(307,512,cs),
(307,518,o),
(300,520,o),
(288,520,cs),
(45,520,ls),
(32,520,o),
(25,518,o),
(25,513,cs),
(25,508,o),
(30,505,o),
(43,503,cs),
(72,501,ls),
(109,497,o),
(117,493,o),
(117,473,cs),
(117,48,ls),
(117,27,o),
(109,23,o),
(72,20,cs),
(43,17,ls),
(30,15,o),
(25,12,o),
(25,8,cs),
(25,3,o),
(32,0,o),
(45,0,cs)
);
}
);
width = 656;
}
);
unicode = 75;
},
{
glyphname = L;
kernLeft = H;
kernRight = L;
lastChange = "2022-09-01 20:16:45 +0000";
layers = (
{
anchors = (
{
name = bottom;
pos = (207,0);
},
{
name = center;
pos = (207,360);
},
{
name = top;
pos = (125,720);
},
{
name = topright;
pos = (275,720);
}
);
layerId = m01;
shapes = (
{
closed = 1;
nodes = (
(473,0,ls),
(492,0,o),
(504,6,o),
(505,17,cs),
(521,152,ls),
(522,161,o),
(514,165,o),
(505,165,cs),
(494,165,o),
(488,162,o),
(485,156,cs),
(468,107,ls),
(442,32,o),
(368,18,o),
(307,18,cs),
(253,18,o),
(212,32,o),
(212,67,cs),
(212,472,ls),
(212,492,o),
(220,498,o),
(256,501,cs),
(292,503,ls),
(301,504,o),
(307,507,o),
(307,512,cs),
(307,518,o),
(300,520,o),
(288,520,cs),
(45,520,ls),
(32,520,o),
(25,518,o),
(25,513,cs),
(25,508,o),
(30,505,o),
(43,503,cs),
(72,501,ls),
(109,497,o),
(117,493,o),
(117,473,cs),
(117,48,ls),
(117,27,o),
(109,23,o),
(72,20,cs),
(43,17,ls),
(30,15,o),
(25,12,o),
(25,8,cs),
(25,3,o),
(32,0,o),
(45,0,cs)
);
}
);
width = 546;
}
);
unicode = 76;
},
{
glyphname = Lslash;
kernLeft = H;
kernRight = L;
lastChange = "2022-08-23 19:53:25 +0000";
layers = (
{
layerId = m01;
shapes = (
{
ref = L;
},
{
closed = 1;
nodes = (
(182,277,l),
(20,222,ls),
(14,219,o),
(12,215,o),
(16,212,cs),
(23,207,ls),
(26,203,o),
(33,202,o),
(39,205,cs),
(182,253,l)
);
},
{
closed = 1;
nodes = (
(182,255,l),
(350,312,ls),
(355,314,o),
(356,319,o),
(353,322,cs),
(346,327,ls),
(343,331,o),
(336,332,o),
(329,330,cs),
(182,279,l)
);
}
);
width = 546;
}
);
unicode = 321;
},
{
glyphname = M;
lastChange = "2022-09-01 20:53:28 +0000";
layers = (
{
background = {
shapes = (
{
closed = 1;
nodes = (
(423,7,o),
(432,9,o),
(436,19,cs),
(644,478,l),
(661,478,l),
(664,520,l),
(659,520,ls),
(634,520,o),
(621,514,o),
(616,502,cs),
(444,128,l),
(438,128,l),
(274,498,ls),
(267,513,o),
(251,520,o),
(223,520,cs),
(168,520,l),
(396,19,ls),
(399,9,o),
(408,7,o),
(416,7,cs)
);
},
{
closed = 1;
nodes = (
(841,0,ls),
(854,0,o),
(861,3,o),
(861,8,cs),
(861,12,o),
(856,15,o),
(844,17,cs),
(813,20,ls),
(776,23,o),
(769,27,o),
(768,48,cs),
(742,473,ls),
(741,493,o),
(750,497,o),
(787,501,cs),
(818,503,ls),
(829,505,o),
(835,508,o),
(835,513,cs),
(835,518,o),
(828,520,o),
(814,520,cs),
(664,520,l),
(650,495,l),
(674,48,ls),
(676,27,o),
(667,23,o),
(629,20,cs),
(599,17,ls),
(588,15,o),
(582,12,o),
(582,8,cs),
(582,3,o),
(589,0,o),
(601,0,cs)
);
},
{
closed = 1;
nodes = (
(193,520,l),
(64,520,ls),
(52,520,o),
(45,518,o),
(45,513,cs),
(45,508,o),
(51,505,o),
(62,503,cs),
(92,501,ls),
(132,497,o),
(141,493,o),
(140,473,cs),
(114,62,ls),
(113,35,o),
(99,22,o),
(53,18,cs),
(36,17,ls),
(24,16,o),
(18,12,o),
(18,8,cs),
(18,3,o),
(25,0,o),
(38,0,cs),
(228,0,ls),
(240,0,o),
(247,3,o),
(247,8,cs),
(247,12,o),
(241,16,o),
(230,17,cs),
(213,18,ls),
(169,22,o),
(153,35,o),
(155,62,cs),
(182,478,l),
(187,478,l)
);
}
);
};
guides = (
{
angle = 177.9834;
pos = (96,370);
showMeasurement = 1;
},
{
angle = 1.9481;
pos = (571,360);
showMeasurement = 1;
}
);
layerId = m01;
shapes = (
{
closed = 1;
nodes = (
(423,7,o),
(432,9,o),
(436,19,cs),
(637,462,ls),
(641,468,o),
(652,468,o),
(652,461,cs),
(674,48,ls),
(676,27,o),
(667,23,o),
(629,20,cs),
(599,17,ls),
(588,15,o),
(582,12,o),
(582,8,cs),
(582,3,o),
(589,0,o),
(601,0,cs),
(841,0,ls),
(854,0,o),
(861,3,o),
(861,8,cs),
(861,12,o),
(856,15,o),
(844,17,cs),
(813,20,ls),
(776,23,o),
(769,27,o),
(768,48,cs),
(742,473,ls),
(741,493,o),
(750,497,o),
(787,501,cs),
(818,503,ls),
(829,505,o),
(835,508,o),
(835,513,cs),
(835,518,o),
(828,520,o),
(814,520,cs),
(659,520,ls),
(634,520,o),
(621,514,o),
(616,502,cs),
(450,138,ls),
(447,132,o),
(436,132,o),
(434,138,cs),
(274,498,ls),
(267,513,o),
(251,520,o),
(223,520,cs),
(64,520,ls),
(52,520,o),
(45,518,o),
(45,513,cs),
(45,508,o),
(51,505,o),
(62,503,cs),
(92,501,ls),
(132,497,o),
(141,493,o),
(140,473,cs),
(114,62,ls),
(113,35,o),
(99,22,o),
(53,18,cs),
(36,17,ls),
(24,16,o),
(18,12,o),
(18,8,cs),
(18,3,o),
(25,0,o),
(38,0,cs),
(228,0,ls),
(240,0,o),
(247,3,o),
(247,8,cs),
(247,12,o),
(241,16,o),
(230,17,cs),
(213,18,ls),
(169,22,o),
(153,35,o),
(155,62,cs),
(182,461,ls),
(182,468,o),
(193,468,o),
(195,462,cs),
(396,19,ls),
(399,9,o),
(408,7,o),
(416,7,cs)
);
}
);
width = 880;
}
);
unicode = 77;
},
{
glyphname = N;
kernLeft = N;
kernRight = N;
lastChange = "2022-09-01 20:53:33 +0000";
layers = (
{
anchors = (
{
name = bottom;
pos = (270,0);
},
{
name = top;
pos = (270,720);
}
);
background = {
shapes = (
{
closed = 1;
nodes = (
(588,-7,o),
(598,-1,o),
(598,9,cs),
(598,458,ls),
(598,489,o),
(612,498,o),
(659,502,cs),
(676,503,ls),
(688,504,o),
(693,508,o),
(693,513,cs),
(693,518,o),
(687,520,o),
(673,520,cs),
(484,520,ls),
(470,520,o),
(465,518,o),
(465,513,cs),
(465,508,o),
(469,505,o),
(482,503,cs),
(505,502,ls),
(536,498,o),
(557,489,o),
(557,458,cs),
(557,119,l),
(550,119,l),
(215,504,ls),
(205,516,o),
(192,520,o),
(169,520,cs),
(41,520,ls),
(28,520,o),
(21,518,o),
(21,513,cs),
(21,508,o),
(26,505,o),
(38,503,cs),
(69,501,ls),
(108,497,o),
(116,493,o),
(116,473,cs),
(116,62,ls),
(116,35,o),
(102,22,o),
(55,18,cs),
(38,17,ls),
(26,16,o),
(21,12,o),
(21,8,cs),
(21,3,o),
(28,0,o),
(41,0,cs),
(230,0,ls),
(244,0,o),
(250,3,o),
(250,8,cs),
(250,12,o),
(245,16,o),
(232,17,cs),
(215,18,ls),
(172,22,o),
(158,35,o),
(158,62,cs),
(158,445,l),
(164,445,l),
(546,5,ls),
(554,-3,o),
(561,-7,o),
(574,-7,cs)
);
}
);
};
layerId = m01;
shapes = (
{
closed = 1;
nodes = (
(584,-7,o),
(598,-1,o),
(598,17,cs),
(598,458,ls),
(598,489,o),
(612,498,o),
(659,502,cs),
(676,503,ls),
(688,504,o),
(693,508,o),
(693,513,cs),
(693,518,o),
(687,520,o),
(673,520,cs),
(484,520,ls),
(470,520,o),
(465,518,o),
(465,513,cs),
(465,508,o),
(469,505,o),
(482,503,cs),
(505,502,ls),
(536,498,o),
(557,489,o),
(557,458,cs),
(557,131,ls),
(557,125,o),
(546,123,o),
(540,129,cs),
(229,504,ls),
(220,516,o),
(205,520,o),
(183,520,cs),
(41,520,ls),
(28,520,o),
(21,518,o),
(21,513,cs),
(21,508,o),
(26,505,o),
(38,503,cs),
(69,501,ls),
(108,497,o),
(116,493,o),
(116,473,cs),
(116,62,ls),
(116,35,o),
(102,22,o),
(55,18,cs),
(38,17,ls),
(26,16,o),
(21,12,o),
(21,8,cs),
(21,3,o),
(28,0,o),
(41,0,cs),
(230,0,ls),
(244,0,o),
(250,3,o),
(250,8,cs),
(250,12,o),
(245,16,o),
(232,17,cs),
(215,18,ls),
(172,22,o),
(158,35,o),
(158,62,cs),
(158,434,ls),
(158,440,o),
(168,442,o),
(174,436,cs),
(531,11,ls),
(542,-3,o),
(550,-7,o),
(567,-7,cs)
);
}
);
width = 714;
}
);
unicode = 78;
},
{
glyphname = Eng;
kernLeft = N;
kernRight = N;
lastChange = "2022-08-23 20:12:33 +0000";
layers = (
{
layerId = m01;
shapes = (
{
closed = 1;
nodes = (
(523,-156,o),
(598,-84,o),
(598,31,cs),
(598,458,ls),
(598,489,o),
(612,498,o),
(659,502,cs),
(676,503,ls),
(688,504,o),
(693,508,o),
(693,513,cs),
(693,518,o),
(687,520,o),
(673,520,cs),
(484,520,ls),
(470,520,o),
(465,518,o),
(465,513,cs),
(465,508,o),
(469,505,o),
(482,503,cs),
(505,502,ls),
(536,498,o),
(557,489,o),
(557,458,cs),
(557,131,ls),
(557,125,o),
(546,123,o),
(540,129,cs),
(215,504,ls),
(205,516,o),
(192,520,o),
(169,520,cs),
(41,520,ls),
(28,520,o),
(21,518,o),
(21,513,cs),
(21,508,o),
(26,505,o),
(38,503,cs),
(69,501,ls),
(108,497,o),
(116,493,o),
(116,473,cs),
(116,62,ls),
(116,35,o),
(102,22,o),
(55,18,cs),
(38,17,ls),
(26,16,o),
(21,12,o),
(21,8,cs),
(21,3,o),
(28,0,o),
(41,0,cs),
(230,0,ls),
(244,0,o),
(250,3,o),
(250,8,cs),
(250,12,o),
(245,16,o),
(232,17,cs),
(215,18,ls),
(172,22,o),
(158,35,o),
(158,62,cs),
(158,434,ls),
(158,440,o),
(168,442,o),
(174,436,cs),
(499,60,ls),
(505,51,o),
(508,46,o),
(508,37,cs),
(508,-65,ls),
(508,-104,o),
(489,-127,o),
(457,-127,cs),
(408,-127,o),
(427,-86,o),
(371,-86,cs),
(340,-86,o),
(320,-99,o),
(320,-116,cs),
(320,-139,o),
(356,-156,o),
(408,-156,cs)
);
}
);
width = 714;
}
);
unicode = 330;
},
{
glyphname = O;
kernLeft = O;
kernRight = O;
lastChange = "2022-09-01 19:27:44 +0000";
layers = (
{
anchors = (
{
name = bottom;
pos = (270,0);
},
{
name = center;
pos = (270,360);
},
{
name = ogonek;
pos = (486,10);
},
{
name = top;
pos = (270,720);
},
{
name = topleft;
pos = (20,720);
},
{
name = topright;
pos = (601,450);
}
);
background = {
shapes = (
{
pos = (-3,0);
ref = H;
}
);
};
guides = (
{
pos = (459,730);
},
{
angle = 90;
pos = (40,665);
},
{
angle = 90;
pos = (500,665);
}
);
layerId = m01;
shapes = (
{
closed = 1;
nodes = (
(527,-7,o),
(661,110,o),
(661,261,cs),
(661,411,o),
(527,527,o),
(356,527,cs),
(186,527,o),
(53,411,o),
(53,261,cs),
(53,110,o),
(186,-7,o),
(356,-7,cs)
);
},
{
closed = 1;
nodes = (
(232,13,o),
(158,94,o),
(158,261,cs),
(158,427,o),
(232,508,o),
(356,508,cs),
(482,508,o),
(557,427,o),
(557,261,cs),
(557,94,o),
(482,13,o),
(356,13,cs)
);
}
);
width = 714;
}
);
unicode = 79;
},
{
glyphname = Oslash;
kernLeft = O;
kernRight = O;
lastChange = "2022-08-23 19:53:48 +0000";
layers = (
{
background = {
shapes = (
{
closed = 1;
nodes = (
(105,-43,ls),
(112,-43,o),
(116,-42,o),
(118,-37,cs),
(452,388,ls),
(457,394,o),
(451,398,o),
(442,398,cs),
(432,398,ls),
(425,398,o),
(421,396,o),
(417,392,cs),
(85,-35,ls),
(80,-40,o),
(86,-43,o),
(95,-43,cs)
);
}
);
};
layerId = m01;
shapes = (
{
ref = O;
},
{
closed = 1;
nodes = (
(129,-43,ls),
(135,-43,o),
(140,-42,o),
(143,-37,cs),
(612,562,ls),
(616,567,o),
(611,571,o),
(601,571,cs),
(588,571,ls),
(581,571,o),
(575,570,o),
(573,565,cs),
(103,-35,ls),
(99,-40,o),
(105,-43,o),
(114,-43,cs)
);
}
);
width = 714;
}
);
unicode = 216;
},
{
glyphname = OE;
kernLeft = O;
kernRight = E;
lastChange = "2022-08-23 19:53:43 +0000";
layers = (
{
layerId = m01;
shapes = (
{
closed = 1;
nodes = (
(415,-7,o),
(455,0,o),
(514,0,cs),
(906,0,ls),
(926,0,o),
(937,6,o),
(938,17,cs),
(952,145,ls),
(953,153,o),
(945,157,o),
(936,157,cs),
(926,157,o),
(919,154,o),
(917,148,cs),
(900,105,ls),
(875,38,o),
(811,18,o),
(722,18,cs),
(636,18,o),
(608,32,o),
(608,67,cs),
(608,248,ls),
(608,255,o),
(615,258,o),
(627,258,cs),
(691,258,ls),
(731,258,o),
(752,251,o),
(765,218,cs),
(777,182,ls),
(780,176,o),
(790,172,o),
(800,173,cs),
(810,173,o),
(814,177,o),
(814,185,cs),
(814,348,ls),
(814,355,o),
(810,359,o),
(800,360,cs),
(790,360,o),
(780,356,o),
(777,350,cs),
(765,314,ls),
(756,291,o),
(733,280,o),
(693,280,cs),
(627,280,ls),
(615,280,o),
(608,284,o),
(608,291,cs),
(608,465,ls),
(608,492,o),
(631,502,o),
(703,502,cs),
(808,502,o),
(866,473,o),
(885,407,cs),
(894,381,ls),
(896,375,o),
(902,371,o),
(912,371,cs),
(923,371,o),
(931,376,o),
(929,383,cs),
(919,503,ls),
(918,514,o),
(906,520,o),
(885,520,cs),
(514,520,ls),
(455,520,o),
(415,527,o),
(362,527,cs),
(178,527,o),
(53,410,o),
(53,259,cs),
(53,110,o),
(178,-7,o),
(362,-7,cs)
);
},
{
closed = 1;
nodes = (
(220,13,o),
(158,94,o),
(158,259,cs),
(158,427,o),
(220,507,o),
(368,507,cs),
(455,507,o),
(514,485,o),
(514,436,cs),
(514,84,ls),
(514,36,o),
(455,13,o),
(368,13,cs)
);
}
);
width = 996;
}
);
metricLeft = O;
metricRight = E;
unicode = 338;
},
{
glyphname = P;
kernLeft = H;
lastChange = "2022-09-01 20:53:52 +0000";
layers = (
{
background = {
shapes = (
{
closed = 1;
nodes = (
(212,230,ls),
(212,238,o),
(213,243,o),
(224,243,cs),
(237,243,o),
(247,241,o),
(263,238,cs),
(277,236,o),
(300,235,o),
(336,235,cs),
(473,235,o),
(584,291,o),
(584,371,cs),
(584,468,o),
(469,520,o),
(325,520,cs),
(274,520,o),
(215,517,o),
(164,517,cs),
(130,517,o),
(91,520,o),
(51,520,cs),
(30,520,o),
(28,515,o),
(28,509,cs),
(28,501,o),
(37,501,o),
(79,497,cs),
(106,496,o),
(117,485,o),
(117,458,cs),
(117,56,ls),
(117,36,o),
(109,25,o),
(85,23,cs),
(37,20,o),
(28,18,o),
(28,8,cs),
(28,3,o),
(36,0,o),
(56,0,cs),
(72,0,o),
(90,3,o),
(172,3,cs),
(253,3,o),
(276,0,o),
(298,0,cs),
(315,0,o),
(324,5,o),
(324,11,cs),
(324,20,o),
(299,19,o),
(253,23,cs),
(222,26,o),
(212,37,o),
(212,65,cs)
);
},
{
closed = 1;
nodes = (
(212,473,ls),
(212,492,o),
(231,501,o),
(289,501,cs),
(413,501,o),
(482,451,o),
(482,376,cs),
(482,303,o),
(416,254,o),
(292,254,cs),
(263,254,o),
(241,259,o),
(230,266,cs),
(215,272,o),
(212,279,o),
(212,286,cs)
);
}
);
};
guides = (
{
pos = (261,326);
}
);
layerId = m01;
shapes = (
{
closed = 1;
nodes = (
(314,0,ls),
(327,0,o),
(334,3,o),
(334,8,cs),
(334,13,o),
(328,16,o),
(319,17,cs),
(270,21,ls),
(221,26,o),
(212,31,o),
(212,51,cs),
(212,225,ls),
(212,232,o),
(218,235,o),
(230,235,cs),
(325,235,ls),
(477,235,o),
(584,293,o),
(584,376,cs),
(584,461,o),
(477,520,o),
(321,520,cs),
(45,520,ls),
(32,520,o),
(25,518,o),
(25,513,cs),
(25,507,o),
(30,505,o),
(43,503,cs),
(72,501,ls),
(109,497,o),
(117,493,o),
(117,473,cs),
(117,48,ls),
(117,27,o),
(109,23,o),
(72,20,cs),
(43,17,ls),
(30,15,o),
(25,13,o),
(25,8,cs),
(25,3,o),
(32,0,o),
(45,0,cs)
);
},
{
closed = 1;
nodes = (
(212,473,l),
(212,494,o),
(237,502,o),
(292,502,cs),
(415,502,o),
(485,456,o),
(485,378,cs),
(485,301,o),
(415,253,o),
(300,253,cs),
(239,253,o),
(212,266,o),
(212,293,cs)
);
}
);
width = 616;
}
);
unicode = 80;
},
{
glyphname = Thorn;
kernLeft = H;
lastChange = "2022-08-23 19:53:56 +0000";
layers = (
{
background = {
shapes = (
{
closed = 1;
nodes = (
(314,0,ls),
(327,0,o),
(334,3,o),
(334,8,cs),
(334,13,o),
(328,16,o),
(319,17,cs),
(270,21,ls),
(221,26,o),
(212,31,o),
(212,51,cs),
(212,225,ls),
(212,232,o),
(218,235,o),
(230,235,cs),
(325,235,ls),
(477,235,o),
(584,293,o),
(584,376,cs),
(584,461,o),
(477,520,o),
(321,520,cs),
(45,520,ls),
(32,520,o),
(25,518,o),
(25,513,cs),
(25,507,o),
(30,505,o),
(43,503,cs),
(72,501,ls),
(109,497,o),
(117,493,o),
(117,473,cs),
(117,48,ls),
(117,27,o),
(109,23,o),
(72,20,cs),
(43,17,ls),
(30,15,o),
(25,13,o),
(25,8,cs),
(25,3,o),
(32,0,o),
(45,0,cs)
);
},
{
closed = 1;
nodes = (
(212,473,l),
(212,494,o),
(237,502,o),
(292,502,cs),
(415,502,o),
(485,456,o),
(485,378,cs),
(485,301,o),
(415,253,o),
(300,253,cs),
(239,253,o),
(212,266,o),
(212,293,cs)
);
}
);
};
layerId = m01;
shapes = (
{
closed = 1;
nodes = (
(314,0,ls),
(327,0,o),
(334,3,o),
(334,8,cs),
(334,12,o),
(328,15,o),
(316,17,cs),
(256,22,ls),
(220,26,o),
(212,31,o),
(212,51,cs),
(212,123,ls),
(212,130,o),
(218,133,o),
(230,133,cs),
(325,133,ls),
(477,133,o),
(584,191,o),
(584,274,cs),
(584,359,o),
(477,418,o),
(321,418,cs),
(230,418,ls),
(218,418,o),
(212,422,o),
(212,428,cs),
(212,469,ls),
(212,489,o),
(220,494,o),
(256,498,cs),
(316,503,ls),
(328,505,o),
(334,508,o),
(334,513,cs),
(334,518,o),
(327,520,o),
(314,520,cs),
(45,520,ls),
(32,520,o),
(25,518,o),
(25,513,cs),
(25,508,o),
(30,505,o),
(43,503,cs),
(72,501,ls),
(109,497,o),
(117,493,o),
(117,473,cs),
(117,48,ls),
(117,27,o),
(109,23,o),
(72,20,cs),
(43,17,ls),
(30,15,o),
(25,12,o),
(25,8,cs),
(25,3,o),
(32,0,o),
(45,0,cs)
);
},
{
closed = 1;
nodes = (
(239,151,o),
(212,164,o),
(212,191,cs),
(212,371,ls),
(212,392,o),
(237,400,o),
(292,400,cs),
(415,400,o),
(485,354,o),
(485,276,cs),
(485,199,o),
(415,151,o),
(300,151,cs)
);
}
);
width = 616;
}
);
unicode = 222;
},
{
glyphname = Q;
kernLeft = O;
kernRight = O;
lastChange = "2022-09-01 19:45:32 +0000";
layers = (
{
background = {
shapes = (
{
closed = 1;
nodes = (
(527,-7,o),
(661,110,o),
(661,261,cs),
(661,411,o),
(527,527,o),
(356,527,cs),
(186,527,o),
(53,411,o),
(53,261,cs),
(53,110,o),
(186,-7,o),
(356,-7,cs)
);
},
{
closed = 1;
nodes = (
(232,13,o),
(158,94,o),
(158,261,cs),
(158,427,o),
(232,508,o),
(356,508,cs),
(482,508,o),
(557,427,o),
(557,261,cs),
(557,94,o),
(482,13,o),
(356,13,cs)
);
},
{
closed = 1;
nodes = (
(635,-156,o),
(676,-146,o),
(704,-134,cs),
(712,-131,o),
(714,-128,o),
(714,-124,cs),
(714,-116,o),
(699,-114,o),
(685,-119,cs),
(658,-128,o),
(634,-133,o),
(605,-133,cs),
(544,-133,o),
(492,-110,o),
(460,-54,cs),
(439,-15,o),
(404,-3,o),
(323,3,c),
(279,3,l),
(336,-9,o),
(353,-17,o),
(363,-51,cs),
(389,-133,o),
(494,-156,o),
(574,-156,cs)
);
}
);
};
layerId = m01;
shapes = (
{
closed = 1;
nodes = (
(635,-156,o),
(676,-146,o),
(704,-134,cs),
(712,-131,o),
(714,-128,o),
(714,-124,cs),
(714,-116,o),
(699,-114,o),
(685,-119,cs),
(658,-128,o),
(634,-133,o),
(605,-133,cs),
(544,-133,o),
(492,-110,o),
(460,-54,cs),
(450,-33,o),
(434,-21,o),
(412,-12,cs),
(402,-8,o),
(402,-3,o),
(413,-3,cs),
(555,20,o),
(661,128,o),
(661,261,cs),
(661,411,o),
(527,527,o),
(356,527,cs),
(186,527,o),
(53,411,o),
(53,261,cs),
(53,130,o),
(155,24,o),
(293,-1,c),
(338,-11,o),
(354,-20,o),
(363,-51,cs),
(389,-133,o),
(494,-156,o),
(574,-156,cs)
);
},
{
closed = 1;
nodes = (
(232,13,o),
(158,94,o),
(158,261,cs),
(158,427,o),
(232,508,o),
(356,508,cs),
(482,508,o),
(557,427,o),
(557,261,cs),
(557,94,o),
(482,13,o),
(356,13,cs)
);
}
);
width = 714;
}
);
unicode = 81;
},
{
glyphname = R;
kernLeft = H;
kernRight = R;
lastChange = "2022-09-01 20:17:03 +0000";
layers = (
{
anchors = (
{
name = bottom;
pos = (277,0);
},
{
name = top;
pos = (257,720);
}
);
background = {
shapes = (
{
closed = 1;
nodes = (
(314,0,ls),
(327,0,o),
(334,3,o),
(334,8,cs),
(334,13,o),
(328,16,o),
(319,17,cs),
(270,21,ls),
(221,26,o),
(212,31,o),
(212,51,cs),
(212,231,ls),
(212,242,o),
(227,250,o),
(251,250,cs),
(331,250,ls),
(476,250,o),
(596,314,o),
(596,390,cs),
(596,466,o),
(483,520,o),
(327,520,cs),
(45,520,ls),
(32,520,o),
(25,518,o),
(25,513,cs),
(25,507,o),
(30,505,o),
(43,503,cs),
(72,501,ls),
(109,497,o),
(117,493,o),
(117,473,cs),
(117,48,ls),
(117,27,o),
(109,23,o),
(72,20,cs),
(43,17,ls),
(30,15,o),
(25,13,o),
(25,8,cs),
(25,3,o),
(32,0,o),
(45,0,cs)
);
},
{
closed = 1;
nodes = (
(239,268,o),
(212,280,o),
(212,308,cs),
(212,473,l),
(212,494,o),
(237,502,o),
(294,502,cs),
(421,502,o),
(496,460,o),
(496,388,cs),
(496,315,o),
(420,268,o),
(300,268,cs)
);
},
{
closed = 1;
nodes = (
(646,-7,o),
(691,7,o),
(691,24,cs),
(691,31,o),
(677,35,o),
(662,30,cs),
(644,22,o),
(635,21,o),
(621,21,cs),
(581,21,o),
(557,41,o),
(537,90,cs),
(508,164,ls),
(488,214,o),
(453,238,o),
(389,250,c),
(389,254,l),
(251,250,l),
(360,250,o),
(389,234,o),
(417,156,cs),
(448,76,ls),
(469,21,o),
(519,-7,o),
(596,-7,cs)
);
}
);
};
guides = (
{
angle = 15.5241;
pos = (439,117);
showMeasurement = 1;
}
);
layerId = m01;
shapes = (
{
closed = 1;
nodes = (
(646,-7,o),
(691,7,o),
(691,24,cs),
(691,31,o),
(677,35,o),
(662,30,cs),
(644,22,o),
(635,21,o),
(621,21,cs),
(581,21,o),
(557,41,o),
(537,90,cs),
(508,164,ls),
(491,207,o),
(460,232,o),
(404,246,cs),
(391,249,o),
(391,254,o),
(405,257,cs),
(506,277,o),
(582,330,o),
(582,390,cs),
(582,466,o),
(469,520,o),
(314,520,cs),
(45,520,ls),
(32,520,o),
(25,518,o),
(25,513,cs),
(25,507,o),
(30,505,o),
(43,503,cs),
(72,501,ls),
(109,497,o),
(117,493,o),
(117,473,cs),
(117,48,ls),
(117,27,o),
(109,23,o),
(72,20,cs),
(43,17,ls),
(30,15,o),
(25,13,o),
(25,8,cs),
(25,3,o),
(32,0,o),
(45,0,cs),
(314,0,ls),
(327,0,o),
(334,3,o),
(334,8,cs),
(334,13,o),
(328,16,o),
(319,17,cs),
(270,21,ls),
(221,26,o),
(212,31,o),
(212,51,cs),
(212,231,ls),
(212,242,o),
(227,250,o),
(251,250,cs),
(360,250,o),
(389,234,o),
(417,156,cs),
(448,76,ls),
(469,21,o),
(519,-7,o),
(596,-7,cs)
);
},
{
closed = 1;
nodes = (
(239,268,o),
(212,280,o),
(212,308,cs),
(212,473,ls),
(212,494,o),
(237,502,o),
(282,502,cs),
(407,502,o),
(483,460,o),
(483,388,cs),
(483,315,o),
(420,268,o),
(300,268,cs)
);
}
);
width = 678;
}
);
unicode = 82;
},
{
glyphname = S;
kernLeft = S;
kernRight = S;
lastChange = "2022-09-01 20:17:08 +0000";
layers = (
{
anchors = (
{
name = bottom;
pos = (209,0);
},
{
name = top;
pos = (229,720);
}
);
background = {
shapes = (
{
closed = 0;
nodes = (
(429,110,ls),
(429,70,o),
(379,17,o),
(279,17,cs),
(170,17,o),
(131,48,o),
(102,120,cs),
(94,139,ls),
(90,148,o),
(83,150,o),
(74,150,cs),
(66,150,o),
(59,147,o),
(59,138,cs),
(64,29,ls),
(64,21,o),
(69,17,o),
(79,13,cs),
(115,-1,o),
(168,-7,o),
(250,-7,cs),
(420,-7,o),
(512,69,o),
(512,135,cs)
);
}
);
};
layerId = m01;
shapes = (
{
closed = 1;
nodes = (
(391,-7,o),
(499,48,o),
(499,128,cs),
(499,190,o),
(440,242,o),
(308,301,cs),
(184,354,o),
(141,388,o),
(141,428,cs),
(141,478,o),
(189,506,o),
(266,506,cs),
(343,506,o),
(377,473,o),
(415,399,cs),
(424,381,ls),
(429,373,o),
(432,371,o),
(442,371,cs),
(453,371,o),
(459,375,o),
(459,382,cs),
(455,492,ls),
(455,500,o),
(448,503,o),
(438,508,cs),
(406,520,o),
(353,527,o),
(300,527,cs),
(159,527,o),
(59,481,o),
(59,410,cs),
(59,355,o),
(115,311,o),
(246,259,cs),
(363,211,o),
(415,163,o),
(415,107,cs),
(415,48,o),
(360,14,o),
(271,14,cs),
(186,14,o),
(133,48,o),
(103,118,cs),
(91,145,ls),
(87,155,o),
(82,158,o),
(71,158,cs),
(60,158,o),
(54,153,o),
(54,144,cs),
(61,31,ls),
(61,20,o),
(68,17,o),
(79,13,cs),
(112,3,o),
(191,-7,o),
(244,-7,cs)
);
}
);
width = 538;
}
);
unicode = 83;
},
{
glyphname = Germandbls;
lastChange = "2022-08-18 20:20:07 +0000";
layers = (
{
background = {
shapes = (
{
ref = H;
}
);
};
layerId = m01;
shapes = (
{
closed = 1;
nodes = (
(557,-7,o),
(660,34,o),
(660,122,cs),
(660,184,o),
(575,249,o),
(450,307,c),
(436,282,l),
(656,453,l),
(591,504,o),
(528,527,o),
(400,527,cs),
(240,527,o),
(117,465,o),
(117,358,cs),
(117,48,ls),
(117,27,o),
(109,23,o),
(72,20,cs),
(43,17,ls),
(30,15,o),
(25,12,o),
(25,8,cs),
(25,3,o),
(32,0,o),
(45,0,cs),
(179,0,ls),
(200,0,o),
(212,7,o),
(212,17,cs),
(212,369,ls),
(212,473,o),
(298,507,o),
(400,507,cs),
(482,507,o),
(547,479,o),
(582,427,c),
(601,455,l),
(370,275,l),
(390,267,ls),
(505,221,o),
(576,156,o),
(576,100,cs),
(576,27,o),
(514,14,o),
(466,14,cs),
(406,14,o),
(356,46,o),
(340,96,cs),
(325,138,ls),
(323,147,o),
(315,151,o),
(304,151,cs),
(292,151,o),
(288,146,o),
(288,137,cs),
(288,31,ls),
(288,20,o),
(293,17,o),
(306,13,cs),
(337,3,o),
(397,-7,o),
(451,-7,cs)
);
}
);
width = 699;
}
);
metricLeft = H;
metricRight = S;
unicode = 7838;
},
{
glyphname = T;
kernLeft = T;
kernRight = T;
lastChange = "2022-09-01 21:02:25 +0000";
layers = (
{
anchors = (
{
name = bottom;
pos = (231,0);
},
{
name = center;
pos = (231,360);
},
{
name = top;
pos = (231,720);
}
);
layerId = m01;
shapes = (
{
closed = 1;
nodes = (
(453,0,ls),
(467,0,o),
(474,3,o),
(474,8,cs),
(474,12,o),
(468,16,o),
(457,17,cs),
(397,22,ls),
(362,25,o),
(352,30,o),
(352,50,cs),
(352,484,ls),
(352,497,o),
(360,502,o),
(393,502,cs),
(459,502,o),
(532,473,o),
(552,405,cs),
(558,381,ls),
(559,375,o),
(566,371,o),
(576,371,cs),
(588,371,o),
(596,376,o),
(593,383,cs),
(582,514,ls),
(581,525,o),
(573,531,o),
(558,531,cs),
(540,531,o),
(537,520,o),
(452,520,cs),
(158,520,ls),
(72,520,o),
(69,531,o),
(52,531,cs),
(37,531,o),
(29,525,o),
(28,514,cs),
(16,383,ls),
(15,376,o),
(23,371,o),
(33,371,cs),
(44,371,o),
(51,375,o),
(52,381,cs),
(59,405,ls),
(77,473,o),
(151,502,o),
(217,502,cs),
(250,502,o),
(258,497,o),
(258,484,cs),
(258,50,ls),
(258,30,o),
(247,25,o),
(213,22,cs),
(153,17,ls),
(141,16,o),
(136,12,o),
(136,8,cs),
(136,3,o),
(143,0,o),
(156,0,cs)
);
}
);
width = 610;
}
);
unicode = 84;
},
{
glyphname = U;
kernLeft = U;
kernRight = U;
lastChange = "2022-09-01 20:54:19 +0000";
layers = (
{
anchors = (
{
name = bottom;
pos = (268,0);
},
{
name = ogonek;
pos = (334,0);
},
{
name = top;
pos = (288,720);
},
{
name = topright;
pos = (586,450);
}
);
background = {
shapes = (
{
pos = (3,0);
ref = H;
}
);
};
layerId = m01;
shapes = (
{
closed = 1;
nodes = (
(506,-7,o),
(600,51,o),
(600,139,cs),
(600,458,ls),
(600,484,o),
(614,498,o),
(645,501,cs),
(676,503,ls),
(688,505,o),
(693,507,o),
(693,513,cs),
(693,518,o),
(687,520,o),
(673,520,cs),
(483,520,ls),
(469,520,o),
(462,518,o),
(462,512,cs),
(462,507,o),
(468,504,o),
(477,503,cs),
(513,501,ls),
(545,498,o),
(558,484,o),
(558,457,cs),
(558,138,ls),
(558,65,o),
(494,22,o),
(386,22,cs),
(279,22,o),
(215,65,o),
(215,138,cs),
(215,472,ls),
(215,492,o),
(224,498,o),
(261,501,cs),
(297,503,ls),
(306,504,o),
(310,507,o),
(310,512,cs),
(310,518,o),
(304,520,o),
(291,520,cs),
(49,520,ls),
(36,520,o),
(29,518,o),
(29,513,cs),
(29,507,o),
(34,505,o),
(46,503,cs),
(77,501,ls),
(114,497,o),
(122,493,o),
(122,473,cs),
(122,139,ls),
(122,53,o),
(221,-7,o),
(363,-7,cs)
);
}
);
width = 708;
}
);
unicode = 85;
},
{
glyphname = V;
lastChange = "2022-09-01 20:54:24 +0000";
layers = (
{
background = {
shapes = (
{
closed = 1;
nodes = (
(309,-7,o),
(319,-5,o),
(323,4,cs),
(528,456,ls),
(539,483,o),
(555,498,o),
(590,502,cs),
(610,503,ls),
(621,505,o),
(628,508,o),
(628,513,cs),
(628,518,o),
(620,520,o),
(608,520,cs),
(423,520,ls),
(412,520,o),
(405,518,o),
(405,513,cs),
(405,508,o),
(412,505,o),
(427,503,cs),
(447,502,ls),
(488,499,o),
(499,484,o),
(486,456,cs),
(331,113,l),
(324,113,l),
(166,472,ls),
(156,493,o),
(162,501,o),
(193,502,cs),
(218,503,ls),
(235,504,o),
(240,508,o),
(240,513,cs),
(240,518,o),
(235,520,o),
(222,520,cs),
(-3,720,ls),
(-12,720,o),
(-18,717,o),
(-18,710,cs),
(-18,703,o),
(-13,699,o),
(-4,697,cs),
(15,502,ls),
(49,498,o),
(61,489,o),
(72,462,cs),
(282,4,ls),
(285,-5,o),
(294,-7,o),
(302,-7,cs)
);
}
);
};
layerId = m01;
shapes = (
{
closed = 1;
nodes = (
(309,-7,o),
(319,-5,o),
(323,4,cs),
(528,456,ls),
(539,483,o),
(555,498,o),
(590,502,cs),
(610,503,ls),
(621,505,o),
(628,508,o),
(628,513,cs),
(628,518,o),
(620,520,o),
(608,520,cs),
(423,520,ls),
(412,520,o),
(405,518,o),
(405,513,cs),
(405,508,o),
(412,505,o),
(427,503,cs),
(447,502,ls),
(488,499,o),
(499,484,o),
(486,456,cs),
(335,124,ls),
(332,118,o),
(321,118,o),
(319,124,cs),
(166,472,ls),
(156,493,o),
(162,501,o),
(193,502,cs),
(218,503,ls),
(235,504,o),
(240,508,o),
(240,513,cs),
(240,518,o),
(235,520,o),
(222,520,cs),
(-3,720,ls),
(-12,720,o),
(-18,717,o),
(-18,710,cs),
(-18,703,o),
(-13,699,o),
(-4,697,cs),
(15,502,ls),
(49,498,o),
(61,489,o),
(72,462,cs),
(282,4,ls),
(285,-5,o),
(294,-7,o),
(302,-7,cs)
);
}
);
width = 605;
}
);
unicode = 86;
},
{
glyphname = W;
kernLeft = W;
kernRight = W;
lastChange = "2022-09-01 20:54:28 +0000";
layers = (
{
anchors = (
{
name = bottom;
pos = (326,0);
},
{
name = top;
pos = (346,720);
}
);
background = {
shapes = (
{
closed = 1;
nodes = (
(578,-7,o),
(585,-5,o),
(590,4,cs),
(795,456,ls),
(810,489,o),
(823,502,o),
(848,503,cs),
(862,503,ls),
(876,504,o),
(884,507,o),
(884,513,cs),
(884,518,o),
(875,520,o),
(862,520,cs),
(714,520,ls),
(703,520,o),
(696,518,o),
(696,513,cs),
(696,508,o),
(702,505,o),
(715,503,cs),
(730,502,ls),
(760,499,o),
(766,484,o),
(754,456,cs),
(598,113,l),
(591,113,l),
(432,472,ls),
(423,493,o),
(427,500,o),
(450,502,cs),
(465,503,ls),
(477,505,o),
(484,508,o),
(484,513,cs),
(484,518,o),
(477,520,o),
(466,520,cs),
(284,520,ls),
(273,520,o),
(264,518,o),
(264,513,cs),
(264,508,o),
(271,505,o),
(283,503,cs),
(302,502,ls),
(323,499,o),
(332,489,o),
(344,462,cs),
(553,4,ls),
(557,-5,o),
(564,-7,o),
(572,-7,cs)
);
},
{
closed = 1;
nodes = (
(452,344,l),
(334,109,l),
(327,109,l),
(166,472,ls),
(156,493,o),
(162,499,o),
(193,502,cs),
(208,503,ls),
(221,505,o),
(228,508,o),
(228,513,cs),
(228,518,o),
(221,520,o),
(209,520,cs),
(-3,720,ls),
(-12,720,o),
(-18,717,o),
(-18,710,cs),
(-18,703,o),
(-13,699,o),
(-4,697,cs),
(15,502,ls),
(49,498,o),
(61,489,o),
(72,462,cs),
(282,4,ls),
(285,-5,o),
(293,-7,o),
(301,-7,cs),
(308,-7,o),
(315,-5,o),
(320,4,cs),
(476,312,l)
);
},
{
closed = 1;
nodes = (
(491,286,l),
(581,456,ls),
(598,489,o),
(610,502,o),
(634,503,cs),
(649,503,ls),
(662,504,o),
(670,507,o),
(670,513,cs),
(670,518,o),
(661,520,o),
(649,520,cs),
(522,520,ls),
(511,520,o),
(504,517,o),
(504,513,cs),
(504,507,o),
(509,505,o),
(523,503,cs),
(538,502,ls),
(554,501,o),
(562,493,o),
(542,456,cs),
(467,318,l)
);
}
);
};
layerId = m01;
shapes = (
{
closed = 1;
nodes = (
(578,-7,o),
(585,-5,o),
(590,4,cs),
(795,456,ls),
(810,489,o),
(823,502,o),
(848,503,cs),
(862,503,ls),
(876,504,o),
(884,507,o),
(884,513,cs),
(884,518,o),
(875,520,o),
(862,520,cs),
(714,520,ls),
(703,520,o),
(696,518,o),
(696,513,cs),
(696,508,o),
(702,505,o),
(715,503,cs),
(730,502,ls),
(760,499,o),
(766,484,o),
(754,456,cs),
(601,123,ls),
(599,116,o),
(589,117,o),
(585,123,cs),
(527,259,ls),
(511,297,o),
(511,325,o),
(530,361,cs),
(581,456,ls),
(598,489,o),
(610,502,o),
(634,503,cs),
(649,503,ls),
(662,504,o),
(670,507,o),
(670,513,cs),
(670,518,o),
(661,520,o),
(649,520,cs),
(522,520,ls),
(511,520,o),
(504,517,o),
(504,513,cs),
(504,507,o),
(509,505,o),
(523,503,cs),
(538,502,ls),
(554,501,o),
(562,493,o),
(542,456,cs),
(494,369,ls),
(491,362,o),
(480,362,o),
(477,369,cs),
(432,472,ls),
(423,493,o),
(427,500,o),
(450,502,cs),
(465,503,ls),
(477,505,o),
(484,508,o),
(484,513,cs),
(484,518,o),
(477,520,o),
(466,520,cs),
(284,520,ls),
(273,520,o),
(264,518,o),
(264,513,cs),
(264,508,o),
(271,505,o),
(283,503,cs),
(302,502,ls),
(323,499,o),
(332,489,o),
(344,462,cs),
(399,339,ls),
(416,301,o),
(416,274,o),
(398,237,cs),
(338,119,ls),
(335,113,o),
(324,113,o),
(321,119,cs),
(166,472,ls),
(156,493,o),
(162,499,o),
(193,502,cs),
(208,503,ls),
(221,505,o),
(228,508,o),
(228,513,cs),
(228,518,o),
(221,520,o),
(209,520,cs),
(-3,720,ls),
(-12,720,o),
(-18,717,o),
(-18,710,cs),
(-18,703,o),
(-13,699,o),
(-4,697,cs),
(15,502,ls),
(49,498,o),
(61,489,o),
(72,462,cs),
(282,4,ls),
(285,-5,o),
(293,-7,o),
(301,-7,cs),
(308,-7,o),
(315,-5,o),
(320,4,cs),
(434,229,ls),
(438,235,o),
(448,235,o),
(451,229,cs),
(553,4,ls),
(557,-5,o),
(564,-7,o),
(572,-7,cs)
);
}
);
width = 861;
}
);
unicode = 87;
},
{
glyphname = X;
lastChange = "2022-09-01 20:54:34 +0000";
layers = (
{
background = {
shapes = (
{
closed = 1;
nodes = (
(673,0,ls),
(689,0,o),
(697,3,o),
(697,7,cs),
(697,12,o),
(690,16,o),
(674,17,cs),
(650,20,ls),
(628,22,o),
(607,26,o),
(589,48,cs),
(241,472,ls),
(227,490,o),
(239,498,o),
(270,502,cs),
(294,503,ls),
(309,505,o),
(317,508,o),
(317,513,cs),
(317,518,o),
(309,520,o),
(293,520,cs),
(61,520,ls),
(46,520,o),
(38,518,o),
(38,513,cs),
(38,508,o),
(45,505,o),
(60,503,cs),
(85,502,ls),
(107,499,o),
(129,494,o),
(145,472,cs),
(493,48,ls),
(508,31,o),
(493,22,o),
(462,20,cs),
(436,17,ls),
(423,16,o),
(415,13,o),
(415,8,cs),
(415,3,o),
(423,0,o),
(439,0,cs)
);
},
{
closed = 1;
nodes = (
(267,0,ls),
(284,0,o),
(291,3,o),
(291,7,cs),
(291,12,o),
(284,15,o),
(268,17,cs),
(231,22,ls),
(201,26,o),
(197,35,o),
(213,55,cs),
(342,225,l),
(367,225,l),
(307,276,l),
(319,261,o),
(317,250,o),
(308,238,cs),
(176,65,ls),
(153,37,o),
(124,26,o),
(68,20,cs),
(46,18,ls),
(32,17,o),
(26,13,o),
(26,8,cs),
(26,4,o),
(32,0,o),
(51,0,cs)
);
},
{
closed = 1;
nodes = (
(407,271,o),
(407,282,o),
(416,294,cs),
(542,455,ls),
(565,484,o),
(593,496,o),
(637,500,cs),
(659,502,ls),
(673,503,o),
(678,507,o),
(678,512,cs),
(678,516,o),
(673,520,o),
(654,520,cs),
(452,520,ls),
(435,520,o),
(429,518,o),
(429,513,cs),
(429,508,o),
(435,505,o),
(451,503,cs),
(488,498,ls),
(519,495,o),
(522,485,o),
(506,465,cs),
(384,306,l),
(359,306,l),
(420,256,l)
);
}
);
};
layerId = m01;
shapes = (
{
closed = 1;
nodes = (
(267,0,ls),
(284,0,o),
(291,3,o),
(291,7,cs),
(291,12,o),
(284,15,o),
(268,17,cs),
(231,22,ls),
(201,26,o),
(197,35,o),
(213,55,cs),
(332,214,ls),
(338,223,o),
(351,223,o),
(356,214,cs),
(493,48,ls),
(508,31,o),
(493,22,o),
(462,20,cs),
(436,17,ls),
(423,16,o),
(415,13,o),
(415,8,cs),
(415,3,o),
(423,0,o),
(439,0,cs),
(673,0,ls),
(689,0,o),
(697,3,o),
(697,7,cs),
(697,12,o),
(690,16,o),
(674,17,cs),
(650,20,ls),
(628,22,o),
(607,26,o),
(589,48,cs),
(417,258,ls),
(406,271,o),
(407,282,o),
(416,294,cs),
(542,455,ls),
(565,484,o),
(593,496,o),
(637,500,cs),
(659,502,ls),
(673,503,o),
(678,507,o),
(678,512,cs),
(678,516,o),
(673,520,o),
(654,520,cs),
(452,520,ls),
(435,520,o),
(429,518,o),
(429,513,cs),
(429,508,o),
(435,505,o),
(451,503,cs),
(488,498,ls),
(519,495,o),
(522,485,o),
(506,465,cs),
(393,318,ls),
(386,309,o),
(374,309,o),
(368,318,cs),
(241,472,ls),
(227,490,o),
(239,498,o),
(270,502,cs),
(294,503,ls),
(309,505,o),
(317,508,o),
(317,513,cs),
(317,518,o),
(309,520,o),
(293,520,cs),
(61,520,ls),
(46,520,o),
(38,518,o),
(38,513,cs),
(38,508,o),
(45,505,o),
(60,503,cs),
(85,502,ls),
(107,499,o),
(129,494,o),
(145,472,cs),
(310,272,ls),
(321,259,o),
(316,248,o),
(308,238,cs),
(176,65,ls),
(153,37,o),
(124,26,o),
(68,20,cs),
(46,18,ls),
(32,17,o),
(26,13,o),
(26,8,cs),
(26,4,o),
(32,0,o),
(51,0,cs)
);
}
);
width = 722;
}
);
unicode = 88;
},
{
glyphname = Y;
kernLeft = Y;
kernRight = Y;
lastChange = "2022-09-01 21:02:35 +0000";
layers = (
{
anchors = (
{
name = bottom;
pos = (239,0);
},
{
name = top;
pos = (259,720);
},
{
name = topleft;
pos = (20,720);
}
);
background = {
shapes = (
{
closed = 1;
nodes = (
(466,0,ls),
(478,0,o),
(485,3,o),
(485,8,cs),
(485,12,o),
(480,16,o),
(468,17,cs),
(408,22,ls),
(374,25,o),
(363,30,o),
(363,50,cs),
(363,226,ls),
(363,241,o),
(369,252,o),
(381,266,cs),
(554,456,ls),
(583,488,o),
(598,499,o),
(623,502,cs),
(636,503,ls),
(649,505,o),
(654,508,o),
(654,513,cs),
(654,518,o),
(646,520,o),
(635,520,cs),
(447,520,ls),
(435,520,o),
(429,518,o),
(429,513,cs),
(429,508,o),
(435,505,o),
(451,503,cs),
(480,502,ls),
(521,498,o),
(532,481,o),
(511,456,cs),
(344,272,l),
(337,272,l),
(166,472,ls),
(148,492,o),
(162,501,o),
(193,502,cs),
(218,503,ls),
(235,504,o),
(240,508,o),
(240,513,cs),
(240,518,o),
(235,520,o),
(222,520,cs),
(-3,720,ls),
(-12,720,o),
(-18,717,o),
(-18,710,cs),
(-18,703,o),
(-13,699,o),
(-4,697,cs),
(7,502,ls),
(36,498,o),
(49,490,o),
(62,474,cs),
(256,252,ls),
(266,241,o),
(270,232,o),
(270,220,cs),
(270,50,ls),
(270,30,o),
(259,25,o),
(224,22,cs),
(166,17,ls),
(153,16,o),
(148,12,o),
(148,8,cs),
(148,3,o),
(155,0,o),
(168,0,cs)
);
}
);
};
layerId = m01;
shapes = (
{
closed = 1;
nodes = (
(466,0,ls),
(478,0,o),
(485,3,o),
(485,8,cs),
(485,12,o),
(480,16,o),
(468,17,cs),
(408,22,ls),
(374,25,o),
(363,30,o),
(363,50,cs),
(363,226,ls),
(363,241,o),
(369,252,o),
(381,266,cs),
(554,456,ls),
(583,488,o),
(598,499,o),
(623,502,cs),
(636,503,ls),
(649,505,o),
(654,508,o),
(654,513,cs),
(654,518,o),
(646,520,o),
(635,520,cs),
(447,520,ls),
(435,520,o),
(429,518,o),
(429,513,cs),
(429,508,o),
(435,505,o),
(451,503,cs),
(480,502,ls),
(521,498,o),
(532,481,o),
(511,456,cs),
(354,282,ls),
(347,275,o),
(335,275,o),
(328,282,cs),
(166,472,ls),
(148,492,o),
(162,501,o),
(193,502,cs),
(218,503,ls),
(235,504,o),
(240,508,o),
(240,513,cs),
(240,518,o),
(235,520,o),
(222,520,cs),
(-3,720,ls),
(-12,720,o),
(-18,717,o),
(-18,710,cs),
(-18,703,o),
(-13,699,o),
(-4,697,cs),
(7,502,ls),
(36,498,o),
(49,490,o),
(62,474,cs),
(256,252,ls),
(266,241,o),
(270,232,o),
(270,220,cs),
(270,50,ls),
(270,30,o),
(259,25,o),
(224,22,cs),
(166,17,ls),
(153,16,o),
(148,12,o),
(148,8,cs),
(148,3,o),
(155,0,o),
(168,0,cs)
);
}
);
width = 631;
}
);
unicode = 89;
},
{
glyphname = Z;
kernLeft = Z;
kernRight = Z;
lastChange = "2022-08-31 20:25:35 +0000";
layers = (
{
anchors = (
{
name = bottom;
pos = (214,0);
},
{
name = center;
pos = (214,360);
},
{
name = top;
pos = (234,720);
}
);
background = {
shapes = (
{
closed = 1;
nodes = (
(482,0,ls),
(501,0,o),
(513,6,o),
(514,17,cs),
(530,152,ls),
(531,161,o),
(523,165,o),
(514,165,cs),
(504,165,o),
(497,162,o),
(494,156,cs),
(473,93,ls),
(451,32,o),
(390,22,o),
(329,22,cs),
(132,22,l),
(132,26,l),
(521,499,ls),
(531,513,o),
(521,520,o),
(496,520,cs),
(204,520,ls),
(118,520,o),
(115,535,o),
(98,535,cs),
(85,535,o),
(77,529,o),
(76,518,cs),
(52,383,ls),
(51,376,o),
(59,371,o),
(69,371,cs),
(79,371,o),
(85,375,o),
(87,381,cs),
(107,416,ls),
(143,481,o),
(197,498,o),
(263,498,cs),
(416,498,l),
(416,495,l),
(28,21,ls),
(17,8,o),
(28,0,o),
(53,0,cs)
);
}
);
};
layerId = m01;
shapes = (
{
closed = 1;
nodes = (
(482,0,ls),
(501,0,o),
(513,6,o),
(514,17,cs),
(530,152,ls),
(531,161,o),
(523,165,o),
(514,165,cs),
(504,165,o),
(497,162,o),
(494,156,cs),
(477,107,ls),
(451,32,o),
(374,22,o),
(300,22,cs),
(153,22,ls),
(140,22,o),
(133,26,o),
(139,33,cs),
(521,499,ls),
(531,513,o),
(521,520,o),
(496,520,cs),
(204,520,ls),
(118,520,o),
(115,535,o),
(98,535,cs),
(85,535,o),
(77,529,o),
(76,518,cs),
(52,383,ls),
(51,376,o),
(59,371,o),
(69,371,cs),
(79,371,o),
(85,375,o),
(87,381,cs),
(107,416,ls),
(141,480,o),
(197,498,o),
(263,498,cs),
(396,498,ls),
(408,498,o),
(415,494,o),
(409,487,cs),
(28,21,ls),
(17,8,o),
(28,0,o),
(53,0,cs)
);
}
);
width = 565;
}
);
unicode = 90;
},
{
glyphname = a;
kernLeft = a;
kernRight = a;
lastChange = "2022-09-01 20:17:48 +0000";
layers = (
{
anchors = (
{
name = bottom;
pos = (200,0);
},
{
name = ogonek;
pos = (344,0);
},
{
name = top;
pos = (200,510);
}
);
background = {
shapes = (
{
closed = 1;
nodes = (
(223,-7,o),
(263,10,o),
(306,42,cs),
(317,51,o),
(334,51,o),
(336,41,cs),
(344,15,o),
(369,-7,o),
(412,-7,cs),
(468,-7,o),
(521,23,o),
(521,94,cs),
(521,102,o),
(514,105,o),
(505,105,cs),
(496,105,o),
(488,102,o),
(488,94,cs),
(488,54,o),
(465,38,o),
(442,38,cs),
(424,38,o),
(414,48,o),
(414,69,cs),
(414,290,ls),
(414,346,o),
(368,373,o),
(283,373,cs),
(170,373,o),
(41,313,o),
(41,257,cs),
(41,243,o),
(55,236,o),
(78,236,cs),
(107,236,o),
(141,249,o),
(151,280,cs),
(167,331,o),
(205,351,o),
(250,351,cs),
(294,351,o),
(324,333,o),
(324,286,cs),
(324,127,ls),
(324,70,o),
(262,26,o),
(194,26,cs),
(151,26,o),
(126,44,o),
(126,76,cs),
(126,134,o),
(205,174,o),
(336,195,c),
(336,214,l),
(160,187,o),
(32,128,o),
(32,64,cs),
(32,21,o),
(85,-7,o),
(159,-7,cs)
);
}
);
};
layerId = m01;
shapes = (
{
closed = 1;
nodes = (
(223,-7,o),
(263,10,o),
(306,42,cs),
(317,51,o),
(334,51,o),
(336,41,cs),
(344,15,o),
(369,-7,o),
(412,-7,cs),
(468,-7,o),
(521,23,o),
(521,94,cs),
(521,102,o),
(514,105,o),
(505,105,cs),
(496,105,o),
(488,102,o),
(488,94,cs),
(488,54,o),
(465,38,o),
(442,38,cs),
(424,38,o),
(414,48,o),
(414,69,cs),
(414,290,ls),
(414,346,o),
(368,373,o),
(283,373,cs),
(170,373,o),
(41,313,o),
(41,257,cs),
(41,243,o),
(55,236,o),
(78,236,cs),
(107,236,o),
(141,249,o),
(151,280,cs),
(167,331,o),
(205,351,o),
(250,351,cs),
(294,351,o),
(324,333,o),
(324,286,cs),
(324,221,ls),
(324,215,o),
(319,211,o),
(307,209,cs),
(147,180,o),
(32,125,o),
(32,64,cs),
(32,21,o),
(85,-7,o),
(159,-7,cs)
);
},
{
closed = 1;
nodes = (
(151,26,o),
(126,44,o),
(126,76,cs),
(126,128,o),
(189,166,o),
(297,187,cs),
(314,190,o),
(324,187,o),
(324,179,cs),
(324,127,ls),
(324,70,o),
(262,26,o),
(194,26,cs)
);
}
);
width = 528;
}
);
unicode = 97;
},
{
glyphname = ae;
kernLeft = a;
kernRight = e;
lastChange = "2022-08-23 19:55:07 +0000";
layers = (
{
background = {
shapes = (
{
closed = 1;
nodes = (
(223,-7,o),
(263,10,o),
(306,42,cs),
(317,51,o),
(334,51,o),
(414,69,c),
(414,290,ls),
(414,346,o),
(368,373,o),
(283,373,cs),
(170,373,o),
(41,313,o),
(41,257,cs),
(41,243,o),
(55,236,o),
(78,236,cs),
(107,236,o),
(141,249,o),
(151,280,cs),
(167,331,o),
(205,351,o),
(250,351,cs),
(294,351,o),
(324,333,o),
(324,286,cs),
(324,221,ls),
(324,215,o),
(319,211,o),
(307,209,cs),
(147,180,o),
(32,125,o),
(32,64,cs),
(32,21,o),
(85,-7,o),
(159,-7,cs)
);
},
{
closed = 1;
nodes = (
(151,26,o),
(126,44,o),
(126,76,cs),
(126,128,o),
(189,166,o),
(297,187,cs),
(314,190,o),
(324,187,o),
(324,179,cs),
(324,127,ls),
(324,70,o),
(262,26,o),
(194,26,cs)
);
},
{
closed = 1;
nodes = (
(629,-7,o),
(693,23,o),
(722,109,cs),
(724,118,o),
(721,123,o),
(711,123,cs),
(702,123,o),
(696,121,o),
(693,116,cs),
(667,54,o),
(627,31,o),
(559,31,cs),
(475,31,o),
(414,82,o),
(414,184,cs),
(414,196,o),
(423,200,o),
(440,200,cs),
(691,200,ls),
(714,200,o),
(724,209,o),
(724,224,cs),
(724,329,o),
(653,373,o),
(550,373,cs),
(420,373,o),
(332,293,o),
(332,180,cs),
(332,68,o),
(415,-7,o),
(542,-7,cs)
);
},
{
closed = 1;
nodes = (
(423,218,o),
(415,223,o),
(416,230,cs),
(430,309,o),
(480,354,o),
(549,354,cs),
(605,354,o),
(634,317,o),
(634,254,cs),
(634,229,o),
(614,218,o),
(570,218,cs),
(436,218,ls)
);
}
);
};
layerId = m01;
shapes = (
{
closed = 1;
nodes = (
(222,-7,o),
(268,11,o),
(306,40,cs),
(414,127,l),
(414,290,ls),
(414,346,o),
(368,373,o),
(283,373,cs),
(170,373,o),
(41,313,o),
(41,257,cs),
(41,243,o),
(55,236,o),
(78,236,cs),
(107,236,o),
(141,249,o),
(151,280,cs),
(167,331,o),
(205,351,o),
(250,351,cs),
(294,351,o),
(324,333,o),
(324,286,cs),
(324,221,ls),
(324,215,o),
(319,211,o),
(307,209,cs),
(147,180,o),
(32,125,o),
(32,64,cs),
(32,21,o),
(85,-7,o),
(158,-7,cs)
);
},
{
closed = 1;
nodes = (
(151,26,o),
(126,44,o),
(126,76,cs),
(126,128,o),
(189,166,o),
(297,187,cs),
(314,190,o),
(324,187,o),
(324,179,cs),
(324,127,ls),
(324,70,o),
(262,26,o),
(194,26,cs)
);
},
{
closed = 1;
nodes = (
(629,-7,o),
(693,23,o),
(722,109,cs),
(724,118,o),
(721,123,o),
(711,123,cs),
(702,123,o),
(696,121,o),
(693,116,cs),
(667,54,o),
(627,31,o),
(559,31,cs),
(475,31,o),
(414,82,o),
(414,184,cs),
(414,196,o),
(423,200,o),
(440,200,cs),
(691,200,ls),
(714,200,o),
(724,209,o),
(724,224,cs),
(724,329,o),
(653,373,o),
(550,373,cs),
(420,373,o),
(332,293,o),
(332,180,cs),
(332,68,o),
(415,-7,o),
(542,-7,cs)
);
},
{
closed = 1;
nodes = (
(423,218,o),
(415,223,o),
(416,230,cs),
(430,309,o),
(480,354,o),
(549,354,cs),
(605,354,o),
(634,317,o),
(634,254,cs),
(634,229,o),
(614,218,o),
(570,218,cs),
(436,218,ls)
);
}
);
width = 758;
}
);
metricRight = e;
unicode = 230;
},
{
glyphname = b;
kernRight = o;
lastChange = "2022-09-01 20:59:06 +0000";
layers = (
{
background = {
shapes = (
{
closed = 1;
nodes = (
(85,-7,cs),
(92,-7,o),
(99,-4,o),
(108,3,cs),
(172,44,l),
(172,523,ls),
(172,531,o),
(167,535,o),
(158,535,cs),
(150,535,o),
(140,532,o),
(125,527,cs),
(103,519,o),
(70,512,o),
(21,506,cs),
(12,505,o),
(7,502,o),
(7,497,cs),
(7,493,o),
(12,489,o),
(21,489,cs),
(49,486,ls),
(74,484,o),
(82,479,o),
(82,462,cs),
(82,116,ls),
(82,58,o),
(78,26,o),
(71,3,cs),
(69,-3,o),
(77,-7,o)
);
},
{
closed = 1;
nodes = (
(421,-7,o),
(532,77,o),
(532,198,cs),
(532,303,o),
(446,373,o),
(324,373,cs),
(276,373,o),
(238,362,o),
(206,344,cs),
(178,330,l),
(167,330,l),
(172,264,l),
(172,312,o),
(222,340,o),
(283,340,cs),
(379,340,o),
(435,286,o),
(435,188,cs),
(435,80,o),
(369,12,o),
(270,12,cs),
(212,12,o),
(172,38,o),
(172,82,c),
(122,20,l),
(141,20,l),
(182,2,o),
(222,-7,o),
(266,-7,cs)
);
}
);
};
layerId = m01;
shapes = (
{
closed = 1;
nodes = (
(421,-7,o),
(532,77,o),
(532,198,cs),
(532,303,o),
(446,373,o),
(324,373,cs),
(276,373,o),
(238,363,o),
(200,341,cs),
(185,333,o),
(172,337,o),
(172,344,cs),
(172,523,ls),
(172,531,o),
(167,535,o),
(158,535,cs),
(150,535,o),
(140,532,o),
(125,527,cs),
(103,519,o),
(70,512,o),
(21,506,cs),
(12,505,o),
(7,502,o),
(7,497,cs),
(7,493,o),
(12,489,o),
(21,489,cs),
(49,486,ls),
(74,484,o),
(82,479,o),
(82,462,cs),
(82,116,ls),
(82,58,o),
(78,26,o),
(71,3,cs),
(69,-3,o),
(72,-7,o),
(82,-7,cs),
(90,-7,o),
(98,-4,o),
(115,7,cs),
(131,18,o),
(147,20,o),
(168,12,cs),
(202,-1,o),
(236,-7,o),
(273,-7,cs)
);
},
{
closed = 1;
nodes = (
(212,12,o),
(172,38,o),
(172,82,cs),
(172,264,ls),
(172,312,o),
(222,340,o),
(283,340,cs),
(379,340,o),
(435,286,o),
(435,188,cs),
(435,80,o),
(369,12,o),
(270,12,cs)
);
}
);
width = 585;
}
);
unicode = 98;
},
{
glyphname = c;
kernLeft = o;
kernRight = c;
lastChange = "2022-09-01 20:18:01 +0000";
layers = (
{
anchors = (
{
name = bottom;
pos = (182,0);
},
{
name = top;
pos = (208,510);
}
);
background = {
shapes = (
{
closed = 1;
nodes = (
(325,-7,o),
(388,19,o),
(417,121,cs),
(421,129,o),
(416,135,o),
(406,135,cs),
(397,135,o),
(393,133,o),
(390,128,cs),
(360,54,o),
(321,31,o),
(259,31,cs),
(182,31,o),
(129,82,o),
(129,185,cs),
(129,292,o),
(186,354,o),
(256,354,cs),
(302,354,o),
(328,335,o),
(352,283,cs),
(365,254,ls),
(368,248,o),
(373,245,o),
(382,245,cs),
(391,245,o),
(397,248,o),
(397,256,cs),
(393,347,ls),
(393,353,o),
(390,355,o),
(382,359,cs),
(355,368,o),
(321,373,o),
(285,373,cs),
(141,373,o),
(30,293,o),
(30,171,cs),
(30,60,o),
(122,-7,o),
(238,-7,cs)
);
}
);
};
layerId = m01;
shapes = (
{
closed = 1;
nodes = (
(325,-7,o),
(388,19,o),
(417,121,cs),
(421,129,o),
(416,135,o),
(406,135,cs),
(397,135,o),
(393,133,o),
(390,128,cs),
(360,54,o),
(321,31,o),
(259,31,cs),
(182,31,o),
(129,82,o),
(129,185,cs),
(129,307,o),
(197,354,o),
(250,354,cs),
(294,354,o),
(325,334,o),
(362,254,cs),
(365,248,o),
(371,245,o),
(381,245,cs),
(389,245,o),
(397,248,o),
(397,256,cs),
(394,344,ls),
(394,352,o),
(390,356,o),
(381,360,cs),
(355,369,o),
(328,373,o),
(285,373,cs),
(141,373,o),
(30,293,o),
(30,171,cs),
(30,60,o),
(122,-7,o),
(238,-7,cs)
);
}
);
width = 448;
}
);
unicode = 99;
},
{
glyphname = d;
kernLeft = o;
kernRight = d;
lastChange = "2022-09-01 20:59:12 +0000";
layers = (
{
anchors = (
{
name = bottom;
pos = (229,0);
},
{
name = center;
pos = (229,255);
},
{
name = top;
pos = (229,740);
},
{
name = topright;
pos = (402,740);
}
);
background = {
shapes = (
{
closed = 1;
nodes = (
(294,-7,o),
(329,4,o),
(370,34,cs),
(394,51,l),
(406,51,l),
(400,122,l),
(400,69,o),
(336,26,o),
(268,26,cs),
(186,26,o),
(138,80,o),
(138,178,cs),
(138,286,o),
(204,354,o),
(302,354,cs),
(361,354,o),
(400,328,o),
(400,285,c),
(451,347,l),
(431,347,l),
(391,365,o),
(351,373,o),
(307,373,cs),
(152,373,o),
(39,289,o),
(39,168,cs),
(39,64,o),
(122,-7,o),
(239,-7,cs)
);
},
{
closed = 1;
nodes = (
(545,-7,o),
(598,23,o),
(598,94,cs),
(598,102,o),
(591,105,o),
(582,105,cs),
(573,105,o),
(565,102,o),
(565,94,cs),
(565,54,o),
(540,38,o),
(519,38,cs),
(501,38,o),
(491,48,o),
(491,69,cs),
(491,523,ls),
(491,531,o),
(485,535,o),
(476,535,cs),
(468,535,o),
(459,532,o),
(444,527,cs),
(422,519,o),
(389,512,o),
(334,506,cs),
(324,505,o),
(319,502,o),
(319,497,cs),
(319,493,o),
(324,489,o),
(334,489,cs),
(368,486,ls),
(393,484,o),
(400,479,o),
(400,462,cs),
(400,53,ls),
(400,15,o),
(440,-7,o),
(489,-7,cs)
);
}
);
};
layerId = m01;
shapes = (
{
closed = 1;
nodes = (
(298,-7,o),
(332,4,o),
(381,42,cs),
(390,49,o),
(402,48,o),
(405,41,cs),
(413,15,o),
(438,-7,o),
(489,-7,cs),
(545,-7,o),
(598,23,o),
(598,94,cs),
(598,102,o),
(591,105,o),
(582,105,cs),
(573,105,o),
(565,102,o),
(565,94,cs),
(565,54,o),
(540,38,o),
(519,38,cs),
(501,38,o),
(491,48,o),
(491,69,cs),
(491,523,ls),
(491,531,o),
(485,535,o),
(476,535,cs),
(468,535,o),
(459,532,o),
(444,527,cs),
(422,519,o),
(389,512,o),
(334,506,cs),
(324,505,o),
(319,502,o),
(319,497,cs),
(319,493,o),
(324,489,o),
(334,489,cs),
(368,486,ls),
(393,484,o),
(400,479,o),
(400,462,cs),
(400,370,ls),
(400,363,o),
(393,361,o),
(379,365,cs),
(355,371,o),
(332,373,o),
(307,373,cs),
(152,373,o),
(39,289,o),
(39,168,cs),
(39,64,o),
(122,-7,o),
(239,-7,cs)
);
},
{
closed = 1;
nodes = (
(186,26,o),
(138,80,o),
(138,178,cs),
(138,286,o),
(204,354,o),
(302,354,cs),
(361,354,o),
(400,328,o),
(400,285,cs),
(400,122,ls),
(400,69,o),
(336,26,o),
(268,26,cs)
);
}
);
width = 605;
}
);
unicode = 100;
},
{
glyphname = eth;
kernLeft = o;
kernRight = o;
lastChange = "2022-08-23 19:55:36 +0000";
layers = (
{
layerId = m01;
shapes = (
{
closed = 1;
nodes = (
(396,-7,o),
(486,72,o),
(486,189,cs),
(486,347,o),
(308,513,o),
(82,542,cs),
(64,544,o),
(56,539,o),
(56,533,cs),
(56,528,o),
(62,525,o),
(71,524,cs),
(227,496,o),
(320,419,o),
(365,320,cs),
(369,312,o),
(361,310,o),
(351,314,cs),
(323,325,o),
(290,330,o),
(254,330,cs),
(130,330,o),
(37,260,o),
(37,166,cs),
(37,71,o),
(138,-7,o),
(262,-7,cs)
);
},
{
closed = 1;
nodes = (
(175,13,o),
(132,60,o),
(132,162,cs),
(132,264,o),
(172,311,o),
(259,311,cs),
(352,311,o),
(399,258,o),
(399,157,cs),
(399,60,o),
(354,13,o),
(264,13,cs)
);
}
);
width = 535;
}
);
unicode = 240;
},
{
glyphname = dcroat;
kernLeft = o;
kernRight = d;
lastChange = "2022-08-23 19:55:32 +0000";
layers = (
{
layerId = m01;
shapes = (
{
ref = d;
},
{
closed = 1;
nodes = (
(565,417,ls),
(573,417,o),
(578,421,o),
(578,425,cs),
(578,431,ls),
(578,435,o),
(573,438,o),
(565,438,cs),
(201,438,ls),
(193,438,o),
(187,435,o),
(187,431,cs),
(187,425,ls),
(187,421,o),
(193,417,o),
(201,417,cs)
);
}
);
width = 605;
}
);
unicode = 273;
},
{
glyphname = e;
kernLeft = o;
kernRight = e;
lastChange = "2022-09-01 20:18:09 +0000";
layers = (
{
anchors = (
{
name = bottom;
pos = (178,0);
},
{
name = ogonek;
pos = (239,0);
},
{
name = top;
pos = (193,510);
}
);
background = {
shapes = (
{
closed = 1;
nodes = (
(342,-7,o),
(405,23,o),
(434,109,cs),
(436,118,o),
(432,123,o),
(422,123,cs),
(413,123,o),
(407,121,o),
(405,116,cs),
(378,54,o),
(338,31,o),
(271,31,cs),
(186,31,o),
(125,82,o),
(125,190,cs),
(125,294,o),
(182,354,o),
(261,354,cs),
(316,354,o),
(345,317,o),
(345,254,cs),
(345,229,o),
(325,218,o),
(282,218,cs),
(90,218,l),
(90,200,l),
(404,200,l),
(425,200,o),
(436,209,o),
(436,224,cs),
(436,329,o),
(365,373,o),
(262,373,cs),
(131,373,o),
(30,293,o),
(30,180,cs),
(30,68,o),
(126,-7,o),
(254,-7,cs)
);
}
);
};
layerId = m01;
shapes = (
{
closed = 1;
nodes = (
(342,-7,o),
(405,23,o),
(434,109,cs),
(436,118,o),
(432,123,o),
(422,123,cs),
(413,123,o),
(407,121,o),
(405,116,cs),
(378,54,o),
(338,31,o),
(271,31,cs),
(186,31,o),
(125,82,o),
(125,184,cs),
(125,196,o),
(135,200,o),
(152,200,cs),
(404,200,ls),
(425,200,o),
(436,209,o),
(436,224,cs),
(436,329,o),
(365,373,o),
(262,373,cs),
(131,373,o),
(30,293,o),
(30,180,cs),
(30,68,o),
(126,-7,o),
(254,-7,cs)
);
},
{
closed = 1;
nodes = (
(135,218,o),
(126,223,o),
(129,230,cs),
(141,309,o),
(192,354,o),
(261,354,cs),
(316,354,o),
(345,317,o),
(345,254,cs),
(345,229,o),
(325,218,o),
(282,218,cs),
(148,218,ls)
);
}
);
width = 469;
}
);
unicode = 101;
},
{
glyphname = f;
kernLeft = f;
lastChange = "2022-09-01 20:59:24 +0000";
layers = (
{
background = {
shapes = (
{
closed = 1;
nodes = (
(329,0,l),
(329,15,l),
(247,20,ls),
(212,22,o),
(202,27,o),
(202,48,cs),
(202,440,ls),
(202,500,o),
(223,518,o),
(259,518,cs),
(325,518,o),
(294,456,o),
(367,456,cs),
(394,456,o),
(413,466,o),
(413,484,cs),
(413,515,o),
(359,541,o),
(289,541,cs),
(175,541,o),
(113,473,o),
(113,398,cs),
(113,48,ls),
(113,27,o),
(102,20,o),
(68,18,cs),
(20,15,l),
(20,0,l)
);
},
{
closed = 1;
nodes = (
(113,374,o),
(86,363,o),
(37,363,c),
(37,348,l),
(347,348,l),
(347,369,l),
(191,369,l),
(113,393,l)
);
}
);
};
guides = (
{
pos = (259,276);
}
);
layerId = m01;
shapes = (
{
closed = 1;
nodes = (
(113,28,o),
(105,20,o),
(68,18,cs),
(34,17,ls),
(23,16,o),
(17,12,o),
(17,8,cs),
(17,3,o),
(24,0,o),
(37,0,cs),
(312,0,ls),
(325,0,o),
(332,3,o),
(332,8,cs),
(332,13,o),
(327,16,o),
(317,17,cs),
(247,20,ls),
(210,22,o),
(202,28,o),
(202,48,cs),
(202,340,ls),
(202,344,o),
(209,348,o),
(218,348,cs),
(332,348,ls),
(343,348,o),
(352,352,o),
(352,359,cs),
(352,365,o),
(343,369,o),
(332,369,cs),
(218,369,ls),
(209,369,o),
(202,372,o),
(202,377,cs),
(202,440,ls),
(202,500,o),
(223,518,o),
(259,518,cs),
(325,518,o),
(294,456,o),
(367,456,cs),
(394,456,o),
(413,466,o),
(413,484,cs),
(413,515,o),
(359,541,o),
(289,541,cs),
(175,541,o),
(113,473,o),
(113,398,cs),
(113,393,ls),
(113,377,o),
(91,366,o),
(51,364,cs),
(39,363,o),
(34,360,o),
(34,355,cs),
(34,351,o),
(41,348,o),
(51,348,cs),
(80,348,ls),
(100,348,o),
(113,342,o),
(113,331,cs),
(113,48,ls)
);
}
);
width = 381;
}
);
unicode = 102;
},
{
glyphname = g;
kernLeft = g;
kernRight = g;
lastChange = "2022-09-01 20:59:30 +0000";
layers = (
{
anchors = (
{
name = bottom;
pos = (196,-205);
},
{
name = top;
pos = (196,510);
}
);
background = {
shapes = (
{
closed = 1;
nodes = (
(388,-156,o),
(509,-104,o),
(509,-33,cs),
(509,26,o),
(430,63,o),
(302,63,cs),
(189,63,ls),
(151,63,o),
(139,80,o),
(162,95,cs),
(185,109,ls),
(208,122,o),
(229,130,o),
(261,130,cs),
(371,130,o),
(457,182,o),
(457,252,cs),
(457,320,o),
(371,373,o),
(261,373,cs),
(150,373,o),
(62,320,o),
(62,254,cs),
(62,208,o),
(107,163,o),
(179,144,cs),
(191,142,o),
(191,137,o),
(182,133,cs),
(86,88,ls),
(44,68,o),
(56,42,o),
(121,28,cs),
(141,23,o),
(141,13,o),
(121,3,cs),
(30,-41,o),
(18,-55,o),
(18,-80,cs),
(18,-122,o),
(102,-156,o),
(236,-156,cs)
);
},
{
closed = 1;
nodes = (
(153,-139,o),
(98,-111,o),
(98,-69,cs),
(98,-48,o),
(106,-32,o),
(160,-1,cs),
(185,14,o),
(206,19,o),
(261,19,cs),
(291,19,ls),
(376,19,o),
(424,-6,o),
(424,-49,cs),
(424,-102,o),
(346,-139,o),
(251,-139,cs)
);
},
{
closed = 1;
nodes = (
(195,148,o),
(156,189,o),
(156,253,cs),
(156,315,o),
(197,357,o),
(259,357,cs),
(321,357,o),
(362,315,o),
(362,253,cs),
(362,189,o),
(323,148,o),
(259,148,cs)
);
},
{
closed = 1;
nodes = (
(370,349,l),
(370,373,o),
(388,386,o),
(414,386,cs),
(443,386,o),
(440,371,o),
(475,371,cs),
(501,371,o),
(521,382,o),
(521,398,cs),
(521,417,o),
(492,432,o),
(452,432,cs),
(400,432,o),
(338,398,o),
(338,349,c)
);
}
);
};
guides = (
{
pos = (124,26);
},
{
angle = 221.1345;
pos = (146,16);
},
{
angle = -42.8789;
pos = (137,144);
showMeasurement = 1;
},
{
angle = 90;
pos = (208,82);
showMeasurement = 1;
}
);
layerId = m01;
shapes = (
{
closed = 1;
nodes = (
(388,-156,o),
(509,-104,o),
(509,-33,cs),
(509,26,o),
(430,63,o),
(302,63,cs),
(189,63,ls),
(151,63,o),
(139,80,o),
(162,95,cs),
(185,109,ls),
(208,122,o),
(229,130,o),
(261,130,cs),
(371,130,o),
(457,182,o),
(457,252,cs),
(457,290,o),
(431,322,o),
(389,344,cs),
(377,351,o),
(369,358,o),
(374,367,cs),
(379,379,o),
(394,386,o),
(414,386,cs),
(443,386,o),
(440,371,o),
(475,371,cs),
(501,371,o),
(521,382,o),
(521,398,cs),
(521,417,o),
(492,432,o),
(452,432,cs),
(409,432,o),
(360,410,o),
(344,373,cs),
(342,367,o),
(334,365,o),
(321,367,cs),
(302,371,o),
(282,373,o),
(261,373,cs),
(150,373,o),
(62,320,o),
(62,254,cs),
(62,208,o),
(107,163,o),
(179,144,cs),
(191,142,o),
(191,137,o),
(182,133,cs),
(86,88,ls),
(44,68,o),
(56,42,o),
(121,28,cs),
(141,23,o),
(141,13,o),
(121,3,cs),
(30,-41,o),
(18,-55,o),
(18,-80,cs),
(18,-122,o),
(102,-156,o),
(236,-156,cs)
);
},
{
closed = 1;
nodes = (
(153,-139,o),
(98,-111,o),
(98,-69,cs),
(98,-48,o),
(106,-32,o),
(160,-1,cs),
(185,14,o),
(206,19,o),
(261,19,cs),
(291,19,ls),
(376,19,o),
(424,-6,o),
(424,-49,cs),
(424,-102,o),
(346,-139,o),
(251,-139,cs)
);
},
{
closed = 1;
nodes = (
(195,148,o),
(156,189,o),
(156,253,cs),
(156,315,o),
(197,357,o),
(259,357,cs),
(321,357,o),
(362,315,o),
(362,253,cs),
(362,189,o),
(323,148,o),
(259,148,cs)
);
}
);
width = 531;
}
);
unicode = 103;
},
{
glyphname = h;
kernLeft = h;
kernRight = n;
lastChange = "2022-09-01 20:59:43 +0000";
layers = (
{
background = {
shapes = (
{
closed = 1;
nodes = (
(267,0,ls),
(276,0,o),
(283,3,o),
(283,8,cs),
(283,13,o),
(277,16,o),
(268,17,cs),
(232,19,ls),
(195,21,o),
(187,28,o),
(187,48,cs),
(187,523,ls),
(187,531,o),
(183,535,o),
(174,535,cs),
(166,535,o),
(156,532,o),
(141,527,cs),
(118,519,o),
(86,512,o),
(37,506,cs),
(28,505,o),
(23,502,o),
(23,497,cs),
(23,493,o),
(28,489,o),
(37,489,cs),
(64,486,ls),
(90,484,o),
(98,479,o),
(98,462,cs),
(98,48,ls),
(98,28,o),
(90,21,o),
(53,18,cs),
(34,17,ls),
(25,16,o),
(20,12,o),
(20,8,cs),
(20,3,o),
(26,0,o),
(36,0,cs)
);
},
{
closed = 1;
nodes = (
(187,242,l),
(187,295,o),
(253,340,o),
(337,340,cs),
(396,340,o),
(429,322,o),
(429,275,cs),
(429,48,ls),
(429,28,o),
(421,21,o),
(384,18,cs),
(365,17,ls),
(355,16,o),
(351,12,o),
(351,8,cs),
(351,3,o),
(355,0,o),
(369,0,cs),
(591,0,ls),
(600,0,o),
(607,3,o),
(607,8,cs),
(607,13,o),
(601,16,o),
(592,17,cs),
(564,19,ls),
(527,22,o),
(519,28,o),
(519,48,cs),
(519,283,ls),
(519,342,o),
(467,373,o),
(385,373,cs),
(328,373,o),
(281,361,o),
(228,335,cs),
(194,318,l),
(183,318,l)
);
}
);
};
guides = (
{
angle = 222.6141;
pos = (160,452);
}
);
layerId = m01;
shapes = (
{
closed = 1;
nodes = (
(267,0,ls),
(276,0,o),
(283,3,o),
(283,8,cs),
(283,13,o),
(277,16,o),
(268,17,cs),
(232,19,ls),
(195,21,o),
(187,28,o),
(187,48,cs),
(187,242,ls),
(187,295,o),
(253,340,o),
(337,340,cs),
(396,340,o),
(429,322,o),
(429,275,cs),
(429,48,ls),
(429,28,o),
(421,21,o),
(384,18,cs),
(365,17,ls),
(355,16,o),
(351,12,o),
(351,8,cs),
(351,3,o),
(355,0,o),
(369,0,cs),
(591,0,ls),
(600,0,o),
(607,3,o),
(607,8,cs),
(607,13,o),
(601,16,o),
(592,17,cs),
(564,19,ls),
(527,22,o),
(519,28,o),
(519,48,cs),
(519,283,ls),
(519,342,o),
(467,373,o),
(385,373,cs),
(328,373,o),
(282,362,o),
(215,329,cs),
(200,320,o),
(187,323,o),
(187,332,cs),
(187,523,ls),
(187,531,o),
(183,535,o),
(174,535,cs),
(166,535,o),
(156,532,o),
(141,527,cs),
(118,519,o),
(86,512,o),
(37,506,cs),
(28,505,o),
(23,502,o),
(23,497,cs),
(23,493,o),
(28,489,o),
(37,489,cs),
(64,486,ls),
(90,484,o),
(98,479,o),
(98,462,cs),
(98,48,ls),
(98,28,o),
(90,21,o),
(53,18,cs),
(34,17,ls),
(25,16,o),
(20,12,o),
(20,8,cs),
(20,3,o),
(26,0,o),
(36,0,cs)
);
}
);
width = 621;
}
);
unicode = 104;
},
{
glyphname = hbar;
kernLeft = h;
kernRight = n;
lastChange = "2022-08-23 19:55:55 +0000";
layers = (
{
layerId = m01;
shapes = (
{
ref = h;
},
{
closed = 1;
nodes = (
(388,417,ls),
(396,417,o),
(400,421,o),
(400,425,cs),
(400,431,ls),
(400,435,o),
(396,438,o),
(388,438,cs),
(24,438,ls),
(16,438,o),
(10,435,o),
(10,431,cs),
(10,425,ls),
(10,421,o),
(16,417,o),
(24,417,cs)
);
}
);
width = 621;
}
);
unicode = 295;
},
{
glyphname = i;
kernLeft = i;
kernRight = i;
lastChange = "2022-09-01 20:59:49 +0000";
layers = (
{
anchors = (
{
name = bottom;
pos = (112,0);
}
);
background = {
shapes = (
{
closed = 1;
nodes = (
(279,0,l),
(279,15,l),
(239,19,ls),
(202,22,o),
(194,28,o),
(194,48,cs),
(194,371,l),
(168,371,l),
(135,358,o),
(90,346,o),
(29,340,c),
(29,326,l),
(71,322,ls),
(98,320,o),
(105,315,o),
(105,298,cs),
(105,48,ls),
(105,27,o),
(95,21,o),
(60,18,cs),
(20,15,l),
(20,0,l)
);
},
{
closed = 1;
nodes = (
(187,437,o),
(215,453,o),
(215,475,cs),
(215,498,o),
(187,513,o),
(151,513,cs),
(114,513,o),
(85,498,o),
(85,475,cs),
(85,453,o),
(114,437,o),
(151,437,cs)
);
}
);
};
guides = (
{
angle = 270;
pos = (79,240);
},
{
angle = 90;
pos = (147,290);
}
);
layerId = m01;
shapes = (
{
closed = 1;
nodes = (
(261,0,ls),
(274,0,o),
(281,3,o),
(281,8,cs),
(281,13,o),
(275,16,o),
(266,17,cs),
(232,19,ls),
(202,21,o),
(194,28,o),
(194,48,c),
(194,362,ls),
(194,368,o),
(191,371,o),
(183,371,cs),
(176,371,o),
(170,369,o),
(162,364,cs),
(131,348,o),
(102,337,o),
(47,333,cs),
(33,332,o),
(26,330,o),
(26,325,cs),
(26,320,o),
(30,318,o),
(44,317,cs),
(71,315,ls),
(97,313,o),
(105,309,o),
(105,292,cs),
(105,48,ls),
(105,28,o),
(97,22,o),
(53,18,cs),
(37,17,ls),
(25,15,o),
(20,12,o),
(20,8,cs),
(20,3,o),
(26,0,o),
(39,0,cs)
);
},
{
closed = 1;
nodes = (
(187,437,o),
(215,453,o),
(215,475,cs),
(215,498,o),
(187,513,o),
(151,513,cs),
(114,513,o),
(85,498,o),
(85,475,cs),
(85,453,o),
(114,437,o),
(151,437,cs)
);
}
);
width = 294;
}
);
unicode = 105;
},
{
glyphname = idotless;
kernLeft = i;
kernRight = i;
lastChange = "2022-08-23 19:56:03 +0000";
layers = (
{
anchors = (
{
name = bottom;
pos = (112,0);
},
{
name = ogonek;
pos = (167,0);
},
{
name = top;
pos = (112,510);
}
);
layerId = m01;
shapes = (
{
closed = 1;
nodes = (
(261,0,ls),
(274,0,o),
(281,3,o),
(281,8,cs),
(281,13,o),
(275,16,o),
(266,17,cs),
(232,19,ls),
(202,21,o),
(194,28,o),
(194,48,c),
(194,362,ls),
(194,368,o),
(191,371,o),
(183,371,cs),
(176,371,o),
(170,369,o),
(162,364,cs),
(131,348,o),
(102,337,o),
(47,333,cs),
(33,332,o),
(26,330,o),
(26,325,cs),
(26,320,o),
(30,318,o),
(44,317,cs),
(71,315,ls),
(97,313,o),
(105,309,o),
(105,292,cs),
(105,48,ls),
(105,28,o),
(97,22,o),
(53,18,cs),
(37,17,ls),
(25,15,o),
(20,12,o),
(20,8,cs),
(20,3,o),
(26,0,o),
(39,0,cs)
);
}
);
width = 294;
}
);
unicode = 305;
},
{
glyphname = j;
kernLeft = j;
kernRight = j;
lastChange = "2022-09-01 20:59:53 +0000";
layers = (
{
layerId = m01;
shapes = (
{
closed = 1;
nodes = (
(121,-156,o),
(194,-84,o),
(194,31,cs),
(194,362,ls),
(194,368,o),
(191,371,o),
(183,371,cs),
(176,371,o),
(170,369,o),
(162,364,cs),
(131,348,o),
(102,337,o),
(47,333,cs),
(33,332,o),
(26,330,o),
(26,325,cs),
(26,320,o),
(30,318,o),
(44,317,cs),
(71,315,ls),
(97,313,o),
(105,309,o),
(105,292,cs),
(105,-65,ls),
(105,-104,o),
(86,-127,o),
(53,-127,cs),
(6,-127,o),
(24,-86,o),
(-24,-119,cs),
(-48,-119,o),
(-63,-138,o),
(-63,-161,cs),
(-63,-193,o),
(-35,-215,o),
(6,-156,cs)
);
},
{
closed = 1;
nodes = (
(187,437,o),
(215,453,o),
(215,475,cs),
(215,497,o),
(189,513,o),
(151,513,cs),
(113,513,o),
(85,497,o),
(85,475,cs),
(85,454,o),
(113,437,o),
(151,437,cs)
);
}
);
width = 284;
}
);
unicode = 106;
},
{
glyphname = jdotless;
kernLeft = j;
kernRight = j;
lastChange = "2022-08-23 19:56:16 +0000";
layers = (
{
layerId = m01;
shapes = (
{
closed = 1;
nodes = (
(121,-156,o),
(194,-84,o),
(194,31,cs),
(194,362,ls),
(194,368,o),
(191,371,o),
(183,371,cs),
(176,371,o),
(170,369,o),
(162,364,cs),
(131,348,o),
(102,337,o),
(47,333,cs),
(33,332,o),
(26,330,o),
(26,325,cs),
(26,320,o),
(30,318,o),
(44,317,cs),
(71,315,ls),
(97,313,o),
(105,309,o),
(105,292,cs),
(105,-65,ls),
(105,-104,o),
(86,-127,o),
(53,-127,cs),
(6,-127,o),
(24,-86,o),
(-24,-119,cs),
(-48,-119,o),
(-63,-138,o),
(-63,-161,cs),
(-63,-193,o),
(-35,-215,o),
(6,-156,cs)
);
}
);
width = 284;
}
);
unicode = 567;
},
{
glyphname = k;
kernLeft = h;
kernRight = k;
lastChange = "2022-09-01 20:19:58 +0000";
layers = (
{
anchors = (
{
name = bottom;
pos = (226,0);
},
{
name = top;
pos = (226,740);
}
);
background = {
shapes = (
{
closed = 1;
nodes = (
(267,0,ls),
(276,0,o),
(283,3,o),
(283,8,cs),
(283,13,o),
(277,16,o),
(268,17,cs),
(232,19,ls),
(195,21,o),
(187,28,o),
(187,48,cs),
(187,523,ls),
(187,531,o),
(183,535,o),
(174,535,cs),
(166,535,o),
(156,532,o),
(141,527,cs),
(118,519,o),
(86,512,o),
(37,506,cs),
(28,505,o),
(23,502,o),
(23,497,cs),
(23,493,o),
(28,489,o),
(37,489,cs),
(64,486,ls),
(90,484,o),
(98,479,o),
(98,462,cs),
(98,48,ls),
(98,28,o),
(90,21,o),
(53,18,cs),
(34,17,ls),
(25,16,o),
(20,12,o),
(20,8,cs),
(20,3,o),
(26,0,o),
(36,0,cs)
);
},
{
closed = 1;
nodes = (
(422,303,ls),
(477,335,o),
(514,349,o),
(555,351,cs),
(567,352,ls),
(581,353,o),
(584,356,o),
(584,360,cs),
(584,366,o),
(578,369,o),
(566,369,cs),
(338,369,ls),
(327,369,o),
(320,366,o),
(320,361,cs),
(320,356,o),
(325,354,o),
(337,352,cs),
(368,349,ls),
(404,345,o),
(413,329,o),
(376,307,cs),
(192,200,l),
(178,200,l),
(178,166,l)
);
},
{
closed = 1;
nodes = (
(240,211,l),
(240,202,l),
(250,202,l),
(390,54,ls),
(408,33,o),
(402,20,o),
(369,18,cs),
(346,17,ls),
(336,16,o),
(329,12,o),
(329,8,cs),
(329,3,o),
(336,0,o),
(347,0,cs),
(578,0,ls),
(590,0,o),
(597,3,o),
(597,8,cs),
(597,13,o),
(591,15,o),
(581,17,cs),
(567,18,ls),
(532,22,o),
(512,29,o),
(493,48,cs),
(302,248,l)
);
}
);
};
layerId = m01;
shapes = (
{
closed = 1;
nodes = (
(267,0,ls),
(276,0,o),
(283,3,o),
(283,8,cs),
(283,13,o),
(277,16,o),
(268,17,cs),
(232,19,ls),
(195,21,o),
(187,28,o),
(187,48,cs),
(187,155,ls),
(187,166,o),
(192,173,o),
(208,182,cs),
(222,190,ls),
(237,198,o),
(255,196,o),
(264,187,cs),
(390,54,ls),
(408,33,o),
(402,20,o),
(369,18,cs),
(346,17,ls),
(336,16,o),
(329,12,o),
(329,8,cs),
(329,3,o),
(336,0,o),
(347,0,cs),
(578,0,ls),
(590,0,o),
(597,3,o),
(597,8,cs),
(597,13,o),
(591,15,o),
(581,17,cs),
(567,18,ls),
(532,22,o),
(512,29,o),
(493,48,cs),
(327,224,ls),
(317,234,o),
(320,244,o),
(340,256,cs),
(422,303,ls),
(477,335,o),
(514,349,o),
(555,351,cs),
(567,352,ls),
(581,353,o),
(584,356,o),
(584,360,cs),
(584,366,o),
(578,369,o),
(566,369,cs),
(338,369,ls),
(327,369,o),
(320,366,o),
(320,361,cs),
(320,356,o),
(325,354,o),
(337,352,cs),
(368,349,ls),
(404,345,o),
(413,329,o),
(376,307,cs),
(221,216,ls),
(206,207,o),
(187,210,o),
(187,220,cs),
(187,523,ls),
(187,531,o),
(183,535,o),
(174,535,cs),
(166,535,o),
(156,532,o),
(141,527,cs),
(118,519,o),
(86,512,o),
(37,506,cs),
(28,505,o),
(23,502,o),
(23,497,cs),
(23,493,o),
(28,489,o),
(37,489,cs),
(64,486,ls),
(90,484,o),
(98,479,o),
(98,462,cs),
(98,48,ls),
(98,28,o),
(90,21,o),
(53,18,cs),
(34,17,ls),
(25,16,o),
(20,12,o),
(20,8,cs),
(20,3,o),
(26,0,o),
(36,0,cs)
);
}
);
width = 597;
}
);
unicode = 107;
},
{
glyphname = l;
kernLeft = h;
kernRight = l;
lastChange = "2022-09-01 20:39:59 +0000";
layers = (
{
anchors = (
{
name = bottom;
pos = (110,0);
},
{
name = center;
pos = (110,370);
},
{
name = top;
pos = (85,710);
},
{
name = topright;
pos = (173,740);
}
);
background = {
shapes = (
{
closed = 1;
nodes = (
(273,0,l),
(273,15,l),
(232,19,ls),
(195,22,o),
(187,28,o),
(187,48,cs),
(187,535,l),
(161,535,l),
(129,522,o),
(85,511,o),
(23,504,c),
(23,490,l),
(64,486,ls),
(90,484,o),
(98,479,o),
(98,462,cs),
(98,48,ls),
(98,28,o),
(90,21,o),
(53,18,cs),
(14,15,l),
(14,0,l)
);
}
);
};
layerId = m01;
shapes = (
{
closed = 1;
nodes = (
(262,0,ls),
(271,0,o),
(277,3,o),
(277,8,cs),
(277,13,o),
(273,16,o),
(263,17,cs),
(232,19,ls),
(195,22,o),
(187,28,o),
(187,48,cs),
(187,523,ls),
(187,531,o),
(183,535,o),
(174,535,cs),
(166,535,o),
(156,532,o),
(141,527,cs),
(118,519,o),
(83,512,o),
(34,506,cs),
(25,505,o),
(20,502,o),
(20,497,cs),
(20,493,o),
(25,489,o),
(34,489,cs),
(64,486,ls),
(90,484,o),
(98,479,o),
(98,462,cs),
(98,48,ls),
(98,28,o),
(80,21,o),
(44,18,cs),
(25,17,ls),
(16,16,o),
(10,12,o),
(10,8,cs),
(10,3,o),
(17,0,o),
(26,0,cs)
);
}
);
width = 291;
}
);
unicode = 108;
},
{
glyphname = lslash;
kernLeft = h;
kernRight = l;
lastChange = "2022-08-23 20:01:07 +0000";
layers = (
{
layerId = m01;
shapes = (
{
pos = (26,0);
ref = l;
},
{
closed = 1;
nodes = (
(182,277,l),
(20,222,ls),
(14,219,o),
(12,215,o),
(16,212,cs),
(23,207,ls),
(26,203,o),
(33,202,o),
(39,205,cs),
(182,253,l)
);
},
{
closed = 1;
nodes = (
(182,255,l),
(350,312,ls),
(355,314,o),
(356,319,o),
(353,322,cs),
(346,327,ls),
(343,331,o),
(336,332,o),
(329,330,cs),
(182,279,l)
);
}
);
width = 369;
}
);
unicode = 322;
},
{
glyphname = m;
kernLeft = n;
kernRight = n;
lastChange = "2022-09-01 19:49:06 +0000";
layers = (
{
background = {
shapes = (
{
closed = 1;
nodes = (
(187,242,l),
(187,295,o),
(253,340,o),
(332,340,cs),
(385,340,o),
(417,322,o),
(417,275,cs),
(417,48,ls),
(417,28,o),
(409,21,o),
(373,18,cs),
(354,17,ls),
(345,16,o),
(340,12,o),
(340,8,cs),
(340,3,o),
(345,0,o),
(359,0,cs),
(583,0,ls),
(592,0,o),
(599,3,o),
(599,8,cs),
(599,13,o),
(593,16,o),
(584,17,cs),
(555,19,ls),
(515,22,o),
(508,28,o),
(508,48,cs),
(508,283,ls),
(508,342,o),
(457,373,o),
(382,373,cs),
(328,373,o),
(281,361,o),
(221,332,cs),
(187,315,l),
(176,315,l)
);
},
{
closed = 1;
nodes = (
(263,0,ls),
(276,0,o),
(283,3,o),
(283,8,cs),
(283,13,o),
(277,16,o),
(268,17,cs),
(232,19,ls),
(195,21,o),
(187,28,o),
(187,48,cs),
(187,307,l),
(182,307,l),
(182,362,ls),
(182,368,o),
(177,371,o),
(169,371,cs),
(162,371,o),
(158,369,o),
(150,364,cs),
(117,348,o),
(95,337,o),
(41,333,cs),
(26,332,o),
(20,330,o),
(20,325,cs),
(20,320,o),
(24,318,o),
(37,317,cs),
(64,315,ls),
(90,313,o),
(98,309,o),
(98,292,cs),
(98,48,ls),
(98,28,o),
(90,22,o),
(53,18,cs),
(37,17,ls),
(25,15,o),
(20,12,o),
(20,8,cs),
(20,3,o),
(26,0,o),
(39,0,cs)
);
},
{
closed = 1;
nodes = (
(508,242,l),
(508,295,o),
(573,340,o),
(652,340,cs),
(705,340,o),
(738,322,o),
(738,275,cs),
(738,48,ls),
(738,28,o),
(730,21,o),
(689,18,cs),
(670,17,ls),
(661,16,o),
(656,12,o),
(656,8,cs),
(656,3,o),
(661,0,o),
(674,0,cs),
(900,0,ls),
(910,0,o),
(917,3,o),
(917,8,cs),
(917,13,o),
(911,16,o),
(902,17,cs),
(873,19,ls),
(836,22,o),
(828,28,o),
(828,48,cs),
(828,283,ls),
(828,342,o),
(776,373,o),
(703,373,cs),
(649,373,o),
(600,361,o),
(540,332,cs),
(508,315,l),
(496,315,l)
);
}
);
};
layerId = m01;
shapes = (
{
closed = 1;
nodes = (
(263,0,ls),
(276,0,o),
(283,3,o),
(283,8,cs),
(283,13,o),
(277,16,o),
(268,17,cs),
(232,19,ls),
(195,21,o),
(187,28,o),
(187,48,cs),
(187,242,ls),
(187,295,o),
(253,340,o),
(332,340,cs),
(385,340,o),
(417,322,o),
(417,275,cs),
(417,48,ls),
(417,28,o),
(409,21,o),
(373,18,cs),
(354,17,ls),
(345,16,o),
(340,12,o),
(340,8,cs),
(340,3,o),
(345,0,o),
(359,0,cs),
(583,0,ls),
(592,0,o),
(599,3,o),
(599,8,cs),
(599,13,o),
(593,16,o),
(584,17,cs),
(555,19,ls),
(515,22,o),
(508,28,o),
(508,48,cs),
(508,242,ls),
(508,295,o),
(573,340,o),
(652,340,cs),
(705,340,o),
(738,322,o),
(738,275,cs),
(738,48,ls),
(738,28,o),
(730,21,o),
(689,18,cs),
(670,17,ls),
(661,16,o),
(656,12,o),
(656,8,cs),
(656,3,o),
(661,0,o),
(674,0,cs),
(900,0,ls),
(910,0,o),
(917,3,o),
(917,8,cs),
(917,13,o),
(911,16,o),
(902,17,cs),
(873,19,ls),
(836,22,o),
(828,28,o),
(828,48,cs),
(828,283,ls),
(828,342,o),
(776,373,o),
(703,373,cs),
(649,373,o),
(599,362,o),
(528,325,cs),
(514,318,o),
(500,320,o),
(494,328,cs),
(475,358,o),
(434,373,o),
(382,373,cs),
(328,373,o),
(279,362,o),
(206,325,cs),
(193,317,o),
(182,322,o),
(182,330,cs),
(182,362,ls),
(182,368,o),
(177,371,o),
(169,371,cs),
(162,371,o),
(158,369,o),
(150,364,cs),
(117,348,o),
(95,337,o),
(41,333,cs),
(26,332,o),
(20,330,o),
(20,325,cs),
(20,320,o),
(24,318,o),
(37,317,cs),
(64,315,ls),
(90,313,o),
(98,309,o),
(98,292,cs),
(98,48,ls),
(98,28,o),
(90,22,o),
(53,18,cs),
(37,17,ls),
(25,15,o),
(20,12,o),
(20,8,cs),
(20,3,o),
(26,0,o),
(39,0,cs)
);
}
);
width = 931;
}
);
metricRight = n;
unicode = 109;
},
{
glyphname = n;
kernLeft = n;
kernRight = n;
lastChange = "2022-08-31 18:09:38 +0000";
layers = (
{
anchors = (
{
name = bottom;
pos = (235,0);
},
{
name = top;
pos = (235,510);
}
);
background = {
shapes = (
{
closed = 1;
nodes = (
(187,242,l),
(187,295,o),
(253,340,o),
(337,340,cs),
(396,340,o),
(429,322,o),
(429,275,cs),
(429,48,ls),
(429,28,o),
(421,21,o),
(384,18,cs),
(365,17,ls),
(355,16,o),
(351,12,o),
(351,8,cs),
(351,3,o),
(355,0,o),
(369,0,cs),
(591,0,ls),
(600,0,o),
(607,3,o),
(607,8,cs),
(607,13,o),
(601,16,o),
(592,17,cs),
(564,19,ls),
(527,22,o),
(519,28,o),
(519,48,cs),
(519,283,ls),
(519,342,o),
(467,373,o),
(388,373,cs),
(328,373,o),
(281,361,o),
(221,332,cs),
(187,315,l),
(176,315,l)
);
},
{
closed = 1;
nodes = (
(263,0,ls),
(276,0,o),
(283,3,o),
(283,8,cs),
(283,13,o),
(277,16,o),
(268,17,cs),
(232,19,ls),
(195,21,o),
(187,28,o),
(187,48,cs),
(187,307,l),
(182,307,l),
(182,362,ls),
(182,368,o),
(177,371,o),
(169,371,cs),
(162,371,o),
(158,369,o),
(150,364,cs),
(117,348,o),
(95,337,o),
(41,333,cs),
(26,332,o),
(20,330,o),
(20,325,cs),
(20,320,o),
(24,318,o),
(37,317,cs),
(64,315,ls),
(90,313,o),
(98,309,o),
(98,292,cs),
(98,48,ls),
(98,28,o),
(90,22,o),
(53,18,cs),
(37,17,ls),
(25,15,o),
(20,12,o),
(20,8,cs),
(20,3,o),
(26,0,o),
(39,0,cs)
);
}
);
};
layerId = m01;
shapes = (
{
closed = 1;
nodes = (
(263,0,ls),
(276,0,o),
(283,3,o),
(283,8,cs),
(283,13,o),
(277,16,o),
(268,17,cs),
(232,19,ls),
(195,21,o),
(187,28,o),
(187,48,cs),
(187,242,ls),
(187,295,o),
(253,340,o),
(337,340,cs),
(396,340,o),
(429,322,o),
(429,275,cs),
(429,48,ls),
(429,28,o),
(421,21,o),
(384,18,cs),
(365,17,ls),
(355,16,o),
(351,12,o),
(351,8,cs),
(351,3,o),
(355,0,o),
(369,0,cs),
(591,0,ls),
(600,0,o),
(607,3,o),
(607,8,cs),
(607,13,o),
(601,16,o),
(592,17,cs),
(564,19,ls),
(527,22,o),
(519,28,o),
(519,48,cs),
(519,283,ls),
(519,342,o),
(467,373,o),
(388,373,cs),
(328,373,o),
(279,362,o),
(209,325,cs),
(194,317,o),
(182,320,o),
(182,330,cs),
(182,362,ls),
(182,368,o),
(177,371,o),
(169,371,cs),
(162,371,o),
(158,369,o),
(150,364,cs),
(117,348,o),
(95,337,o),
(41,333,cs),
(26,332,o),
(20,330,o),
(20,325,cs),
(20,320,o),
(24,318,o),
(37,317,cs),
(64,315,ls),
(90,313,o),
(98,309,o),
(98,292,cs),
(98,48,ls),
(98,28,o),
(90,22,o),
(53,18,cs),
(37,17,ls),
(25,15,o),
(20,12,o),
(20,8,cs),
(20,3,o),
(26,0,o),
(39,0,cs)
);
}
);
width = 621;
}
);
unicode = 110;
},
{
glyphname = eng;
kernLeft = n;
kernRight = j;
lastChange = "2022-08-23 20:01:41 +0000";
layers = (
{
layerId = m01;
shapes = (
{
closed = 1;
nodes = (
(444,-156,o),
(519,-84,o),
(519,31,cs),
(519,283,ls),
(519,342,o),
(467,373,o),
(388,373,cs),
(328,373,o),
(279,362,o),
(209,325,cs),
(194,317,o),
(182,320,o),
(182,330,cs),
(182,362,ls),
(182,368,o),
(177,371,o),
(169,371,cs),
(162,371,o),
(158,369,o),
(150,364,cs),
(117,348,o),
(95,337,o),
(41,333,cs),
(26,332,o),
(20,330,o),
(20,325,cs),
(20,320,o),
(24,318,o),
(37,317,cs),
(64,315,ls),
(90,313,o),
(98,309,o),
(98,292,cs),
(98,48,ls),
(98,28,o),
(90,22,o),
(53,18,cs),
(37,17,ls),
(25,15,o),
(20,12,o),
(20,8,cs),
(20,3,o),
(26,0,o),
(39,0,cs),
(263,0,ls),
(276,0,o),
(283,3,o),
(283,8,cs),
(283,13,o),
(277,16,o),
(268,17,cs),
(232,19,ls),
(195,21,o),
(187,28,o),
(187,48,cs),
(187,242,ls),
(187,295,o),
(253,340,o),
(337,340,cs),
(396,340,o),
(429,322,o),
(429,275,cs),
(429,-65,ls),
(429,-104,o),
(409,-127,o),
(377,-127,cs),
(329,-127,o),
(347,-86,o),
(292,-86,cs),
(261,-86,o),
(240,-99,o),
(240,-116,cs),
(240,-139,o),
(277,-156,o),
(329,-156,cs)
);
}
);
width = 608;
}
);
unicode = 331;
},
{
glyphname = o;
kernLeft = o;
kernRight = o;
lastChange = "2022-08-31 20:21:46 +0000";
layers = (
{
anchors = (
{
name = bottom;
pos = (204,0);
},
{
name = center;
pos = (204,255);
},
{
name = ogonek;
pos = (367,10);
},
{
name = top;
pos = (204,510);
},
{
name = topright;
pos = (449,450);
}
);
background = {
shapes = (
{
closed = 1;
nodes = (
(414,-7,o),
(523,75,o),
(523,184,cs),
(523,292,o),
(413,373,o),
(267,373,cs),
(122,373,o),
(10,292,o),
(10,184,cs),
(10,75,o),
(121,-7,o),
(267,-7,cs)
);
},
{
closed = 1;
nodes = (
(167,12,o),
(108,76,o),
(108,184,cs),
(108,289,o),
(168,354,o),
(267,354,cs),
(367,354,o),
(425,289,o),
(425,184,cs),
(425,76,o),
(368,12,o),
(267,12,cs)
);
}
);
};
layerId = m01;
shapes = (
{
closed = 1;
nodes = (
(404,-7,o),
(506,76,o),
(506,184,cs),
(506,290,o),
(402,373,o),
(268,373,cs),
(135,373,o),
(30,290,o),
(30,184,cs),
(30,76,o),
(133,-7,o),
(268,-7,cs)
);
},
{
closed = 1;
nodes = (
(175,12,o),
(131,69,o),
(131,184,cs),
(131,297,o),
(176,354,o),
(268,354,cs),
(361,354,o),
(406,297,o),
(406,184,cs),
(406,69,o),
(362,12,o),
(268,12,cs)
);
}
);
width = 539;
}
);
unicode = 111;
},
{
glyphname = oslash;
kernLeft = o;
kernRight = o;
lastChange = "2022-08-23 20:01:47 +0000";
layers = (
{
layerId = m01;
shapes = (
{
ref = o;
},
{
closed = 1;
nodes = (
(105,-36,ls),
(112,-36,o),
(116,-35,o),
(118,-31,cs),
(452,396,ls),
(457,401,o),
(451,405,o),
(442,405,cs),
(432,405,ls),
(425,405,o),
(421,403,o),
(417,399,cs),
(85,-27,ls),
(80,-32,o),
(86,-36,o),
(95,-36,cs)
);
}
);
width = 539;
}
);
unicode = 248;
},
{
glyphname = oe;
kernLeft = o;
kernRight = e;
lastChange = "2022-08-23 20:01:51 +0000";
layers = (
{
layerId = m01;
shapes = (
{
closed = 1;
nodes = (
(404,-7,o),
(493,76,o),
(493,184,cs),
(493,290,o),
(402,373,o),
(268,373,cs),
(135,373,o),
(30,290,o),
(30,184,cs),
(30,76,o),
(133,-7,o),
(268,-7,cs)
);
},
{
closed = 1;
nodes = (
(175,12,o),
(131,69,o),
(131,184,cs),
(131,297,o),
(176,354,o),
(268,354,cs),
(361,354,o),
(406,297,o),
(406,184,cs),
(406,69,o),
(362,12,o),
(268,12,cs)
);
},
{
closed = 1;
nodes = (
(716,-7,o),
(780,23,o),
(810,109,cs),
(812,118,o),
(808,123,o),
(797,123,cs),
(788,123,o),
(783,121,o),
(780,116,cs),
(754,54,o),
(714,31,o),
(646,31,cs),
(562,31,o),
(501,82,o),
(501,184,cs),
(501,196,o),
(511,200,o),
(528,200,cs),
(779,200,ls),
(802,200,o),
(812,209,o),
(812,224,cs),
(812,329,o),
(741,373,o),
(637,373,cs),
(506,373,o),
(406,293,o),
(406,180,cs),
(406,68,o),
(503,-7,o),
(629,-7,cs)
);
},
{
closed = 1;
nodes = (
(511,218,o),
(503,223,o),
(504,230,cs),
(518,309,o),
(567,354,o),
(636,354,cs),
(691,354,o),
(721,317,o),
(721,254,cs),
(721,229,o),
(702,218,o),
(658,218,cs),
(523,218,ls)
);
}
);
width = 845;
}
);
metricRight = e;
unicode = 339;
},
{
glyphname = p;
kernLeft = n;
kernRight = o;
lastChange = "2022-08-31 17:39:19 +0000";
layers = (
{
background = {
shapes = (
{
closed = 1;
nodes = (
(275,-148,ls),
(289,-148,o),
(294,-145,o),
(294,-139,cs),
(294,-135,o),
(290,-133,o),
(281,-132,cs),
(231,-128,ls),
(194,-125,o),
(186,-120,o),
(186,-99,cs),
(186,317,l),
(179,317,l),
(179,362,ls),
(179,368,o),
(176,371,o),
(168,371,cs),
(161,371,o),
(156,369,o),
(148,364,cs),
(116,348,o),
(94,337,o),
(39,333,cs),
(25,332,o),
(18,330,o),
(18,325,cs),
(18,320,o),
(23,318,o),
(36,317,cs),
(63,315,ls),
(89,313,o),
(97,309,o),
(97,292,cs),
(97,-99,ls),
(97,-120,o),
(89,-128,o),
(52,-130,cs),
(33,-132,ls),
(21,-133,o),
(16,-136,o),
(16,-140,cs),
(16,-145,o),
(23,-148,o),
(36,-148,cs)
);
},
{
closed = 1;
nodes = (
(435,-7,o),
(547,77,o),
(547,198,cs),
(547,303,o),
(460,373,o),
(338,373,cs),
(291,373,o),
(255,364,o),
(221,344,cs),
(186,325,l),
(175,325,l),
(186,264,l),
(186,312,o),
(237,340,o),
(298,340,cs),
(394,340,o),
(450,286,o),
(450,188,cs),
(450,80,o),
(384,12,o),
(284,12,cs),
(227,12,o),
(186,38,o),
(186,82,c),
(136,20,l),
(156,20,l),
(195,2,o),
(237,-7,o),
(281,-7,cs)
);
}
);
};
layerId = m01;
shapes = (
{
closed = 1;
nodes = (
(275,-148,ls),
(289,-148,o),
(294,-145,o),
(294,-139,cs),
(294,-135,o),
(290,-133,o),
(281,-132,cs),
(231,-128,ls),
(194,-125,o),
(186,-120,o),
(186,-99,cs),
(186,-7,ls),
(186,2,o),
(195,5,o),
(210,2,cs),
(232,-4,o),
(255,-7,o),
(281,-7,cs),
(435,-7,o),
(547,77,o),
(547,198,cs),
(547,303,o),
(460,373,o),
(338,373,cs),
(291,373,o),
(255,364,o),
(221,344,cs),
(206,337,ls),
(192,329,o),
(179,332,o),
(179,340,cs),
(179,362,ls),
(179,368,o),
(176,371,o),
(168,371,cs),
(161,371,o),
(156,369,o),
(148,364,cs),
(116,348,o),
(94,337,o),
(39,333,cs),
(25,332,o),
(18,330,o),
(18,325,cs),
(18,320,o),
(23,318,o),
(36,317,cs),
(63,315,ls),
(89,313,o),
(97,309,o),
(97,292,cs),
(97,-99,ls),
(97,-120,o),
(89,-128,o),
(52,-130,cs),
(33,-132,ls),
(21,-133,o),
(16,-136,o),
(16,-140,cs),
(16,-145,o),
(23,-148,o),
(36,-148,cs)
);
},
{
closed = 1;
nodes = (
(227,12,o),
(186,38,o),
(186,82,cs),
(186,264,ls),
(186,312,o),
(237,340,o),
(298,340,cs),
(394,340,o),
(450,286,o),
(450,188,cs),
(450,80,o),
(384,12,o),
(284,12,cs)
);
}
);
width = 588;
}
);
unicode = 112;
},
{
glyphname = thorn;
kernLeft = h;
kernRight = o;
lastChange = "2022-08-23 20:02:04 +0000";
layers = (
{
layerId = m01;
shapes = (
{
closed = 1;
nodes = (
(275,-148,ls),
(289,-148,o),
(294,-145,o),
(294,-139,cs),
(294,-135,o),
(290,-133,o),
(281,-132,cs),
(231,-128,ls),
(194,-125,o),
(186,-120,o),
(186,-99,cs),
(186,-7,ls),
(186,2,o),
(195,5,o),
(210,2,cs),
(232,-4,o),
(255,-7,o),
(281,-7,cs),
(435,-7,o),
(547,77,o),
(547,198,cs),
(547,303,o),
(460,373,o),
(338,373,cs),
(291,373,o),
(255,364,o),
(221,344,cs),
(206,337,ls),
(192,329,o),
(179,332,o),
(179,340,cs),
(179,523,ls),
(179,531,o),
(175,535,o),
(166,535,cs),
(158,535,o),
(148,532,o),
(133,527,cs),
(112,519,o),
(78,512,o),
(29,506,cs),
(20,505,o),
(15,502,o),
(15,497,cs),
(15,493,o),
(20,489,o),
(29,489,cs),
(56,486,ls),
(82,484,o),
(97,479,o),
(97,462,cs),
(97,-99,ls),
(97,-120,o),
(89,-128,o),
(52,-130,cs),
(33,-132,ls),
(21,-133,o),
(16,-136,o),
(16,-140,cs),
(16,-145,o),
(23,-148,o),
(36,-148,cs)
);
},
{
closed = 1;
nodes = (
(227,12,o),
(186,38,o),
(186,82,cs),
(186,264,ls),
(186,312,o),
(237,340,o),
(298,340,cs),
(394,340,o),
(450,286,o),
(450,188,cs),
(450,80,o),
(384,12,o),
(284,12,cs)
);
}
);
width = 588;
}
);
unicode = 254;
},
{
glyphname = q;
kernLeft = o;
lastChange = "2022-09-01 20:20:31 +0000";
layers = (
{
background = {
shapes = (
{
closed = 1;
nodes = (
(294,-7,o),
(329,4,o),
(370,34,cs),
(394,51,l),
(406,51,l),
(400,122,l),
(400,69,o),
(336,26,o),
(268,26,cs),
(186,26,o),
(138,80,o),
(138,178,cs),
(138,286,o),
(204,354,o),
(302,354,cs),
(361,354,o),
(400,328,o),
(400,285,c),
(451,347,l),
(431,347,l),
(391,365,o),
(351,373,o),
(307,373,cs),
(152,373,o),
(39,289,o),
(39,168,cs),
(39,64,o),
(122,-7,o),
(239,-7,cs)
);
},
{
closed = 1;
nodes = (
(552,-148,ls),
(565,-148,o),
(572,-145,o),
(572,-140,cs),
(572,-136,o),
(566,-133,o),
(554,-132,cs),
(536,-130,ls),
(499,-128,o),
(491,-120,o),
(491,-99,cs),
(491,251,ls),
(491,309,o),
(494,341,o),
(501,363,cs),
(504,369,o),
(496,373,o),
(488,373,cs),
(480,373,o),
(474,371,o),
(465,364,cs),
(400,322,l),
(400,-99,ls),
(400,-120,o),
(393,-125,o),
(355,-128,cs),
(307,-132,ls),
(298,-133,o),
(292,-135,o),
(292,-139,cs),
(292,-145,o),
(299,-148,o),
(312,-148,cs)
);
}
);
};
layerId = m01;
shapes = (
{
closed = 1;
nodes = (
(552,-148,ls),
(565,-148,o),
(572,-145,o),
(572,-140,cs),
(572,-136,o),
(566,-133,o),
(554,-132,cs),
(536,-130,ls),
(499,-128,o),
(491,-120,o),
(491,-99,cs),
(491,251,ls),
(491,309,o),
(494,341,o),
(501,363,cs),
(504,369,o),
(500,373,o),
(491,373,cs),
(483,373,o),
(475,371,o),
(458,360,cs),
(442,348,o),
(425,346,o),
(405,354,cs),
(370,367,o),
(343,373,o),
(307,373,cs),
(152,373,o),
(39,289,o),
(39,168,cs),
(39,64,o),
(122,-7,o),
(239,-7,cs),
(294,-7,o),
(329,4,o),
(373,36,cs),
(385,44,o),
(400,41,o),
(400,32,cs),
(400,-99,ls),
(400,-120,o),
(393,-125,o),
(355,-128,cs),
(307,-132,ls),
(298,-133,o),
(292,-135,o),
(292,-139,cs),
(292,-145,o),
(299,-148,o),
(312,-148,cs)
);
},
{
closed = 1;
nodes = (
(186,26,o),
(138,80,o),
(138,178,cs),
(138,286,o),
(204,354,o),
(302,354,cs),
(361,354,o),
(400,328,o),
(400,285,cs),
(400,122,ls),
(400,69,o),
(336,26,o),
(268,26,cs)
);
}
);
width = 584;
}
);
unicode = 113;
},
{
glyphname = r;
kernLeft = n;
kernRight = r;
lastChange = "2022-09-01 19:37:15 +0000";
layers = (
{
anchors = (
{
name = bottom;
pos = (109,0);
},
{
name = top;
pos = (159,510);
}
);
background = {
shapes = (
{
closed = 1;
nodes = (
(263,0,ls),
(276,0,o),
(283,3,o),
(283,8,cs),
(283,13,o),
(277,16,o),
(268,17,cs),
(232,19,ls),
(195,21,o),
(187,28,o),
(187,48,cs),
(187,300,l),
(182,300,l),
(182,362,ls),
(182,368,o),
(177,371,o),
(169,371,cs),
(162,371,o),
(158,369,o),
(150,364,cs),
(117,348,o),
(95,337,o),
(41,333,cs),
(26,332,o),
(20,330,o),
(20,325,cs),
(20,320,o),
(24,318,o),
(37,317,cs),
(64,315,ls),
(90,313,o),
(98,309,o),
(98,292,cs),
(98,48,ls),
(98,28,o),
(90,22,o),
(53,18,cs),
(37,17,ls),
(25,15,o),
(20,12,o),
(20,8,cs),
(20,3,o),
(26,0,o),
(39,0,cs)
);
},
{
closed = 1;
nodes = (
(187,282,o),
(235,332,o),
(282,332,cs),
(331,332,o),
(312,296,o),
(369,296,cs),
(404,296,o),
(421,309,o),
(421,327,cs),
(421,350,o),
(393,373,o),
(335,373,cs),
(281,373,o),
(237,354,o),
(206,324,cs),
(187,306,l),
(174,306,l),
(187,216,l)
);
}
);
};
layerId = m01;
shapes = (
{
closed = 1;
nodes = (
(194,314,o),
(182,315,o),
(182,323,cs),
(182,362,ls),
(182,368,o),
(177,371,o),
(169,371,cs),
(162,371,o),
(158,369,o),
(150,364,cs),
(117,348,o),
(95,337,o),
(41,333,cs),
(26,332,o),
(20,330,o),
(20,325,cs),
(20,320,o),
(24,318,o),
(37,317,cs),
(64,315,ls),
(90,313,o),
(98,309,o),
(98,292,cs),
(98,48,ls),
(98,28,o),
(90,22,o),
(53,18,cs),
(37,17,ls),
(25,15,o),
(20,12,o),
(20,8,cs),
(20,3,o),
(26,0,o),
(39,0,cs),
(263,0,ls),
(276,0,o),
(283,3,o),
(283,8,cs),
(283,13,o),
(277,16,o),
(268,17,cs),
(232,19,ls),
(195,21,o),
(187,28,o),
(187,48,cs),
(187,216,ls),
(187,282,o),
(235,332,o),
(282,332,cs),
(331,332,o),
(312,296,o),
(369,296,cs),
(404,296,o),
(421,309,o),
(421,327,cs),
(421,350,o),
(393,373,o),
(335,373,cs),
(283,373,o),
(239,355,o),
(204,322,cs)
);
}
);
width = 421;
}
);
unicode = 114;
},
{
glyphname = s;
kernLeft = s;
kernRight = s;
lastChange = "2022-09-01 21:00:18 +0000";
layers = (
{
anchors = (
{
name = bottom;
pos = (144,0);
},
{
name = top;
pos = (154,510);
}
);
background = {
shapes = (
{
closed = 1;
nodes = (
(291,-7,o),
(370,33,o),
(370,95,cs),
(370,142,o),
(324,182,o),
(237,217,cs),
(139,253,o),
(108,273,o),
(108,301,cs),
(108,333,o),
(145,354,o),
(197,354,cs),
(247,354,o),
(279,334,o),
(302,283,cs),
(309,269,ls),
(312,263,o),
(317,259,o),
(327,259,cs),
(336,259,o),
(342,263,o),
(342,270,cs),
(338,348,ls),
(338,354,o),
(336,356,o),
(328,359,cs),
(301,369,o),
(266,373,o),
(230,373,cs),
(116,373,o),
(37,336,o),
(37,281,cs),
(37,241,o),
(78,208,o),
(169,174,cs),
(261,138,o),
(297,112,o),
(297,74,cs),
(297,36,o),
(256,12,o),
(197,12,cs),
(139,12,o),
(98,34,o),
(76,82,cs),
(66,101,ls),
(62,109,o),
(56,110,o),
(49,110,cs),
(41,110,o),
(34,108,o),
(34,100,cs),
(41,20,ls),
(41,14,o),
(44,10,o),
(53,7,cs),
(80,-1,o),
(132,-7,o),
(174,-7,cs)
);
}
);
};
layerId = m01;
shapes = (
{
closed = 1;
nodes = (
(291,-7,o),
(370,33,o),
(370,95,cs),
(370,142,o),
(324,182,o),
(237,217,cs),
(139,253,o),
(108,273,o),
(108,307,cs),
(108,333,o),
(141,353,o),
(187,353,cs),
(238,353,o),
(270,332,o),
(306,269,cs),
(309,263,o),
(314,258,o),
(325,258,cs),
(335,258,o),
(342,261,o),
(342,268,cs),
(338,348,ls),
(338,354,o),
(335,356,o),
(327,359,cs),
(300,369,o),
(266,373,o),
(230,373,cs),
(114,373,o),
(37,336,o),
(37,281,cs),
(37,241,o),
(78,208,o),
(169,174,cs),
(261,138,o),
(297,112,o),
(297,74,cs),
(297,36,o),
(258,12,o),
(208,12,cs),
(145,12,o),
(103,32,o),
(74,101,cs),
(70,109,o),
(64,113,o),
(54,113,cs),
(44,113,o),
(37,108,o),
(37,100,cs),
(41,20,ls),
(41,14,o),
(44,10,o),
(53,7,cs),
(80,-1,o),
(132,-7,o),
(174,-7,cs)
);
}
);
width = 407;
}
);
unicode = 115;
},
{
glyphname = germandbls;
kernLeft = f;
kernRight = s;
lastChange = "2022-08-23 20:02:28 +0000";
layers = (
{
background = {
shapes = (
{
closed = 1;
nodes = (
(202,349,ls),
(202,479,o),
(247,523,o),
(337,523,cs),
(420,523,o),
(459,486,o),
(459,432,cs),
(459,375,o),
(413,360,o),
(368,349,cs),
(321,339,o),
(275,332,o),
(275,286,cs),
(275,207,o),
(508,185,o),
(508,89,cs),
(508,43,o),
(494,9,o),
(409,9,cs),
(314,9,o),
(325,125,o),
(283,125,cs),
(271,125,o),
(262,122,o),
(262,105,cs),
(262,31,ls),
(262,17,o),
(263,14,o),
(288,6,cs),
(315,-4,o),
(351,-8,o),
(390,-8,cs),
(511,-8,o),
(581,41,o),
(581,103,cs),
(581,170,o),
(519,202,o),
(458,228,cs),
(396,253,o),
(334,271,o),
(334,306,cs),
(334,335,o),
(385,338,o),
(436,349,cs),
(486,360,o),
(538,378,o),
(538,437,cs),
(538,506,o),
(459,541,o),
(345,541,cs),
(214,541,o),
(129,462,o),
(129,360,cs),
(129,341,o),
(108,330,o),
(90,325,cs),
(70,321,o),
(51,320,o),
(51,311,cs),
(51,305,o),
(54,301,o),
(87,301,cs),
(114,301,o),
(123,299,o),
(123,284,cs),
(123,61,ls),
(123,26,o),
(113,20,o),
(56,16,cs),
(45,15,o),
(39,10,o),
(39,7,cs),
(39,2,o),
(47,-3,o),
(59,-3,cs),
(74,-3,o),
(86,1,o),
(123,1,cs),
(144,1,o),
(159,-3,o),
(179,-3,cs),
(198,-3,o),
(202,0,o),
(202,14,cs)
);
}
);
};
layerId = m01;
shapes = (
{
closed = 1;
nodes = (
(503,-7,o),
(570,33,o),
(570,95,cs),
(570,142,o),
(523,182,o),
(443,212,cs),
(345,249,o),
(319,266,o),
(319,292,cs),
(319,349,o),
(520,378,o),
(520,461,cs),
(520,496,o),
(465,541,o),
(350,541,c),
(201,541,o),
(113,473,o),
(113,393,cs),
(113,377,o),
(91,366,o),
(51,364,cs),
(39,363,o),
(34,360,o),
(34,355,cs),
(34,351,o),
(41,348,o),
(51,348,cs),
(80,348,ls),
(100,348,o),
(113,342,o),
(113,331,cs),
(113,48,ls),
(113,28,o),
(105,20,o),
(68,18,cs),
(34,17,ls),
(23,16,o),
(17,12,o),
(17,8,cs),
(17,3,o),
(24,0,o),
(37,0,cs),
(176,0,ls),
(193,0,o),
(202,5,o),
(202,14,c),
(202,411,ls),
(202,485,o),
(266,518,o),
(343,518,cs),
(406,518,o),
(435,497,o),
(435,465,cs),
(435,370,o),
(261,354,o),
(261,274,cs),
(261,234,o),
(298,204,o),
(389,170,cs),
(465,142,o),
(500,112,o),
(500,74,cs),
(500,36,o),
(459,12,o),
(412,12,cs),
(353,12,o),
(327,32,o),
(298,101,cs),
(293,109,o),
(289,113,o),
(277,113,cs),
(267,113,o),
(261,108,o),
(261,100,cs),
(264,20,ls),
(264,14,o),
(267,10,o),
(276,7,cs),
(304,-1,o),
(343,-7,o),
(393,-7,cs)
);
}
);
width = 585;
}
);
metricLeft = f;
unicode = 223;
},
{
glyphname = t;
kernLeft = t;
kernRight = t;
lastChange = "2022-09-01 20:40:20 +0000";
layers = (
{
anchors = (
{
name = bottom;
pos = (150,0);
},
{
name = center;
pos = (130,255);
},
{
name = top;
pos = (130,510);
},
{
name = topright;
pos = (195,760);
}
);
background = {
shapes = (
{
closed = 1;
nodes = (
(89,354,l),
(89,70,ls),
(89,15,o),
(132,-7,o),
(194,-7,cs),
(263,-7,o),
(324,26,o),
(324,109,c),
(292,109,l),
(289,56,o),
(262,35,o),
(222,35,cs),
(189,35,o),
(178,48,o),
(178,69,cs),
(178,354,l)
);
},
{
closed = 1;
nodes = (
(116,411,o),
(82,387,o),
(14,363,c),
(14,348,l),
(301,348,l),
(301,369,l),
(178,369,l),
(178,469,l),
(150,469,l)
);
}
);
};
guides = (
{
angle = 90;
pos = (245,486);
},
{
pos = (-79,649);
}
);
layerId = m01;
shapes = (
{
closed = 1;
nodes = (
(261,-7,o),
(319,24,o),
(324,99,cs),
(324,105,o),
(317,109,o),
(308,109,cs),
(299,109,o),
(292,105,o),
(291,99,cs),
(284,54,o),
(259,35,o),
(222,35,cs),
(189,35,o),
(178,48,o),
(178,69,cs),
(178,338,ls),
(178,344,o),
(185,348,o),
(197,348,cs),
(283,348,ls),
(294,348,o),
(304,352,o),
(304,359,cs),
(304,365,o),
(294,369,o),
(283,369,cs),
(197,369,ls),
(185,369,o),
(178,372,o),
(178,378,cs),
(178,459,ls),
(178,467,o),
(175,470,o),
(164,470,cs),
(155,470,o),
(148,467,o),
(141,456,cs),
(115,411,o),
(83,388,o),
(25,367,cs),
(17,364,o),
(14,361,o),
(14,357,cs),
(14,351,o),
(21,348,o),
(34,348,cs),
(72,348,ls),
(82,348,o),
(89,344,o),
(89,340,cs),
(89,70,ls),
(89,15,o),
(132,-7,o),
(194,-7,cs)
);
}
);
width = 343;
}
);
unicode = 116;
},
{
glyphname = u;
kernLeft = u;
kernRight = u;
lastChange = "2022-09-01 20:40:25 +0000";
layers = (
{
anchors = (
{
name = bottom;
pos = (226,0);
},
{
name = ogonek;
pos = (336,0);
},
{
name = top;
pos = (216,510);
},
{
name = topright;
pos = (492,450);
}
);
background = {
shapes = (
{
closed = 1;
nodes = (
(289,-7,o),
(332,7,o),
(390,38,cs),
(413,51,l),
(424,51,l),
(413,120,l),
(413,70,o),
(351,26,o),
(270,26,cs),
(214,26,o),
(183,43,o),
(183,88,cs),
(183,362,ls),
(183,368,o),
(178,371,o),
(170,371,cs),
(164,371,o),
(159,369,o),
(151,364,cs),
(118,348,o),
(90,337,o),
(36,333,cs),
(21,332,o),
(15,330,o),
(15,325,cs),
(15,320,o),
(18,318,o),
(32,317,cs),
(60,315,ls),
(85,313,o),
(92,309,o),
(92,292,cs),
(92,73,ls),
(92,15,o),
(160,-7,o),
(227,-7,cs)
);
},
{
closed = 1;
nodes = (
(438,-3,o),
(443,-2,o),
(451,3,cs),
(476,19,o),
(505,31,o),
(559,36,cs),
(574,37,o),
(581,39,o),
(581,44,cs),
(581,48,o),
(576,51,o),
(564,51,cs),
(536,54,ls),
(511,55,o),
(503,60,o),
(503,77,cs),
(503,362,ls),
(503,368,o),
(499,371,o),
(491,371,cs),
(484,371,o),
(478,369,o),
(470,364,cs),
(439,348,o),
(409,337,o),
(355,333,cs),
(342,332,o),
(335,330,o),
(335,325,cs),
(335,320,o),
(338,318,o),
(352,317,cs),
(379,315,ls),
(405,313,o),
(413,309,o),
(413,292,cs),
(413,69,l),
(420,69,l),
(420,5,ls),
(420,-1,o),
(423,-3,o),
(431,-3,cs)
);
}
);
};
layerId = m01;
shapes = (
{
closed = 1;
nodes = (
(289,-7,o),
(332,7,o),
(397,42,cs),
(407,48,o),
(420,46,o),
(420,38,cs),
(420,5,ls),
(420,-1,o),
(423,-3,o),
(431,-3,cs),
(438,-3,o),
(443,-2,o),
(451,3,cs),
(476,19,o),
(505,31,o),
(559,36,cs),
(574,37,o),
(581,39,o),
(581,44,cs),
(581,48,o),
(576,51,o),
(564,51,cs),
(536,54,ls),
(511,55,o),
(503,60,o),
(503,77,cs),
(503,358,ls),
(503,364,o),
(494,369,o),
(483,369,cs),
(360,369,ls),
(343,369,o),
(335,364,o),
(335,359,cs),
(335,354,o),
(343,350,o),
(356,349,cs),
(379,348,ls),
(405,347,o),
(413,342,o),
(413,325,cs),
(413,120,ls),
(413,70,o),
(351,26,o),
(270,26,cs),
(214,26,o),
(183,43,o),
(183,88,cs),
(183,358,ls),
(183,364,o),
(175,369,o),
(162,369,cs),
(39,369,ls),
(23,369,o),
(15,364,o),
(15,359,cs),
(15,354,o),
(23,350,o),
(37,349,cs),
(60,348,ls),
(85,347,o),
(92,342,o),
(92,325,cs),
(92,73,ls),
(92,15,o),
(160,-7,o),
(227,-7,cs)
);
}
);
width = 600;
}
);
unicode = 117;
},
{
glyphname = v;
lastChange = "2022-09-01 20:40:32 +0000";
layers = (
{
background = {
shapes = (
{
closed = 1;
nodes = (
(263,-7,o),
(270,-5,o),
(274,2,cs),
(442,303,ls),
(459,333,o),
(476,343,o),
(503,348,cs),
(514,350,ls),
(527,353,o),
(530,356,o),
(530,360,cs),
(530,365,o),
(526,369,o),
(512,369,cs),
(344,369,ls),
(332,369,o),
(325,366,o),
(325,361,cs),
(325,356,o),
(332,354,o),
(343,352,cs),
(370,349,ls),
(414,344,o),
(416,333,o),
(402,307,cs),
(285,92,l),
(279,92,l),
(159,320,ls),
(148,341,o),
(156,348,o),
(198,350,cs),
(220,352,ls),
(230,353,o),
(237,356,o),
(237,361,cs),
(237,366,o),
(230,369,o),
(218,369,cs),
(0,369,ls),
(-9,510,o),
(-14,506,o),
(-14,500,cs),
(-14,493,o),
(-10,489,o),
(-1,487,cs),
(18,349,ls),
(43,347,o),
(51,343,o),
(63,320,cs),
(239,2,ls),
(244,-5,o),
(250,-7,o),
(256,-7,cs)
);
}
);
};
layerId = m01;
shapes = (
{
closed = 1;
nodes = (
(263,-7,o),
(270,-5,o),
(274,2,cs),
(442,303,ls),
(459,333,o),
(476,343,o),
(503,348,cs),
(514,350,ls),
(527,353,o),
(530,356,o),
(530,360,cs),
(530,365,o),
(526,369,o),
(512,369,cs),
(344,369,ls),
(332,369,o),
(325,366,o),
(325,361,cs),
(325,356,o),
(332,354,o),
(343,352,cs),
(370,349,ls),
(414,344,o),
(416,333,o),
(402,307,cs),
(294,111,ls),
(290,100,o),
(274,100,o),
(268,111,cs),
(159,320,ls),
(148,341,o),
(156,348,o),
(198,350,cs),
(220,352,ls),
(230,353,o),
(237,356,o),
(237,361,cs),
(237,366,o),
(230,369,o),
(218,369,cs),
(0,369,ls),
(-9,510,o),
(-14,506,o),
(-14,500,cs),
(-14,493,o),
(-10,489,o),
(-1,487,cs),
(18,349,ls),
(43,347,o),
(51,343,o),
(63,320,cs),
(239,2,ls),
(244,-5,o),
(250,-7,o),
(256,-7,cs)
);
}
);
width = 520;
}
);
unicode = 118;
},
{
glyphname = w;
kernLeft = w;
kernRight = w;
lastChange = "2022-09-01 20:49:11 +0000";
layers = (
{
anchors = (
{
name = bottom;
pos = (299,0);
},
{
name = top;
pos = (311,510);
}
);
background = {
shapes = (
{
closed = 1;
nodes = (
(258,-7,o),
(266,-3,o),
(271,8,cs),
(424,323,l),
(389,327,l),
(275,92,l),
(268,92,l),
(155,320,ls),
(144,341,o),
(152,348,o),
(194,350,cs),
(215,352,ls),
(227,353,o),
(232,356,o),
(232,361,cs),
(232,366,o),
(227,369,o),
(214,369,cs),
(0,369,ls),
(-9,510,o),
(-14,506,o),
(-14,500,cs),
(-14,493,o),
(-10,489,o),
(-1,487,cs),
(18,349,ls),
(43,347,o),
(52,343,o),
(63,320,cs),
(223,8,ls),
(229,-3,o),
(237,-7,o),
(247,-7,cs)
);
},
{
closed = 1;
nodes = (
(547,-7,o),
(555,-3,o),
(561,8,cs),
(712,303,ls),
(727,333,o),
(746,343,o),
(773,348,cs),
(784,350,ls),
(796,353,o),
(800,356,o),
(800,360,cs),
(800,365,o),
(795,369,o),
(782,369,cs),
(616,369,ls),
(605,369,o),
(598,366,o),
(598,361,cs),
(598,356,o),
(605,354,o),
(615,352,cs),
(643,349,ls),
(687,344,o),
(688,333,o),
(674,307,cs),
(565,92,l),
(558,92,l),
(466,320,ls),
(458,341,o),
(462,348,o),
(505,350,cs),
(527,352,ls),
(537,353,o),
(544,356,o),
(544,361,cs),
(544,366,o),
(537,369,o),
(526,369,cs),
(310,369,ls),
(299,369,o),
(292,366,o),
(292,361,cs),
(292,356,o),
(298,354,o),
(309,352,cs),
(329,349,ls),
(353,347,o),
(363,343,o),
(374,320,cs),
(513,8,ls),
(519,-3,o),
(527,-7,o),
(536,-7,cs)
);
}
);
};
layerId = m01;
shapes = (
{
closed = 1;
nodes = (
(258,-7,o),
(266,-3,o),
(271,8,cs),
(385,239,ls),
(390,251,o),
(405,250,o),
(409,239,cs),
(513,8,ls),
(519,-3,o),
(527,-7,o),
(536,-7,cs),
(547,-7,o),
(555,-3,o),
(561,8,cs),
(712,303,ls),
(727,333,o),
(746,343,o),
(773,348,cs),
(784,350,ls),
(796,353,o),
(800,356,o),
(800,360,cs),
(800,365,o),
(795,369,o),
(782,369,cs),
(616,369,ls),
(605,369,o),
(598,366,o),
(598,361,cs),
(598,356,o),
(605,354,o),
(615,352,cs),
(643,349,ls),
(687,344,o),
(688,333,o),
(674,307,cs),
(574,111,ls),
(568,101,o),
(554,102,o),
(550,111,cs),
(466,320,ls),
(458,341,o),
(462,348,o),
(505,350,cs),
(527,352,ls),
(537,353,o),
(544,356,o),
(544,361,cs),
(544,366,o),
(537,369,o),
(526,369,cs),
(310,369,ls),
(299,369,o),
(292,366,o),
(292,361,cs),
(292,356,o),
(298,354,o),
(309,352,cs),
(329,349,ls),
(354,347,o),
(361,344,o),
(374,320,cs),
(379,312,o),
(378,305,o),
(374,297,cs),
(284,110,ls),
(279,99,o),
(264,99,o),
(259,110,cs),
(155,320,ls),
(144,341,o),
(152,348,o),
(194,350,cs),
(215,352,ls),
(227,353,o),
(232,356,o),
(232,361,cs),
(232,366,o),
(227,369,o),
(214,369,cs),
(0,369,ls),
(-9,510,o),
(-14,506,o),
(-14,500,cs),
(-14,493,o),
(-10,489,o),
(-1,487,cs),
(18,349,ls),
(43,347,o),
(52,343,o),
(63,320,cs),
(223,8,ls),
(229,-3,o),
(237,-7,o),
(247,-7,cs)
);
}
);
width = 790;
}
);
unicode = 119;
},
{
glyphname = x;
lastChange = "2022-09-01 20:49:22 +0000";
layers = (
{
background = {
shapes = (
{
closed = 1;
nodes = (
(496,0,ls),
(508,0,o),
(514,3,o),
(514,7,cs),
(514,12,o),
(509,15,o),
(497,17,cs),
(477,19,ls),
(460,21,o),
(451,26,o),
(430,48,cs),
(172,326,ls),
(160,338,o),
(169,347,o),
(193,349,cs),
(213,352,ls),
(223,354,o),
(230,356,o),
(230,361,cs),
(230,366,o),
(223,369,o),
(212,369,cs),
(16,369,ls),
(3,369,o),
(-2,506,o),
(-2,500,cs),
(-2,493,o),
(2,354,o),
(15,352,cs),
(34,349,ls),
(52,348,o),
(62,342,o),
(82,320,cs),
(340,42,ls),
(352,31,o),
(343,22,o),
(319,19,cs),
(299,17,ls),
(289,15,o),
(282,12,o),
(282,7,cs),
(282,3,o),
(289,0,o),
(300,0,cs)
);
},
{
closed = 1;
nodes = (
(177,0,ls),
(189,0,o),
(195,3,o),
(195,7,cs),
(195,12,o),
(191,15,o),
(178,17,cs),
(144,21,ls),
(121,24,o),
(115,35,o),
(135,55,cs),
(230,154,l),
(248,154,l),
(206,186,l),
(214,178,o),
(214,173,o),
(205,164,cs),
(107,65,ls),
(71,30,o),
(54,25,o),
(21,20,cs),
(6,18,ls),
(-5,23,o),
(-8,17,o),
(-8,11,cs),
(-8,5,o),
(-4,0,o),
(8,0,cs)
);
},
{
closed = 1;
nodes = (
(292,196,o),
(292,201,o),
(301,210,cs),
(393,303,ls),
(429,339,o),
(446,344,o),
(478,348,cs),
(494,350,ls),
(506,352,o),
(511,356,o),
(511,360,cs),
(511,365,o),
(505,369,o),
(492,369,cs),
(323,369,ls),
(310,369,o),
(304,366,o),
(304,361,cs),
(304,356,o),
(309,354,o),
(321,352,cs),
(355,348,ls),
(379,344,o),
(385,334,o),
(365,313,cs),
(276,221,l),
(256,221,l),
(300,188,l)
);
}
);
};
layerId = m01;
shapes = (
{
closed = 1;
nodes = (
(496,0,ls),
(508,0,o),
(514,3,o),
(514,7,cs),
(514,12,o),
(509,15,o),
(497,17,cs),
(477,19,ls),
(460,21,o),
(451,26,o),
(430,48,cs),
(300,188,ls),
(292,196,o),
(292,201,o),
(301,210,cs),
(393,303,ls),
(429,339,o),
(446,344,o),
(478,348,cs),
(494,350,ls),
(506,352,o),
(511,356,o),
(511,360,cs),
(511,365,o),
(505,369,o),
(492,369,cs),
(323,369,ls),
(310,369,o),
(304,366,o),
(304,361,cs),
(304,356,o),
(309,354,o),
(321,352,cs),
(355,348,ls),
(379,344,o),
(385,334,o),
(365,313,cs),
(285,230,ls),
(279,224,o),
(268,224,o),
(262,230,cs),
(172,326,ls),
(160,338,o),
(169,347,o),
(193,349,cs),
(213,352,ls),
(223,354,o),
(230,356,o),
(230,361,cs),
(230,366,o),
(223,369,o),
(212,369,cs),
(16,369,ls),
(3,369,o),
(-2,506,o),
(-2,500,cs),
(-2,493,o),
(2,354,o),
(15,352,cs),
(34,349,ls),
(52,348,o),
(62,342,o),
(82,320,cs),
(208,185,ls),
(214,177,o),
(213,172,o),
(205,164,cs),
(107,65,ls),
(71,30,o),
(54,25,o),
(21,20,cs),
(6,18,ls),
(-5,23,o),
(-8,17,o),
(-8,11,cs),
(-8,5,o),
(-4,0,o),
(8,0,cs),
(177,0,ls),
(189,0,o),
(195,3,o),
(195,7,cs),
(195,12,o),
(191,15,o),
(178,17,cs),
(144,21,ls),
(121,24,o),
(115,35,o),
(135,55,cs),
(221,144,ls),
(228,151,o),
(239,150,o),
(246,144,cs),
(340,42,ls),
(352,31,o),
(343,22,o),
(319,19,cs),
(299,17,ls),
(289,15,o),
(282,12,o),
(282,7,cs),
(282,3,o),
(289,0,o),
(300,0,cs)
);
}
);
width = 509;
}
);
unicode = 120;
},
{
glyphname = y;
kernLeft = y;
kernRight = y;
lastChange = "2022-09-01 20:21:06 +0000";
layers = (
{
anchors = (
{
name = bottom;
pos = (201,0);
},
{
name = top;
pos = (201,510);
}
);
background = {
shapes = (
{
closed = 1;
nodes = (
(164,-148,o),
(197,-135,o),
(255,-33,cs),
(452,303,ls),
(470,333,o),
(486,343,o),
(513,348,cs),
(526,350,ls),
(537,353,o),
(540,356,o),
(540,360,cs),
(540,365,o),
(536,369,o),
(522,369,cs),
(354,369,ls),
(343,369,o),
(336,366,o),
(336,361,cs),
(336,356,o),
(343,354,o),
(353,352,cs),
(381,349,ls),
(424,344,o),
(427,333,o),
(413,307,cs),
(291,92,l),
(284,92,l),
(159,320,ls),
(147,341,o),
(156,348,o),
(198,350,cs),
(220,352,ls),
(230,353,o),
(237,356,o),
(237,361,cs),
(237,366,o),
(230,369,o),
(218,369,cs),
(0,369,ls),
(-9,510,o),
(-14,506,o),
(-14,500,cs),
(-14,493,o),
(-10,489,o),
(-1,487,cs),
(18,349,ls),
(43,347,o),
(51,343,o),
(63,320,cs),
(208,70,ls),
(238,17,o),
(238,-3,o),
(213,-46,cs),
(185,-94,o),
(172,-105,o),
(153,-105,cs),
(123,-105,o),
(143,-71,o),
(86,-71,cs),
(52,-71,o),
(32,-86,o),
(32,-104,cs),
(32,-128,o),
(62,-148,o),
(109,-148,cs)
);
}
);
};
layerId = m01;
shapes = (
{
closed = 1;
nodes = (
(164,-148,o),
(195,-135,o),
(255,-33,cs),
(452,303,ls),
(470,333,o),
(486,343,o),
(513,348,cs),
(526,350,ls),
(537,353,o),
(540,356,o),
(540,360,cs),
(540,365,o),
(536,369,o),
(522,369,cs),
(354,369,ls),
(343,369,o),
(336,366,o),
(336,361,cs),
(336,356,o),
(343,354,o),
(353,352,cs),
(381,349,ls),
(424,344,o),
(427,333,o),
(413,307,cs),
(300,109,ls),
(294,99,o),
(281,99,o),
(275,109,cs),
(159,320,ls),
(147,341,o),
(156,348,o),
(198,350,cs),
(220,352,ls),
(230,353,o),
(237,356,o),
(237,361,cs),
(237,366,o),
(230,369,o),
(218,369,cs),
(0,369,ls),
(-9,510,o),
(-14,506,o),
(-14,500,cs),
(-14,493,o),
(-10,489,o),
(-1,487,cs),
(18,349,ls),
(43,347,o),
(51,343,o),
(63,320,cs),
(208,70,ls),
(238,17,o),
(238,-3,o),
(213,-46,cs),
(185,-94,o),
(172,-105,o),
(153,-105,cs),
(123,-105,o),
(143,-71,o),
(86,-71,cs),
(52,-71,o),
(32,-86,o),
(32,-104,cs),
(32,-128,o),
(62,-148,o),
(109,-148,cs)
);
}
);
width = 530;
}
);
metricRight = v;
unicode = 121;
},
{
glyphname = z;
kernLeft = z;
kernRight = z;
lastChange = "2022-09-01 20:49:33 +0000";
layers = (
{
anchors = (
{
name = bottom;
pos = (177,0);
},
{
name = center;
pos = (177,255);
},
{
name = top;
pos = (203,510);
}
);
background = {
shapes = (
{
closed = 1;
nodes = (
(385,0,ls),
(400,0,o),
(409,4,o),
(413,13,cs),
(447,119,ls),
(450,127,o),
(443,132,o),
(434,132,cs),
(423,132,o),
(420,128,o),
(414,122,cs),
(374,70,ls),
(347,35,o),
(317,20,o),
(214,20,cs),
(155,20,ls),
(135,20,o),
(131,26,o),
(139,35,cs),
(432,341,ls),
(440,349,o),
(446,355,o),
(446,359,cs),
(446,364,o),
(440,369,o),
(425,369,cs),
(156,369,ls),
(106,369,o),
(123,386,o),
(99,386,cs),
(87,386,o),
(79,382,o),
(76,369,cs),
(44,270,ls),
(41,264,o),
(46,259,o),
(56,259,cs),
(66,259,o),
(71,263,o),
(77,269,cs),
(106,302,ls),
(132,332,o),
(167,348,o),
(266,348,cs),
(312,348,ls),
(329,348,o),
(336,342,o),
(328,334,cs),
(33,27,ls),
(25,19,o),
(20,13,o),
(20,9,cs),
(20,4,o),
(25,0,o),
(39,0,cs)
);
}
);
};
layerId = m01;
shapes = (
{
closed = 1;
nodes = (
(385,0,ls),
(400,0,o),
(409,4,o),
(413,13,cs),
(447,119,ls),
(450,127,o),
(443,132,o),
(434,132,cs),
(423,132,o),
(420,128,o),
(414,122,cs),
(374,70,ls),
(347,33,o),
(316,19,o),
(213,19,cs),
(153,19,ls),
(133,19,o),
(130,26,o),
(138,33,cs),
(432,341,ls),
(440,349,o),
(446,355,o),
(446,359,cs),
(446,364,o),
(440,369,o),
(425,369,cs),
(161,369,ls),
(112,369,o),
(129,386,o),
(105,386,cs),
(92,386,o),
(85,382,o),
(80,369,cs),
(49,270,ls),
(46,264,o),
(52,259,o),
(62,259,cs),
(71,259,o),
(77,263,o),
(82,269,cs),
(112,302,ls),
(138,332,o),
(172,349,o),
(258,349,cs),
(314,349,ls),
(331,349,o),
(337,343,o),
(329,335,cs),
(33,27,ls),
(25,19,o),
(20,13,o),
(20,9,cs),
(20,4,o),
(25,0,o),
(39,0,cs)
);
}
);
width = 467;
}
);
unicode = 122;
},
{
glyphname = a.ss01;
kernLeft = a;
kernRight = a;
lastChange = "2022-08-27 16:36:11 +0000";
layers = (
{
background = {
shapes = (
{
closed = 1;
nodes = (
(223,-7,o),
(263,10,o),
(306,42,cs),
(317,51,o),
(334,51,o),
(336,41,cs),
(344,15,o),
(369,-7,o),
(412,-7,cs),
(468,-7,o),
(521,23,o),
(521,94,cs),
(521,102,o),
(514,105,o),
(505,105,cs),
(496,105,o),
(488,102,o),
(488,94,cs),
(488,54,o),
(465,38,o),
(442,38,cs),
(424,38,o),
(414,48,o),
(414,69,cs),
(414,290,ls),
(414,346,o),
(368,373,o),
(283,373,cs),
(170,373,o),
(41,313,o),
(41,257,cs),
(41,243,o),
(55,236,o),
(78,236,cs),
(107,236,o),
(141,249,o),
(151,280,cs),
(167,331,o),
(205,351,o),
(250,351,cs),
(294,351,o),
(324,333,o),
(324,286,cs),
(324,127,ls),
(324,70,o),
(262,26,o),
(194,26,cs),
(151,26,o),
(126,44,o),
(126,76,cs),
(126,134,o),
(205,174,o),
(336,195,c),
(336,214,l),
(160,187,o),
(32,128,o),
(32,64,cs),
(32,21,o),
(85,-7,o),
(159,-7,cs)
);
}
);
};
layerId = m01;
shapes = (
{
closed = 1;
nodes = (
(223,-7,o),
(263,10,o),
(306,42,cs),
(317,51,o),
(334,51,o),
(336,41,cs),
(345,7,o),
(363,-7,o),
(409,-7,cs),
(455,-7,o),
(493,14,o),
(493,26,cs),
(493,29,o),
(489,31,o),
(483,31,cs),
(473,31,o),
(465,24,o),
(444,24,cs),
(423,24,o),
(414,31,o),
(414,48,cs),
(414,290,ls),
(414,346,o),
(368,373,o),
(283,373,cs),
(170,373,o),
(41,313,o),
(41,257,cs),
(41,243,o),
(55,236,o),
(78,236,cs),
(107,236,o),
(141,249,o),
(151,280,cs),
(167,331,o),
(205,351,o),
(250,351,cs),
(294,351,o),
(324,333,o),
(324,286,cs),
(324,221,ls),
(324,215,o),
(319,211,o),
(307,209,cs),
(147,180,o),
(32,125,o),
(32,64,cs),
(32,21,o),
(85,-7,o),
(159,-7,cs)
);
},
{
closed = 1;
nodes = (
(151,26,o),
(126,44,o),
(126,76,cs),
(126,128,o),
(189,166,o),
(297,187,cs),
(314,190,o),
(324,187,o),
(324,179,cs),
(324,127,ls),
(324,70,o),
(262,26,o),
(194,26,cs)
);
}
);
width = 514;
}
);
},
{
glyphname = c.ss01;
kernLeft = o;
kernRight = c;
lastChange = "2022-08-27 16:33:08 +0000";
layers = (
{
anchors = (
{
name = bottom;
pos = (182,0);
},
{
name = top;
pos = (208,510);
}
);
background = {
shapes = (
{
closed = 1;
nodes = (
(325,-7,o),
(388,19,o),
(417,121,cs),
(421,129,o),
(416,135,o),
(406,135,cs),
(397,135,o),
(393,133,o),
(390,128,cs),
(360,54,o),
(321,31,o),
(259,31,cs),
(182,31,o),
(129,82,o),
(129,185,cs),
(129,307,o),
(197,354,o),
(250,354,cs),
(294,354,o),
(325,334,o),
(362,254,cs),
(365,248,o),
(371,245,o),
(381,245,cs),
(389,245,o),
(397,248,o),
(397,256,cs),
(394,344,ls),
(394,352,o),
(390,356,o),
(381,360,cs),
(355,369,o),
(328,373,o),
(285,373,cs),
(141,373,o),
(30,293,o),
(30,171,cs),
(30,60,o),
(122,-7,o),
(238,-7,cs)
);
}
);
};
layerId = m01;
shapes = (
{
closed = 1;
nodes = (
(340,-7,o),
(394,27,o),
(417,82,cs),
(421,88,o),
(417,94,o),
(407,94,cs),
(399,94,o),
(394,91,o),
(391,86,cs),
(368,46,o),
(324,26,o),
(270,26,cs),
(182,26,o),
(129,82,o),
(129,185,cs),
(129,307,o),
(197,354,o),
(250,354,cs),
(294,354,o),
(325,334,o),
(362,254,cs),
(365,248,o),
(371,245,o),
(381,245,cs),
(389,245,o),
(397,248,o),
(397,256,cs),
(394,344,ls),
(394,352,o),
(390,356,o),
(381,360,cs),
(355,369,o),
(328,373,o),
(285,373,cs),
(141,373,o),
(30,293,o),
(30,171,cs),
(30,60,o),
(122,-7,o),
(245,-7,cs)
);
}
);
width = 448;
}
);
},
{
glyphname = d.ss01;
kernLeft = o;
kernRight = d;
lastChange = "2022-08-27 16:36:33 +0000";
layers = (
{
anchors = (
{
name = bottom;
pos = (223,0);
},
{
name = center;
pos = (223,255);
},
{
name = top;
pos = (223,740);
},
{
name = topright;
pos = (402,740);
}
);
background = {
shapes = (
{
closed = 1;
nodes = (
(294,-7,o),
(329,4,o),
(370,34,cs),
(394,51,l),
(406,51,l),
(400,122,l),
(400,69,o),
(336,26,o),
(268,26,cs),
(186,26,o),
(138,80,o),
(138,178,cs),
(138,286,o),
(204,354,o),
(302,354,cs),
(361,354,o),
(400,328,o),
(400,285,c),
(451,347,l),
(431,347,l),
(391,365,o),
(351,373,o),
(307,373,cs),
(152,373,o),
(39,289,o),
(39,168,cs),
(39,64,o),
(122,-7,o),
(239,-7,cs)
);
},
{
closed = 1;
nodes = (
(545,-7,o),
(598,23,o),
(598,94,cs),
(598,102,o),
(591,105,o),
(582,105,cs),
(573,105,o),
(565,102,o),
(565,94,cs),
(565,54,o),
(540,38,o),
(519,38,cs),
(501,38,o),
(491,48,o),
(491,69,cs),
(491,523,ls),
(491,531,o),
(485,535,o),
(476,535,cs),
(468,535,o),
(459,532,o),
(444,527,cs),
(422,519,o),
(389,512,o),
(334,506,cs),
(324,505,o),
(319,502,o),
(319,497,cs),
(319,493,o),
(324,489,o),
(334,489,cs),
(368,486,ls),
(393,484,o),
(400,479,o),
(400,462,cs),
(400,53,ls),
(400,15,o),
(440,-7,o),
(489,-7,cs)
);
}
);
};
layerId = m01;
shapes = (
{
closed = 1;
nodes = (
(298,-7,o),
(332,4,o),
(381,42,cs),
(390,49,o),
(405,50,o),
(407,41,cs),
(416,7,o),
(440,-7,o),
(485,-7,cs),
(540,-7,o),
(576,18,o),
(576,30,cs),
(576,33,o),
(573,36,o),
(566,36,cs),
(555,36,o),
(545,24,o),
(520,24,cs),
(500,24,o),
(491,31,o),
(491,48,cs),
(491,523,ls),
(491,531,o),
(485,535,o),
(476,535,cs),
(468,535,o),
(459,532,o),
(444,527,cs),
(422,519,o),
(389,512,o),
(334,506,cs),
(324,505,o),
(319,502,o),
(319,497,cs),
(319,493,o),
(324,489,o),
(334,489,cs),
(368,486,ls),
(393,484,o),
(400,479,o),
(400,462,cs),
(400,370,ls),
(400,363,o),
(393,361,o),
(379,365,cs),
(355,371,o),
(332,373,o),
(307,373,cs),
(152,373,o),
(39,289,o),
(39,168,cs),
(39,64,o),
(122,-7,o),
(239,-7,cs)
);
},
{
closed = 1;
nodes = (
(186,26,o),
(138,80,o),
(138,178,cs),
(138,286,o),
(204,354,o),
(302,354,cs),
(361,354,o),
(400,328,o),
(400,285,cs),
(400,122,ls),
(400,69,o),
(336,26,o),
(268,26,cs)
);
}
);
width = 590;
}
);
},
{
glyphname = dcroat.ss01;
kernLeft = o;
kernRight = d;
lastChange = "2022-08-27 16:34:48 +0000";
layers = (
{
layerId = m01;
shapes = (
{
ref = d.ss01;
},
{
closed = 1;
nodes = (
(565,417,ls),
(573,417,o),
(578,421,o),
(578,425,cs),
(578,431,ls),
(578,435,o),
(573,438,o),
(565,438,cs),
(201,438,ls),
(193,438,o),
(187,435,o),
(187,431,cs),
(187,425,ls),
(187,421,o),
(193,417,o),
(201,417,cs)
);
}
);
width = 605;
}
);
},
{
glyphname = e.ss01;
kernLeft = o;
kernRight = e;
lastChange = "2022-08-27 16:36:41 +0000";
layers = (
{
anchors = (
{
name = bottom;
pos = (178,0);
},
{
name = ogonek;
pos = (266,10);
},
{
name = top;
pos = (178,510);
}
);
background = {
shapes = (
{
closed = 1;
nodes = (
(405,197,ls),
(436,197,o),
(436,200,o),
(436,246,cs),
(436,326,o),
(363,373,o),
(263,373,cs),
(145,373,o),
(30,309,o),
(30,175,cs),
(30,66,o),
(117,-7,o),
(270,-7,cs),
(336,-7,o),
(398,16,o),
(424,52,cs),
(432,64,o),
(439,76,o),
(439,89,cs),
(439,98,o),
(435,99,o),
(431,99,cs),
(421,99,o),
(417,88,o),
(407,72,cs),
(388,43,o),
(346,26,o),
(283,26,cs),
(186,26,o),
(121,88,o),
(121,182,cs),
(121,192,o),
(129,197,o),
(152,197,cs)
);
},
{
closed = 1;
nodes = (
(124,237,ls),
(124,302,o),
(182,354,o),
(256,354,cs),
(316,354,o),
(360,321,o),
(360,267,cs),
(360,245,o),
(354,236,o),
(343,230,cs),
(334,227,o),
(302,223,o),
(256,221,cs),
(236,220,o),
(212,219,o),
(184,219,cs),
(126,219,o),
(124,223,o),
(124,236,cs)
);
}
);
};
layerId = m01;
shapes = (
{
closed = 1;
nodes = (
(356,-7,o),
(408,27,o),
(432,75,cs),
(435,81,o),
(432,87,o),
(422,87,cs),
(414,87,o),
(408,84,o),
(405,79,cs),
(382,46,o),
(344,26,o),
(282,26,cs),
(183,26,o),
(125,82,o),
(125,184,cs),
(125,196,o),
(135,200,o),
(152,200,cs),
(404,200,ls),
(425,200,o),
(436,209,o),
(436,224,cs),
(436,329,o),
(365,373,o),
(262,373,cs),
(131,373,o),
(30,293,o),
(30,180,cs),
(30,68,o),
(126,-7,o),
(258,-7,cs)
);
},
{
closed = 1;
nodes = (
(135,218,o),
(126,223,o),
(129,230,cs),
(141,309,o),
(192,354,o),
(261,354,cs),
(316,354,o),
(345,317,o),
(345,254,cs),
(345,229,o),
(325,218,o),
(282,218,cs),
(148,218,ls)
);
}
);
width = 469;
}
);
},
{
glyphname = g.ss01;
kernLeft = g;
kernRight = g;
lastChange = "2022-08-27 16:37:06 +0000";
layers = (
{
anchors = (
{
name = bottom;
pos = (198,-205);
},
{
name = top;
pos = (198,510);
}
);
background = {
shapes = (
{
closed = 1;
nodes = (
(388,-156,o),
(509,-104,o),
(509,-33,cs),
(509,26,o),
(430,63,o),
(302,63,cs),
(205,63,ls),
(162,63,o),
(140,71,o),
(140,87,cs),
(140,104,o),
(164,113,o),
(224,122,cs),
(304,133,ls),
(396,147,o),
(457,193,o),
(457,252,cs),
(457,290,o),
(430,323,o),
(389,344,c),
(389,348,l),
(480,348,ls),
(494,348,o),
(504,352,o),
(504,359,cs),
(504,365,o),
(494,369,o),
(480,369,cs),
(353,369,ls),
(314,369,o),
(298,373,o),
(261,373,cs),
(150,373,o),
(62,320,o),
(62,254,cs),
(62,201,o),
(122,153,o),
(205,139,c),
(205,136,l),
(156,128,ls),
(95,120,o),
(55,98,o),
(55,71,cs),
(55,48,o),
(85,31,o),
(140,19,c),
(140,14,l),
(109,6,ls),
(49,-12,o),
(18,-36,o),
(18,-67,cs),
(18,-122,o),
(102,-156,o),
(236,-156,cs)
);
},
{
closed = 1;
nodes = (
(98,-16,o),
(183,19,o),
(248,19,cs),
(291,19,ls),
(376,19,o),
(424,-6,o),
(424,-49,cs),
(424,-102,o),
(346,-139,o),
(251,-139,cs),
(153,-139,o),
(98,-113,o),
(98,-59,cs)
);
},
{
closed = 1;
nodes = (
(156,315,o),
(197,357,o),
(259,357,cs),
(321,357,o),
(362,315,o),
(362,253,cs),
(362,189,o),
(323,148,o),
(259,148,cs),
(195,148,o),
(156,189,o),
(156,253,cs)
);
}
);
};
guides = (
{
pos = (124,26);
}
);
layerId = m01;
shapes = (
{
closed = 1;
nodes = (
(404,-156,o),
(526,-104,o),
(526,-33,cs),
(526,26,o),
(446,63,o),
(319,63,cs),
(189,63,ls),
(151,63,o),
(139,80,o),
(175,103,cs),
(208,122,o),
(229,130,o),
(261,130,cs),
(371,130,o),
(457,182,o),
(457,252,cs),
(457,282,o),
(439,310,o),
(409,331,cs),
(405,335,o),
(406,338,o),
(415,340,cs),
(486,349,ls),
(499,350,o),
(504,354,o),
(504,360,cs),
(504,365,o),
(497,369,o),
(484,369,cs),
(367,369,ls),
(308,369,o),
(298,373,o),
(261,373,cs),
(150,373,o),
(62,320,o),
(62,254,cs),
(62,208,o),
(107,169,o),
(159,150,cs),
(179,143,o),
(183,133,o),
(162,122,cs),
(86,88,ls),
(44,68,o),
(56,42,o),
(121,28,cs),
(141,23,o),
(141,13,o),
(121,3,cs),
(30,-41,o),
(18,-55,o),
(18,-80,cs),
(18,-122,o),
(102,-156,o),
(236,-156,cs)
);
},
{
closed = 1;
nodes = (
(98,-51,o),
(105,-33,o),
(153,-4,cs),
(185,14,o),
(205,19,o),
(261,19,cs),
(307,19,ls),
(391,19,o),
(440,-6,o),
(440,-49,cs),
(440,-102,o),
(362,-139,o),
(251,-139,cs),
(153,-139,o),
(98,-111,o),
(98,-71,cs)
);
},
{
closed = 1;
nodes = (
(156,315,o),
(197,357,o),
(259,357,cs),
(321,357,o),
(362,315,o),
(362,253,cs),
(362,189,o),
(323,148,o),
(259,148,cs),
(195,148,o),
(156,189,o),
(156,253,cs)
);
}
);
width = 522;
}
);
},
{
glyphname = f_b;
kernLeft = f;
kernRight = o;
lastChange = "2023-02-22 10:41:05 +0000";
layers = (
{
anchors = (
{
name = bottom_1;
pos = (179,0);
},
{
name = bottom_2;
pos = (537,0);
},
{
name = caret_1;
pos = (358,0);
},
{
name = top_1;
pos = (179,740);
},
{
name = top_2;
pos = (537,740);
}
);
background = {
shapes = (
{
closed = 1;
nodes = (
(113,28,o),
(105,20,o),
(68,18,cs),
(34,17,ls),
(23,16,o),
(17,12,o),
(17,8,cs),
(17,3,o),
(24,0,o),
(37,0,cs),
(312,0,ls),
(325,0,o),
(332,3,o),
(332,8,cs),
(332,13,o),
(327,16,o),
(317,17,cs),
(247,20,ls),
(210,22,o),
(202,28,o),
(202,48,cs),
(202,340,ls),
(202,344,o),
(209,348,o),
(218,348,cs),
(332,348,ls),
(343,348,o),
(352,352,o),
(352,359,cs),
(352,365,o),
(343,369,o),
(332,369,cs),
(218,369,ls),
(209,369,o),
(202,372,o),
(202,377,cs),
(202,440,ls),
(202,500,o),
(223,518,o),
(259,518,cs),
(325,518,o),
(294,456,o),
(367,456,cs),
(394,456,o),
(413,466,o),
(413,484,cs),
(413,515,o),
(359,541,o),
(289,541,cs),
(175,541,o),
(113,473,o),
(113,398,cs),
(113,393,ls),
(113,377,o),
(91,366,o),
(51,364,cs),
(39,363,o),
(34,360,o),
(34,355,cs),
(34,351,o),
(41,348,o),
(51,348,cs),
(80,348,ls),
(100,348,o),
(113,342,o),
(113,331,cs),
(113,48,ls)
);
},
{
closed = 1;
nodes = (
(802,-7,o),
(914,77,o),
(914,198,cs),
(914,303,o),
(827,373,o),
(705,373,cs),
(658,373,o),
(619,363,o),
(581,341,cs),
(566,333,o),
(553,337,o),
(553,344,cs),
(553,523,ls),
(553,531,o),
(547,535,o),
(538,535,cs),
(530,535,o),
(521,532,o),
(506,527,cs),
(484,519,o),
(451,512,o),
(402,506,cs),
(393,505,o),
(388,502,o),
(388,497,cs),
(388,493,o),
(393,489,o),
(402,489,cs),
(430,486,ls),
(455,484,o),
(462,479,o),
(462,462,cs),
(462,116,ls),
(462,58,o),
(459,26,o),
(452,3,cs),
(450,-3,o),
(453,-7,o),
(462,-7,cs),
(470,-7,o),
(478,-4,o),
(496,7,cs),
(512,18,o),
(528,20,o),
(549,12,cs),
(583,-1,o),
(616,-7,o),
(653,-7,cs)
);
},
{
closed = 1;
nodes = (
(592,12,o),
(553,38,o),
(553,82,cs),
(553,264,ls),
(553,312,o),
(603,340,o),
(664,340,cs),
(760,340,o),
(816,286,o),
(816,188,cs),
(816,80,o),
(750,12,o),
(651,12,cs)
);
}
);
};
layerId = m01;
shapes = (
{
closed = 1;
nodes = (
(451,-7,o),
(459,-4,o),
(476,7,cs),
(492,18,o),
(508,20,o),
(529,12,cs),
(564,-1,o),
(597,-7,o),
(634,-7,cs),
(782,-7,o),
(894,77,o),
(894,198,cs),
(894,303,o),
(807,373,o),
(685,373,cs),
(637,373,o),
(599,363,o),
(561,341,cs),
(546,333,o),
(532,337,o),
(532,344,cs),
(532,523,ls),
(532,531,o),
(528,537,o),
(515,537,cs),
(500,537,o),
(494,532,o),
(484,514,cs),
(480,508,o),
(469,507,o),
(461,513,cs),
(430,530,o),
(389,541,o),
(338,541,cs),
(194,541,o),
(113,473,o),
(113,398,cs),
(113,393,ls),
(113,377,o),
(91,366,o),
(51,364,cs),
(39,363,o),
(34,360,o),
(34,355,cs),
(34,351,o),
(41,348,o),
(51,348,cs),
(80,348,ls),
(100,348,o),
(113,342,o),
(113,331,cs),
(113,48,ls),
(113,28,o),
(105,20,o),
(61,18,cs),
(34,17,ls),
(23,16,o),
(17,12,o),
(17,8,cs),
(17,3,o),
(24,0,o),
(37,0,cs),
(268,0,ls),
(282,0,o),
(289,3,o),
(289,8,cs),
(289,13,o),
(283,16,o),
(274,17,cs),
(240,19,ls),
(210,21,o),
(202,28,o),
(202,48,cs),
(202,340,ls),
(202,344,o),
(209,348,o),
(218,348,cs),
(332,348,ls),
(343,348,o),
(352,352,o),
(352,359,cs),
(352,365,o),
(343,369,o),
(332,369,cs),
(218,369,ls),
(209,369,o),
(202,372,o),
(202,377,cs),
(202,427,ls),
(202,500,o),
(262,523,o),
(328,523,cs),
(414,523,o),
(443,484,o),
(443,438,cs),
(443,116,ls),
(443,58,o),
(439,26,o),
(432,3,cs),
(430,-3,o),
(434,-7,o),
(443,-7,cs)
);
},
{
closed = 1;
nodes = (
(573,12,o),
(532,38,o),
(532,82,cs),
(532,264,ls),
(532,312,o),
(583,340,o),
(644,340,cs),
(741,340,o),
(796,286,o),
(796,188,cs),
(796,80,o),
(730,12,o),
(631,12,cs)
);
}
);
width = 946;
}
);
metricLeft = f;
metricRight = b;
},
{
glyphname = f_f_i;
lastChange = "2023-02-22 10:41:05 +0000";
layers = (
{
anchors = (
{
name = caret_1;
pos = (242.333,0);
},
{
name = caret_2;
pos = (484.667,0);
}
);
background = {
shapes = (
{
closed = 1;
nodes = (
(599,0,ls),
(612,0,o),
(619,3,o),
(619,8,cs),
(619,13,o),
(614,16,o),
(605,17,cs),
(572,19,ls),
(540,21,o),
(532,28,o),
(532,48,cs),
(532,340,ls),
(532,344,o),
(539,348,o),
(549,348,cs),
(752,348,ls),
(765,348,o),
(770,344,o),
(770,338,cs),
(770,48,ls),
(770,28,o),
(764,22,o),
(720,18,cs),
(704,17,ls),
(691,15,o),
(687,12,o),
(687,8,cs),
(687,3,o),
(693,0,o),
(706,0,cs),
(927,0,ls),
(941,0,o),
(946,3,o),
(946,8,cs),
(946,13,o),
(942,16,o),
(933,17,cs),
(899,19,ls),
(869,21,o),
(861,28,o),
(861,48,cs),
(861,351,ls),
(861,362,o),
(849,369,o),
(829,369,cs),
(549,369,ls),
(539,369,o),
(532,372,o),
(532,377,cs),
(532,427,ls),
(532,500,o),
(592,519,o),
(659,519,cs),
(760,519,o),
(737,452,o),
(811,452,cs),
(848,452,o),
(864,465,o),
(864,483,cs),
(864,513,o),
(792,541,o),
(685,541,cs),
(559,541,o),
(480,499,o),
(452,445,c),
(443,445,l),
(443,48,ls),
(443,28,o),
(435,20,o),
(391,18,cs),
(365,17,ls),
(353,16,o),
(347,12,o),
(347,8,cs),
(347,3,o),
(354,0,o),
(368,0,cs)
);
},
{
closed = 1;
nodes = (
(504,460,l),
(467,506,o),
(415,526,o),
(338,526,cs),
(194,526,o),
(113,458,o),
(113,398,cs),
(113,393,ls),
(113,377,o),
(91,366,o),
(51,364,cs),
(39,363,o),
(34,360,o),
(34,355,cs),
(34,351,o),
(41,348,o),
(51,348,cs),
(80,348,ls),
(100,348,o),
(113,342,o),
(113,331,cs),
(113,48,ls),
(113,28,o),
(105,20,o),
(61,18,cs),
(34,17,ls),
(23,16,o),
(17,12,o),
(17,8,cs),
(17,3,o),
(24,0,o),
(37,0,cs),
(268,0,ls),
(282,0,o),
(289,3,o),
(289,8,cs),
(289,13,o),
(283,16,o),
(274,17,cs),
(240,19,ls),
(210,21,o),
(202,28,o),
(202,48,cs),
(202,340,ls),
(202,344,o),
(209,348,o),
(218,348,cs),
(460,348,ls),
(470,348,o),
(480,352,o),
(480,359,cs),
(480,365,o),
(470,369,o),
(460,369,cs),
(218,369,ls),
(209,369,o),
(202,372,o),
(202,377,cs),
(202,427,ls),
(202,485,o),
(262,508,o),
(328,508,cs),
(414,508,o),
(443,470,o),
(443,423,c)
);
}
);
};
layerId = m01;
shapes = (
{
closed = 1;
nodes = (
(268,0,ls),
(282,0,o),
(289,3,o),
(289,8,cs),
(289,13,o),
(283,16,o),
(274,17,cs),
(240,19,ls),
(210,21,o),
(202,28,o),
(202,48,cs),
(202,340,ls),
(202,344,o),
(209,348,o),
(218,348,cs),
(427,348,ls),
(436,348,o),
(443,344,o),
(443,340,cs),
(443,48,ls),
(443,28,o),
(435,20,o),
(391,18,cs),
(365,17,ls),
(353,16,o),
(347,12,o),
(347,8,cs),
(347,3,o),
(354,0,o),
(368,0,cs),
(599,0,ls),
(612,0,o),
(619,3,o),
(619,8,cs),
(619,13,o),
(614,16,o),
(605,17,cs),
(572,19,ls),
(540,21,o),
(532,28,o),
(532,48,cs),
(532,340,ls),
(532,344,o),
(539,348,o),
(549,348,cs),
(752,348,ls),
(765,348,o),
(770,344,o),
(770,338,cs),
(770,48,ls),
(770,28,o),
(764,22,o),
(720,18,cs),
(704,17,ls),
(691,15,o),
(687,12,o),
(687,8,cs),
(687,3,o),
(693,0,o),
(706,0,cs),
(927,0,ls),
(941,0,o),
(946,3,o),
(946,8,cs),
(946,13,o),
(942,16,o),
(933,17,cs),
(899,19,ls),
(869,21,o),
(861,28,o),
(861,48,cs),
(861,351,ls),
(861,362,o),
(849,369,o),
(829,369,cs),
(549,369,ls),
(539,369,o),
(532,372,o),
(532,377,cs),
(532,427,ls),
(532,500,o),
(592,519,o),
(659,519,cs),
(760,519,o),
(737,452,o),
(811,452,cs),
(848,452,o),
(864,465,o),
(864,483,cs),
(864,513,o),
(792,541,o),
(685,541,cs),
(599,541,o),
(535,521,o),
(493,491,cs),
(486,486,o),
(478,486,o),
(473,491,cs),
(438,515,o),
(396,526,o),
(338,526,cs),
(194,526,o),
(113,458,o),
(113,398,cs),
(113,393,ls),
(113,377,o),
(91,366,o),
(51,364,cs),
(39,363,o),
(34,360,o),
(34,355,cs),
(34,351,o),
(41,348,o),
(51,348,cs),
(80,348,ls),
(100,348,o),
(113,342,o),
(113,331,cs),
(113,48,ls),
(113,28,o),
(105,20,o),
(61,18,cs),
(34,17,ls),
(23,16,o),
(17,12,o),
(17,8,cs),
(17,3,o),
(24,0,o),
(37,0,cs)
);
},
{
closed = 1;
nodes = (
(209,369,o),
(202,372,o),
(202,377,cs),
(202,427,ls),
(202,485,o),
(262,508,o),
(328,508,cs),
(414,508,o),
(443,470,o),
(443,423,cs),
(443,377,ls),
(443,372,o),
(436,369,o),
(427,369,cs),
(218,369,ls)
);
}
);
width = 961;
}
);
metricLeft = f;
metricRight = i;
},
{
glyphname = f_f_l;
lastChange = "2023-02-22 10:41:05 +0000";
layers = (
{
anchors = (
{
name = caret_1;
pos = (243.667,0);
},
{
name = caret_2;
pos = (487.333,0);
}
);
background = {
shapes = (
{
closed = 1;
nodes = (
(473,491,l),
(438,515,o),
(396,526,o),
(338,526,cs),
(194,526,o),
(113,458,o),
(113,398,cs),
(113,393,ls),
(113,377,o),
(91,366,o),
(51,364,cs),
(39,363,o),
(34,360,o),
(34,355,cs),
(34,351,o),
(41,348,o),
(51,348,cs),
(80,348,ls),
(100,348,o),
(113,342,o),
(113,331,cs),
(113,48,ls),
(113,28,o),
(105,20,o),
(61,18,cs),
(34,17,ls),
(23,16,o),
(17,12,o),
(17,8,cs),
(17,3,o),
(24,0,o),
(37,0,cs),
(268,0,ls),
(282,0,o),
(289,3,o),
(289,8,cs),
(289,13,o),
(283,16,o),
(274,17,cs),
(240,19,ls),
(210,21,o),
(202,28,o),
(202,48,cs),
(202,340,ls),
(202,344,o),
(209,348,o),
(218,348,cs),
(427,348,ls),
(436,348,o),
(443,344,o),
(443,340,cs),
(443,48,ls),
(443,28,o),
(435,20,o),
(391,18,cs),
(365,17,ls),
(353,16,o),
(347,12,o),
(347,8,cs),
(347,3,o),
(354,0,o),
(368,0,cs),
(599,0,ls),
(612,0,o),
(619,3,o),
(619,8,cs),
(619,13,o),
(614,16,o),
(605,17,cs),
(572,19,ls),
(540,21,o),
(532,28,o),
(532,48,cs),
(532,340,ls),
(532,344,o),
(539,348,o),
(549,348,cs),
(662,348,ls),
(673,348,o),
(682,352,o),
(682,359,cs),
(682,365,o),
(673,369,o),
(662,369,cs),
(549,369,ls),
(539,369,o),
(532,372,o),
(532,377,cs),
(532,427,ls),
(532,500,o),
(592,523,o),
(659,523,cs),
(744,523,o),
(774,484,o),
(774,438,cs),
(774,48,ls),
(774,28,o),
(757,21,o),
(720,18,cs),
(702,17,ls),
(691,16,o),
(687,12,o),
(687,8,cs),
(687,3,o),
(693,0,o),
(703,0,cs),
(937,0,ls),
(946,0,o),
(953,3,o),
(953,8,cs),
(953,13,o),
(949,16,o),
(938,17,cs),
(908,19,ls),
(872,22,o),
(864,28,o),
(864,48,cs),
(864,523,ls),
(864,531,o),
(858,537,o),
(846,537,cs),
(830,537,o),
(826,532,o),
(814,514,cs),
(811,508,o),
(800,507,o),
(792,513,cs),
(760,530,o),
(720,541,o),
(669,541,cs),
(558,541,o),
(484,500,o),
(457,447,c),
(443,447,l),
(443,377,ls),
(443,372,o),
(436,369,o),
(427,369,cs),
(218,369,ls),
(209,369,o),
(202,372,o),
(202,377,cs),
(202,427,ls),
(202,485,o),
(262,508,o),
(328,508,cs),
(414,508,o),
(443,470,o),
(443,423,c)
);
}
);
};
layerId = m01;
shapes = (
{
closed = 1;
nodes = (
(268,0,ls),
(282,0,o),
(289,3,o),
(289,8,cs),
(289,13,o),
(283,16,o),
(274,17,cs),
(240,19,ls),
(210,21,o),
(202,28,o),
(202,48,cs),
(202,340,ls),
(202,344,o),
(209,348,o),
(218,348,cs),
(427,348,ls),
(436,348,o),
(443,344,o),
(443,340,cs),
(443,48,ls),
(443,28,o),
(435,20,o),
(391,18,cs),
(365,17,ls),
(353,16,o),
(347,12,o),
(347,8,cs),
(347,3,o),
(354,0,o),
(368,0,cs),
(599,0,ls),
(612,0,o),
(619,3,o),
(619,8,cs),
(619,13,o),
(614,16,o),
(605,17,cs),
(572,19,ls),
(540,21,o),
(532,28,o),
(532,48,cs),
(532,340,ls),
(532,344,o),
(539,348,o),
(549,348,cs),
(662,348,ls),
(673,348,o),
(682,352,o),
(682,359,cs),
(682,365,o),
(673,369,o),
(662,369,cs),
(549,369,ls),
(539,369,o),
(532,372,o),
(532,377,cs),
(532,427,ls),
(532,500,o),
(592,523,o),
(659,523,cs),
(744,523,o),
(774,484,o),
(774,438,cs),
(774,48,ls),
(774,28,o),
(757,21,o),
(720,18,cs),
(702,17,ls),
(691,16,o),
(687,12,o),
(687,8,cs),
(687,3,o),
(693,0,o),
(703,0,cs),
(937,0,ls),
(946,0,o),
(953,3,o),
(953,8,cs),
(953,13,o),
(949,16,o),
(938,17,cs),
(908,19,ls),
(872,22,o),
(864,28,o),
(864,48,cs),
(864,523,ls),
(864,531,o),
(858,537,o),
(846,537,cs),
(830,537,o),
(826,532,o),
(814,514,cs),
(811,508,o),
(800,507,o),
(792,513,cs),
(760,530,o),
(720,541,o),
(669,541,cs),
(591,541,o),
(532,521,o),
(494,491,cs),
(488,486,o),
(480,486,o),
(474,491,cs),
(439,515,o),
(396,526,o),
(338,526,cs),
(194,526,o),
(113,458,o),
(113,398,cs),
(113,393,ls),
(113,377,o),
(91,366,o),
(51,364,cs),
(39,363,o),
(34,360,o),
(34,355,cs),
(34,351,o),
(41,348,o),
(51,348,cs),
(80,348,ls),
(100,348,o),
(113,342,o),
(113,331,cs),
(113,48,ls),
(113,28,o),
(105,20,o),
(61,18,cs),
(34,17,ls),
(23,16,o),
(17,12,o),
(17,8,cs),
(17,3,o),
(24,0,o),
(37,0,cs)
);
},
{
closed = 1;
nodes = (
(209,369,o),
(202,372,o),
(202,377,cs),
(202,427,ls),
(202,485,o),
(262,508,o),
(328,508,cs),
(414,508,o),
(443,470,o),
(443,423,cs),
(443,377,ls),
(443,372,o),
(436,369,o),
(427,369,cs),
(218,369,ls)
);
}
);
width = 967;
}
);
metricLeft = f;
metricRight = l;
},
{
glyphname = f_h;
kernLeft = f;
kernRight = n;
lastChange = "2023-02-22 10:41:05 +0000";
layers = (
{
anchors = (
{
name = bottom_1;
pos = (183,0);
},
{
name = bottom_2;
pos = (548,0);
},
{
name = caret_1;
pos = (365.5,0);
},
{
name = top_1;
pos = (183,740);
},
{
name = top_2;
pos = (548,740);
}
);
background = {
shapes = (
{
closed = 1;
nodes = (
(113,28,o),
(105,20,o),
(68,18,cs),
(34,17,ls),
(23,16,o),
(17,12,o),
(17,8,cs),
(17,3,o),
(24,0,o),
(37,0,cs),
(312,0,ls),
(325,0,o),
(332,3,o),
(332,8,cs),
(332,13,o),
(327,16,o),
(317,17,cs),
(247,20,ls),
(210,22,o),
(202,28,o),
(202,48,cs),
(202,340,ls),
(202,344,o),
(209,348,o),
(218,348,cs),
(332,348,ls),
(343,348,o),
(352,352,o),
(352,359,cs),
(352,365,o),
(343,369,o),
(332,369,cs),
(218,369,ls),
(209,369,o),
(202,372,o),
(202,377,cs),
(202,440,ls),
(202,500,o),
(223,518,o),
(259,518,cs),
(325,518,o),
(294,456,o),
(367,456,cs),
(394,456,o),
(413,466,o),
(413,484,cs),
(413,515,o),
(359,541,o),
(289,541,cs),
(175,541,o),
(113,473,o),
(113,398,cs),
(113,393,ls),
(113,377,o),
(91,366,o),
(51,364,cs),
(39,363,o),
(34,360,o),
(34,355,cs),
(34,351,o),
(41,348,o),
(51,348,cs),
(80,348,ls),
(100,348,o),
(113,342,o),
(113,331,cs),
(113,48,ls)
);
},
{
closed = 1;
nodes = (
(649,0,ls),
(658,0,o),
(664,3,o),
(664,8,cs),
(664,13,o),
(659,16,o),
(650,17,cs),
(614,19,ls),
(576,21,o),
(568,28,o),
(568,48,cs),
(568,242,ls),
(568,295,o),
(634,340,o),
(718,340,cs),
(776,340,o),
(810,322,o),
(810,275,cs),
(810,48,ls),
(810,28,o),
(802,21,o),
(765,18,cs),
(746,17,ls),
(737,16,o),
(731,12,o),
(731,8,cs),
(731,3,o),
(737,0,o),
(750,0,cs),
(972,0,ls),
(981,0,o),
(988,3,o),
(988,8,cs),
(988,13,o),
(982,16,o),
(973,17,cs),
(944,19,ls),
(907,22,o),
(899,28,o),
(899,48,cs),
(899,283,ls),
(899,342,o),
(848,373,o),
(766,373,cs),
(708,373,o),
(662,362,o),
(597,329,cs),
(581,320,o),
(568,323,o),
(568,332,cs),
(568,523,ls),
(568,531,o),
(564,535,o),
(554,535,cs),
(546,535,o),
(537,532,o),
(522,527,cs),
(500,519,o),
(467,512,o),
(417,506,cs),
(408,505,o),
(404,502,o),
(404,497,cs),
(404,493,o),
(408,489,o),
(417,489,cs),
(446,486,ls),
(470,484,o),
(478,479,o),
(478,462,cs),
(478,48,ls),
(478,28,o),
(470,21,o),
(434,18,cs),
(415,17,ls),
(406,16,o),
(400,12,o),
(400,8,cs),
(400,3,o),
(407,0,o),
(416,0,cs)
);
}
);
};
layerId = m01;
shapes = (
{
closed = 1;
nodes = (
(268,0,ls),
(282,0,o),
(289,3,o),
(289,8,cs),
(289,13,o),
(283,16,o),
(274,17,cs),
(240,19,ls),
(210,21,o),
(202,28,o),
(202,48,cs),
(202,340,ls),
(202,344,o),
(209,348,o),
(218,348,cs),
(332,348,ls),
(343,348,o),
(352,352,o),
(352,359,cs),
(352,365,o),
(343,369,o),
(332,369,cs),
(218,369,ls),
(209,369,o),
(202,372,o),
(202,377,cs),
(202,427,ls),
(202,500,o),
(262,523,o),
(328,523,cs),
(414,523,o),
(443,484,o),
(443,438,cs),
(443,48,ls),
(443,28,o),
(435,21,o),
(398,18,cs),
(379,17,ls),
(370,16,o),
(365,12,o),
(365,8,cs),
(365,3,o),
(371,0,o),
(381,0,cs),
(612,0,ls),
(621,0,o),
(628,3,o),
(628,8,cs),
(628,13,o),
(623,16,o),
(614,17,cs),
(578,19,ls),
(540,21,o),
(532,28,o),
(532,48,cs),
(532,242,ls),
(532,295,o),
(598,340,o),
(682,340,cs),
(741,340,o),
(774,322,o),
(774,275,cs),
(774,48,ls),
(774,28,o),
(766,21,o),
(729,18,cs),
(711,17,ls),
(702,16,o),
(696,12,o),
(696,8,cs),
(696,3,o),
(702,0,o),
(714,0,cs),
(936,0,ls),
(945,0,o),
(952,3,o),
(952,8,cs),
(952,13,o),
(946,16,o),
(937,17,cs),
(908,19,ls),
(872,22,o),
(864,28,o),
(864,48,cs),
(864,283,ls),
(864,342,o),
(812,373,o),
(730,373,cs),
(673,373,o),
(627,362,o),
(561,329,cs),
(545,320,o),
(532,323,o),
(532,332,cs),
(532,523,ls),
(532,531,o),
(528,537,o),
(515,537,cs),
(500,537,o),
(494,532,o),
(484,514,cs),
(480,508,o),
(469,507,o),
(461,513,cs),
(430,530,o),
(389,541,o),
(338,541,cs),
(194,541,o),
(113,473,o),
(113,398,cs),
(113,393,ls),
(113,377,o),
(91,366,o),
(51,364,cs),
(39,363,o),
(34,360,o),
(34,355,cs),
(34,351,o),
(41,348,o),
(51,348,cs),
(80,348,ls),
(100,348,o),
(113,342,o),
(113,331,cs),
(113,48,ls),
(113,28,o),
(105,20,o),
(61,18,cs),
(34,17,ls),
(23,16,o),
(17,12,o),
(17,8,cs),
(17,3,o),
(24,0,o),
(37,0,cs)
);
}
);
width = 967;
}
);
metricLeft = f;
metricRight = h;
},
{
glyphname = f_i;
kernLeft = f;
kernRight = i;
lastChange = "2023-02-22 10:41:05 +0000";
layers = (
{
anchors = (
{
name = bottom_1;
pos = (119,0);
},
{
name = bottom_2;
pos = (358,0);
},
{
name = caret_1;
pos = (238.5,0);
},
{
name = top_1;
pos = (119,740);
},
{
name = top_2;
pos = (358,740);
}
);
background = {
shapes = (
{
closed = 1;
nodes = (
(113,28,o),
(105,20,o),
(68,18,cs),
(34,17,ls),
(23,16,o),
(17,12,o),
(17,8,cs),
(17,3,o),
(24,0,o),
(37,0,cs),
(312,0,ls),
(325,0,o),
(332,3,o),
(332,8,cs),
(332,13,o),
(327,16,o),
(317,17,cs),
(247,20,ls),
(210,22,o),
(202,28,o),
(202,48,cs),
(202,340,ls),
(202,344,o),
(209,348,o),
(218,348,cs),
(332,348,ls),
(343,348,o),
(352,352,o),
(352,359,cs),
(352,365,o),
(343,369,o),
(332,369,cs),
(218,369,ls),
(209,369,o),
(202,372,o),
(202,377,cs),
(202,440,ls),
(202,500,o),
(223,518,o),
(259,518,cs),
(325,518,o),
(294,456,o),
(367,456,cs),
(394,456,o),
(413,466,o),
(413,484,cs),
(413,515,o),
(359,541,o),
(289,541,cs),
(175,541,o),
(113,473,o),
(113,398,cs),
(113,393,ls),
(113,377,o),
(91,366,o),
(51,364,cs),
(39,363,o),
(34,360,o),
(34,355,cs),
(34,351,o),
(41,348,o),
(51,348,cs),
(80,348,ls),
(100,348,o),
(113,342,o),
(113,331,cs),
(113,48,ls)
);
},
{
closed = 1;
nodes = (
(605,0,ls),
(618,0,o),
(624,3,o),
(624,8,cs),
(624,13,o),
(619,16,o),
(610,17,cs),
(576,19,ls),
(546,21,o),
(538,28,o),
(538,48,c),
(538,362,ls),
(538,368,o),
(535,371,o),
(527,371,cs),
(520,371,o),
(514,369,o),
(506,364,cs),
(475,348,o),
(446,337,o),
(391,333,cs),
(377,332,o),
(370,330,o),
(370,325,cs),
(370,320,o),
(374,318,o),
(388,317,cs),
(415,315,ls),
(440,313,o),
(448,309,o),
(448,292,cs),
(448,48,ls),
(448,28,o),
(440,22,o),
(397,18,cs),
(381,17,ls),
(369,15,o),
(363,12,o),
(363,8,cs),
(363,3,o),
(370,0,o),
(384,0,cs)
);
},
{
closed = 1;
nodes = (
(531,437,o),
(559,453,o),
(559,475,cs),
(559,498,o),
(531,513,o),
(494,513,cs),
(458,513,o),
(429,498,o),
(429,475,cs),
(429,453,o),
(458,437,o),
(494,437,cs)
);
}
);
};
layerId = m01;
shapes = (
{
closed = 1;
nodes = (
(268,0,ls),
(282,0,o),
(289,3,o),
(289,8,cs),
(289,13,o),
(283,16,o),
(274,17,cs),
(240,19,ls),
(210,21,o),
(202,28,o),
(202,48,cs),
(202,340,ls),
(202,344,o),
(209,348,o),
(218,348,cs),
(422,348,ls),
(434,348,o),
(440,344,o),
(440,338,cs),
(440,48,ls),
(440,28,o),
(432,22,o),
(389,18,cs),
(373,17,ls),
(361,15,o),
(355,12,o),
(355,8,cs),
(355,3,o),
(362,0,o),
(376,0,cs),
(597,0,ls),
(610,0,o),
(616,3,o),
(616,8,cs),
(616,13,o),
(611,16,o),
(601,17,cs),
(568,19,ls),
(538,21,o),
(530,28,o),
(530,48,cs),
(530,351,ls),
(530,362,o),
(519,369,o),
(499,369,cs),
(218,369,ls),
(209,369,o),
(202,372,o),
(202,377,cs),
(202,427,ls),
(202,500,o),
(262,519,o),
(328,519,cs),
(430,519,o),
(406,452,o),
(480,452,cs),
(518,452,o),
(532,465,o),
(532,483,cs),
(532,513,o),
(461,541,o),
(354,541,cs),
(194,541,o),
(113,473,o),
(113,398,cs),
(113,393,ls),
(113,377,o),
(91,366,o),
(51,364,cs),
(39,363,o),
(34,360,o),
(34,355,cs),
(34,351,o),
(41,348,o),
(51,348,cs),
(80,348,ls),
(100,348,o),
(113,342,o),
(113,331,cs),
(113,48,ls),
(113,28,o),
(105,20,o),
(61,18,cs),
(34,17,ls),
(23,16,o),
(17,12,o),
(17,8,cs),
(17,3,o),
(24,0,o),
(37,0,cs)
);
}
);
width = 631;
}
);
metricLeft = f;
metricRight = i;
},
{
glyphname = f_l;
kernLeft = f;
kernRight = l;
lastChange = "2023-02-22 10:41:05 +0000";
layers = (
{
anchors = (
{
name = bottom_1;
pos = (120,0);
},
{
name = bottom_2;
pos = (361,0);
},
{
name = caret_1;
pos = (240.5,0);
},
{
name = top_1;
pos = (120,740);
},
{
name = top_2;
pos = (361,740);
}
);
layerId = m01;
shapes = (
{
closed = 1;
nodes = (
(268,0,ls),
(282,0,o),
(289,3,o),
(289,8,cs),
(289,13,o),
(283,16,o),
(274,17,cs),
(240,19,ls),
(210,21,o),
(202,28,o),
(202,48,cs),
(202,340,ls),
(202,344,o),
(209,348,o),
(218,348,cs),
(332,348,ls),
(343,348,o),
(352,352,o),
(352,359,cs),
(352,365,o),
(343,369,o),
(332,369,cs),
(218,369,ls),
(209,369,o),
(202,372,o),
(202,377,cs),
(202,427,ls),
(202,500,o),
(262,523,o),
(328,523,cs),
(414,523,o),
(443,484,o),
(443,438,cs),
(443,48,ls),
(443,28,o),
(425,21,o),
(389,18,cs),
(370,17,ls),
(361,16,o),
(355,12,o),
(355,8,cs),
(355,3,o),
(362,0,o),
(371,0,cs),
(607,0,ls),
(616,0,o),
(623,3,o),
(623,8,cs),
(623,13,o),
(618,16,o),
(608,17,cs),
(578,19,ls),
(540,22,o),
(532,28,o),
(532,48,cs),
(532,523,ls),
(532,531,o),
(528,537,o),
(515,537,cs),
(500,537,o),
(494,532,o),
(484,514,cs),
(480,508,o),
(469,507,o),
(461,513,cs),
(430,530,o),
(389,541,o),
(338,541,cs),
(194,541,o),
(113,473,o),
(113,398,cs),
(113,393,ls),
(113,377,o),
(91,366,o),
(51,364,cs),
(39,363,o),
(34,360,o),
(34,355,cs),
(34,351,o),
(41,348,o),
(51,348,cs),
(80,348,ls),
(100,348,o),
(113,342,o),
(113,331,cs),
(113,48,ls),
(113,28,o),
(105,20,o),
(61,18,cs),
(34,17,ls),
(23,16,o),
(17,12,o),
(17,8,cs),
(17,3,o),
(24,0,o),
(37,0,cs)
);
}
);
width = 636;
}
);
metricLeft = f;
metricRight = l;
},
{
glyphname = q_j;
lastChange = "2023-02-22 10:41:05 +0000";
layers = (
{
anchors = (
{
name = bottom_1;
pos = (164,0);
},
{
name = bottom_2;
pos = (493,0);
},
{
name = caret_1;
pos = (328.5,0);
},
{
name = top_1;
pos = (164,510);
},
{
name = top_2;
pos = (493,510);
}
);
layerId = m01;
shapes = (
{
closed = 1;
nodes = (
(459,-148,ls),
(478,-148,o),
(491,-142,o),
(491,-131,cs),
(491,251,ls),
(491,309,o),
(494,341,o),
(501,363,cs),
(504,369,o),
(500,373,o),
(491,373,cs),
(483,373,o),
(475,371,o),
(458,360,cs),
(442,348,o),
(425,346,o),
(405,354,cs),
(370,367,o),
(343,373,o),
(307,373,cs),
(152,373,o),
(39,289,o),
(39,168,cs),
(39,64,o),
(122,-7,o),
(239,-7,cs),
(294,-7,o),
(329,4,o),
(373,36,cs),
(385,44,o),
(400,41,o),
(400,32,cs),
(400,-99,ls),
(400,-120,o),
(393,-125,o),
(355,-128,cs),
(307,-132,ls),
(298,-133,o),
(292,-135,o),
(292,-139,cs),
(292,-145,o),
(299,-148,o),
(312,-148,cs)
);
},
{
closed = 1;
nodes = (
(186,26,o),
(138,80,o),
(138,178,cs),
(138,286,o),
(204,354,o),
(302,354,cs),
(361,354,o),
(400,328,o),
(400,285,cs),
(400,122,ls),
(400,69,o),
(336,26,o),
(268,26,cs)
);
},
{
closed = 1;
nodes = (
(705,-156,o),
(779,-84,o),
(779,31,cs),
(779,362,ls),
(779,368,o),
(775,371,o),
(767,371,cs),
(760,371,o),
(756,369,o),
(747,364,cs),
(715,348,o),
(687,337,o),
(632,333,cs),
(618,332,o),
(611,330,o),
(611,325,cs),
(611,320,o),
(615,318,o),
(628,317,cs),
(656,315,ls),
(681,313,o),
(689,309,o),
(689,292,cs),
(689,-65,ls),
(689,-104,o),
(670,-127,o),
(637,-127,cs),
(590,-127,o),
(608,-86,o),
(553,-86,cs),
(521,-86,o),
(501,-99,o),
(501,-116,cs),
(501,-139,o),
(538,-156,o),
(590,-156,cs)
);
},
{
closed = 1;
nodes = (
(773,437,o),
(800,453,o),
(800,475,cs),
(800,497,o),
(774,513,o),
(735,513,cs),
(697,513,o),
(669,497,o),
(669,475,cs),
(669,454,o),
(697,437,o),
(735,437,cs)
);
}
);
width = 869;
}
);
metricLeft = q;
metricRight = j;
},
{
glyphname = ordfeminine;
lastChange = "2022-08-18 20:35:28 +0000";
layers = (
{
layerId = m01;
shapes = (
{
closed = 1;
nodes = (
(198,263,o),
(230,274,o),
(264,296,cs),
(274,303,o),
(288,302,o),
(289,296,cs),
(294,277,o),
(315,263,o),
(350,263,cs),
(394,263,o),
(436,282,o),
(436,332,cs),
(436,338,o),
(431,343,o),
(421,343,cs),
(409,343,o),
(405,338,o),
(405,332,cs),
(405,304,o),
(391,293,o),
(373,293,cs),
(360,293,o),
(351,300,o),
(351,315,cs),
(351,469,ls),
(351,508,o),
(314,527,o),
(246,527,cs),
(156,527,o),
(53,485,o),
(53,446,cs),
(53,437,o),
(68,431,o),
(85,431,cs),
(115,431,o),
(131,441,o),
(140,463,cs),
(153,495,o),
(184,508,o),
(220,508,cs),
(255,508,o),
(279,496,o),
(279,464,cs),
(279,425,ls),
(279,422,o),
(275,417,o),
(266,416,cs),
(138,397,o),
(45,358,o),
(45,311,cs),
(45,281,o),
(87,263,o),
(147,263,cs)
);
},
{
closed = 1;
nodes = (
(140,290,o),
(122,302,o),
(122,322,cs),
(122,357,o),
(170,382,o),
(256,398,cs),
(271,400,o),
(279,398,o),
(279,393,cs),
(279,360,ls),
(279,320,o),
(229,290,o),
(176,290,cs)
);
}
);
width = 482;
}
);
unicode = 170;
},
{
glyphname = ordmasculine;
lastChange = "2022-08-18 20:36:01 +0000";
layers = (
{
layerId = m01;
shapes = (
{
closed = 1;
nodes = (
(352,263,o),
(434,320,o),
(434,395,cs),
(434,469,o),
(351,527,o),
(244,527,cs),
(138,527,o),
(53,469,o),
(53,395,cs),
(53,320,o),
(136,263,o),
(244,263,cs)
);
},
{
closed = 1;
nodes = (
(169,280,o),
(133,319,o),
(133,395,cs),
(133,471,o),
(169,510,o),
(244,510,cs),
(317,510,o),
(354,471,o),
(354,395,cs),
(354,319,o),
(319,280,o),
(244,280,cs)
);
}
);
width = 486;
}
);
metricLeft = O;
metricRight = O;
unicode = 186;
},
{
glyphname = zero;
lastChange = "2022-08-31 19:16:14 +0000";
layers = (
{
background = {
shapes = (
{
closed = 1;
nodes = (
(47,260,ls),
(47,71,o),
(192,-7,o),
(302,-7,cs),
(414,-7,o),
(558,71,o),
(558,260,cs),
(558,450,o),
(414,527,o),
(302,527,cs),
(192,527,o),
(47,450,o),
(47,261,cs)
);
},
{
closed = 1;
nodes = (
(155,260,ls),
(155,438,o),
(198,508,o),
(302,508,cs),
(407,508,o),
(451,438,o),
(451,260,cs),
(451,82,o),
(407,12,o),
(302,12,cs),
(198,12,o),
(155,82,o),
(155,259,cs)
);
}
);
};
layerId = m01;
shapes = (
{
closed = 1;
nodes = (
(458,-7,o),
(561,110,o),
(561,261,cs),
(561,411,o),
(458,527,o),
(304,527,cs),
(150,527,o),
(47,411,o),
(47,261,cs),
(47,110,o),
(150,-7,o),
(304,-7,cs)
);
},
{
closed = 1;
nodes = (
(193,13,o),
(143,94,o),
(143,261,cs),
(143,427,o),
(193,508,o),
(304,508,cs),
(415,508,o),
(466,427,o),
(466,261,cs),
(466,94,o),
(415,13,o),
(304,13,cs)
);
}
);
width = 608;
}
);
unicode = 48;
},
{
glyphname = one;
lastChange = "2022-08-31 19:17:48 +0000";
layers = (
{
layerId = m01;
shapes = (
{
closed = 1;
nodes = (
(297,0,ls),
(309,0,o),
(316,3,o),
(316,8,cs),
(316,12,o),
(310,16,o),
(299,17,cs),
(255,20,ls),
(218,22,o),
(208,27,o),
(208,48,cs),
(208,515,ls),
(208,526,o),
(198,531,o),
(179,531,cs),
(159,531,o),
(121,521,o),
(28,513,cs),
(12,511,o),
(7,507,o),
(7,502,cs),
(7,496,o),
(15,492,o),
(30,493,cs),
(78,496,ls),
(105,497,o),
(123,494,o),
(123,477,cs),
(123,48,ls),
(123,27,o),
(113,22,o),
(76,20,cs),
(24,17,ls),
(12,16,o),
(7,12,o),
(7,8,cs),
(7,3,o),
(14,0,o),
(26,0,cs)
);
}
);
width = 608;
}
);
unicode = 49;
},
{
glyphname = two;
lastChange = "2022-08-31 19:14:36 +0000";
layers = (
{
background = {
shapes = (
{
closed = 1;
nodes = (
(477,400,ls),
(477,480,o),
(398,527,o),
(259,527,cs),
(107,527,o),
(32,456,o),
(32,391,cs),
(32,378,o),
(39,377,o),
(47,377,cs),
(60,377,o),
(69,381,o),
(69,393,cs),
(69,432,o),
(116,499,o),
(228,499,cs),
(317,499,o),
(369,465,o),
(369,398,cs),
(369,335,o),
(336,275,o),
(197,159,cs),
(153,122,o),
(109,86,o),
(68,50,cs),
(59,41,o),
(28,19,o),
(28,10,cs),
(28,3,o),
(36,1,o),
(43,1,cs),
(351,1,ls),
(371,1,o),
(391,-1,o),
(413,-2,cs),
(438,-3,o),
(461,-3,o),
(465,-3,cs),
(482,-3,o),
(488,1,o),
(488,16,cs),
(488,128,ls),
(488,149,o),
(482,153,o),
(473,153,cs),
(457,153,o),
(457,144,o),
(447,118,cs),
(432,75,o),
(394,60,o),
(317,54,cs),
(279,51,o),
(228,50,o),
(161,50,cs),
(129,50,o),
(117,51,o),
(117,56,cs),
(117,62,o),
(140,81,o),
(153,93,cs),
(197,129,o),
(248,163,o),
(293,198,cs),
(368,256,o),
(477,325,o),
(477,399,cs)
);
}
);
};
guides = (
{
pos = (82,730);
}
);
layerId = m01;
shapes = (
{
closed = 1;
nodes = (
(451,0,ls),
(470,0,o),
(483,6,o),
(484,17,cs),
(500,152,ls),
(501,161,o),
(493,165,o),
(484,165,cs),
(474,165,o),
(467,162,o),
(465,156,cs),
(452,122,ls),
(430,58,o),
(386,43,o),
(285,43,cs),
(144,43,ls),
(125,43,o),
(114,51,o),
(124,60,cs),
(228,144,ls),
(371,264,o),
(477,338,o),
(477,414,cs),
(477,484,o),
(393,527,o),
(271,527,cs),
(164,527,o),
(52,495,o),
(33,400,cs),
(32,392,o),
(38,386,o),
(51,386,cs),
(61,386,o),
(68,388,o),
(70,398,cs),
(89,468,o),
(167,498,o),
(251,498,cs),
(336,498,o),
(382,465,o),
(382,406,cs),
(382,340,o),
(327,264,o),
(194,155,cs),
(36,22,ls),
(29,17,o),
(26,14,o),
(26,9,cs),
(26,3,o),
(34,0,o),
(51,0,cs)
);
}
);
width = 608;
}
);
unicode = 50;
},
{
glyphname = three;
lastChange = "2022-08-31 19:18:42 +0000";
layers = (
{
background = {
shapes = (
{
closed = 1;
nodes = (
(452,180,ls),
(452,268,o),
(353,319,o),
(246,319,cs),
(221,319,o),
(204,315,o),
(194,315,cs),
(191,315,o),
(189,315,o),
(189,318,cs),
(189,320,o),
(198,324,o),
(213,330,cs),
(232,338,o),
(267,352,o),
(310,373,cs),
(369,400,o),
(398,427,o),
(398,458,cs),
(398,505,o),
(331,527,o),
(247,527,cs),
(100,527,o),
(61,447,o),
(61,430,cs),
(61,424,o),
(64,420,o),
(74,420,cs),
(87,420,o),
(89,437,o),
(106,457,cs),
(129,484,o),
(169,503,o),
(217,503,cs),
(276,503,o),
(302,484,o),
(302,450,cs),
(302,392,o),
(228,360,o),
(151,321,cs),
(123,308,o),
(97,292,o),
(70,278,cs),
(63,275,o),
(56,269,o),
(56,264,cs),
(56,259,o),
(60,258,o),
(68,258,cs),
(74,258,o),
(80,260,o),
(89,263,cs),
(109,272,o),
(141,288,o),
(192,288,cs),
(288,288,o),
(365,241,o),
(365,154,cs),
(365,74,o),
(288,11,o),
(186,11,cs),
(148,11,o),
(131,14,o),
(122,34,cs),
(114,51,o),
(108,70,o),
(69,70,cs),
(47,70,o),
(28,60,o),
(28,42,cs),
(28,17,o),
(74,-7,o),
(161,-7,cs),
(343,-7,o),
(452,95,o),
(452,180,cs)
);
}
);
};
layerId = m01;
shapes = (
{
closed = 1;
nodes = (
(320,-7,o),
(451,78,o),
(451,171,cs),
(451,258,o),
(365,319,o),
(245,319,cs),
(230,319,o),
(213,317,o),
(200,315,cs),
(191,314,o),
(187,319,o),
(194,321,cs),
(224,333,ls),
(342,377,o),
(396,416,o),
(396,455,cs),
(396,498,o),
(337,527,o),
(248,527,cs),
(145,527,o),
(70,489,o),
(59,429,cs),
(56,422,o),
(63,416,o),
(74,416,cs),
(85,416,o),
(92,421,o),
(94,427,cs),
(107,474,o),
(156,503,o),
(223,503,cs),
(275,503,o),
(306,482,o),
(306,446,cs),
(306,414,o),
(271,382,o),
(194,343,cs),
(99,294,ls),
(87,287,o),
(83,281,o),
(89,277,cs),
(95,272,o),
(106,273,o),
(121,279,cs),
(145,288,o),
(175,292,o),
(210,292,cs),
(307,292,o),
(355,246,o),
(355,153,cs),
(355,70,o),
(288,13,o),
(186,13,cs),
(90,13,o),
(140,70,o),
(74,70,cs),
(46,70,o),
(26,60,o),
(26,43,cs),
(26,13,o),
(86,-7,o),
(178,-7,cs)
);
}
);
width = 608;
}
);
unicode = 51;
},
{
glyphname = four;
lastChange = "2022-08-31 19:18:03 +0000";
layers = (
{
background = {
shapes = (
{
closed = 1;
nodes = (
(482,0,ls),
(494,0,o),
(501,3,o),
(501,8,cs),
(501,12,o),
(496,15,o),
(484,17,cs),
(453,20,ls),
(416,23,o),
(408,27,o),
(408,48,cs),
(408,364,ls),
(408,372,o),
(398,374,o),
(386,371,cs),
(337,355,ls),
(329,353,o),
(324,349,o),
(324,344,cs),
(324,48,ls),
(324,29,o),
(316,24,o),
(279,21,cs),
(222,17,ls),
(210,16,o),
(205,12,o),
(205,8,cs),
(205,3,o),
(212,0,o),
(224,0,cs)
);
},
{
closed = 1;
nodes = (
(14,171,l),
(14,151,l),
(501,151,l),
(501,192,l),
(39,192,l)
);
},
{
closed = 1;
nodes = (
(14,171,l),
(53,171,l),
(402,520,l),
(362,520,l)
);
}
);
};
layerId = m01;
shapes = (
{
closed = 1;
nodes = (
(482,0,ls),
(494,0,o),
(501,3,o),
(501,8,cs),
(501,12,o),
(496,15,o),
(484,17,cs),
(453,20,ls),
(416,23,o),
(408,27,o),
(408,48,cs),
(408,142,ls),
(408,148,o),
(415,151,o),
(427,151,cs),
(485,151,ls),
(494,151,o),
(501,156,o),
(501,161,cs),
(501,184,ls),
(501,189,o),
(494,192,o),
(485,192,cs),
(427,192,ls),
(415,192,o),
(408,196,o),
(408,202,cs),
(408,364,ls),
(408,372,o),
(398,374,o),
(386,371,cs),
(337,355,ls),
(329,353,o),
(324,349,o),
(324,344,cs),
(324,202,ls),
(324,196,o),
(317,192,o),
(306,192,cs),
(95,192,ls),
(83,192,o),
(79,196,o),
(85,202,cs),
(402,508,ls),
(408,515,o),
(405,520,o),
(390,520,cs),
(363,520,ls),
(354,520,o),
(346,518,o),
(343,513,cs),
(25,182,ls),
(17,173,o),
(14,169,o),
(14,164,cs),
(14,156,o),
(23,151,o),
(38,151,cs),
(306,151,ls),
(317,151,o),
(324,148,o),
(324,142,cs),
(324,48,ls),
(324,29,o),
(316,24,o),
(279,21,cs),
(222,17,ls),
(210,16,o),
(205,12,o),
(205,8,cs),
(205,3,o),
(212,0,o),
(224,0,cs)
);
}
);
width = 608;
}
);
unicode = 52;
},
{
glyphname = five;
lastChange = "2022-08-31 19:18:50 +0000";
layers = (
{
background = {
shapes = (
{
closed = 1;
nodes = (
(314,-7,o),
(461,56,o),
(461,173,cs),
(461,268,o),
(361,340,o),
(141,348,c),
(147,326,l),
(202,486,l),
(172,520,l),
(95,301,l),
(290,294,o),
(367,253,o),
(367,157,cs),
(367,50,o),
(273,13,o),
(189,13,cs),
(86,13,o),
(117,70,o),
(56,70,cs),
(30,70,o),
(14,60,o),
(14,45,cs),
(14,11,o),
(102,-7,o),
(175,-7,cs)
);
},
{
closed = 1;
nodes = (
(451,477,l),
(470,514,ls),
(476,524,o),
(474,531,o),
(458,531,cs),
(439,531,o),
(425,520,o),
(342,520,cs),
(172,520,l),
(182,477,l)
);
}
);
};
layerId = m01;
shapes = (
{
closed = 1;
nodes = (
(314,-7,o),
(461,56,o),
(461,166,cs),
(461,256,o),
(371,333,o),
(164,346,cs),
(151,347,o),
(145,349,o),
(148,357,cs),
(186,468,ls),
(189,474,o),
(195,477,o),
(206,477,cs),
(424,477,ls),
(435,477,o),
(442,479,o),
(444,485,cs),
(465,523,ls),
(468,531,o),
(467,538,o),
(452,538,cs),
(431,538,o),
(430,520,o),
(386,520,cs),
(178,520,ls),
(168,520,o),
(161,518,o),
(159,511,cs),
(89,311,ls),
(86,304,o),
(92,301,o),
(105,300,cs),
(294,292,o),
(367,242,o),
(367,150,cs),
(367,50,o),
(273,13,o),
(189,13,cs),
(86,13,o),
(117,70,o),
(56,70,cs),
(30,70,o),
(14,60,o),
(14,45,cs),
(14,11,o),
(102,-7,o),
(175,-7,cs)
);
}
);
width = 608;
}
);
unicode = 53;
},
{
glyphname = six;
lastChange = "2022-08-31 19:18:12 +0000";
layers = (
{
background = {
shapes = (
{
closed = 1;
nodes = (
(397,-7,o),
(497,71,o),
(497,166,cs),
(497,260,o),
(405,330,o),
(281,330,cs),
(209,330,o),
(152,309,o),
(122,272,c),
(155,281,l),
(192,404,o),
(290,477,o),
(462,508,cs),
(473,510,o),
(477,513,o),
(477,518,cs),
(477,524,o),
(469,529,o),
(452,527,cs),
(227,497,o),
(47,347,o),
(47,189,cs),
(47,72,o),
(139,-7,o),
(273,-7,cs)
);
},
{
closed = 1;
nodes = (
(186,13,o),
(143,60,o),
(143,157,cs),
(143,258,o),
(189,311,o),
(279,311,cs),
(363,311,o),
(402,264,o),
(402,162,cs),
(402,60,o),
(361,13,o),
(274,13,cs)
);
}
);
};
layerId = m01;
shapes = (
{
closed = 1;
nodes = (
(397,-7,o),
(497,71,o),
(497,166,cs),
(497,260,o),
(405,330,o),
(281,330,cs),
(245,330,o),
(212,325,o),
(184,314,cs),
(174,310,o),
(166,312,o),
(169,320,cs),
(214,419,o),
(308,480,o),
(462,508,cs),
(473,510,o),
(477,513,o),
(477,518,cs),
(477,524,o),
(469,529,o),
(452,527,cs),
(227,497,o),
(47,347,o),
(47,189,cs),
(47,72,o),
(139,-7,o),
(273,-7,cs)
);
},
{
closed = 1;
nodes = (
(179,13,o),
(135,60,o),
(135,157,cs),
(135,258,o),
(183,311,o),
(275,311,cs),
(362,311,o),
(402,264,o),
(402,162,cs),
(402,60,o),
(360,13,o),
(270,13,cs)
);
}
);
width = 608;
}
);
unicode = 54;
},
{
glyphname = seven;
lastChange = "2022-08-31 19:19:00 +0000";
layers = (
{
background = {
shapes = (
{
closed = 1;
nodes = (
(178,0,l),
(476,506,l),
(438,506,l),
(109,0,l)
);
},
{
closed = 1;
nodes = (
(59,459,o),
(60,477,o),
(103,477,cs),
(434,477,l),
(476,506,l),
(476,520,l),
(64,520,ls),
(54,520,o),
(47,518,o),
(45,512,cs),
(25,474,ls),
(21,466,o),
(23,459,o),
(37,459,cs)
);
}
);
};
layerId = m01;
shapes = (
{
closed = 1;
nodes = (
(164,0,ls),
(174,0,o),
(179,3,o),
(183,8,cs),
(466,488,ls),
(474,502,o),
(476,507,o),
(476,512,cs),
(476,517,o),
(470,520,o),
(458,520,cs),
(64,520,ls),
(54,520,o),
(47,518,o),
(45,512,cs),
(25,474,ls),
(21,466,o),
(23,459,o),
(37,459,cs),
(59,459,o),
(60,477,o),
(103,477,cs),
(397,477,ls),
(409,477,o),
(415,473,o),
(412,465,cs),
(116,11,ls),
(113,4,o),
(118,0,o),
(131,0,cs)
);
}
);
width = 608;
}
);
unicode = 55;
},
{
glyphname = eight;
lastChange = "2022-08-31 19:16:02 +0000";
layers = (
{
background = {
shapes = (
{
closed = 1;
nodes = (
(153,13,o),
(109,66,o),
(109,122,cs),
(109,185,o),
(160,233,o),
(263,263,c),
(248,273,l),
(108,241,o),
(25,190,o),
(25,124,cs),
(25,60,o),
(122,-7,o),
(284,-7,cs),
(432,-7,o),
(547,54,o),
(547,134,cs),
(547,196,o),
(485,243,o),
(323,292,cs),
(172,338,o),
(141,379,o),
(141,427,cs),
(141,475,o),
(205,508,o),
(300,508,cs),
(396,508,o),
(442,472,o),
(442,416,cs),
(442,363,o),
(397,317,o),
(312,292,c),
(327,282,l),
(443,309,o),
(523,357,o),
(523,414,cs),
(523,479,o),
(427,527,o),
(304,527,cs),
(174,527,o),
(60,479,o),
(60,407,cs),
(60,354,o),
(126,296,o),
(264,258,cs),
(415,216,o),
(466,166,o),
(466,109,cs),
(466,51,o),
(398,13,o),
(288,13,cs)
);
}
);
};
layerId = m01;
shapes = (
{
closed = 1;
nodes = (
(425,-7,o),
(536,54,o),
(536,134,cs),
(536,190,o),
(486,235,o),
(359,280,cs),
(347,283,o),
(347,288,o),
(359,292,cs),
(452,320,o),
(513,364,o),
(513,414,cs),
(513,479,o),
(421,527,o),
(302,527,cs),
(178,527,o),
(70,479,o),
(70,407,cs),
(70,361,o),
(116,312,o),
(215,275,cs),
(224,272,o),
(224,267,o),
(214,264,cs),
(102,231,o),
(37,184,o),
(37,124,cs),
(37,60,o),
(130,-7,o),
(284,-7,cs)
);
},
{
closed = 1;
nodes = (
(160,13,o),
(117,66,o),
(117,122,cs),
(117,180,o),
(159,224,o),
(239,255,cs),
(251,259,o),
(262,259,o),
(274,255,cs),
(378,222,o),
(458,182,o),
(458,109,cs),
(458,51,o),
(393,13,o),
(288,13,cs)
);
},
{
closed = 1;
nodes = (
(174,343,o),
(148,382,o),
(148,427,cs),
(148,475,o),
(209,508,o),
(300,508,cs),
(390,508,o),
(435,472,o),
(435,416,cs),
(435,369,o),
(399,326,o),
(334,301,cs),
(321,296,o),
(310,296,o),
(299,300,cs)
);
}
);
width = 608;
}
);
unicode = 56;
},
{
glyphname = nine;
lastChange = "2022-08-31 19:19:08 +0000";
layers = (
{
background = {
shapes = (
{
closed = 1;
nodes = (
(319,24,o),
(484,152,o),
(484,332,cs),
(484,449,o),
(393,527,o),
(259,527,cs),
(135,527,o),
(34,450,o),
(34,363,cs),
(34,275,o),
(126,206,o),
(251,206,cs),
(323,206,o),
(379,227,o),
(409,264,c),
(377,254,l),
(351,118,o),
(256,43,o),
(108,13,cs),
(99,11,o),
(94,8,o),
(94,3,cs),
(94,-3,o),
(102,-8,o),
(118,-6,cs)
);
},
{
closed = 1;
nodes = (
(168,224,o),
(130,271,o),
(130,366,cs),
(130,460,o),
(170,508,o),
(258,508,cs),
(345,508,o),
(389,460,o),
(389,371,cs),
(389,277,o),
(343,224,o),
(253,224,cs)
);
}
);
};
layerId = m01;
shapes = (
{
closed = 1;
nodes = (
(319,24,o),
(484,152,o),
(484,332,cs),
(484,449,o),
(393,527,o),
(259,527,cs),
(135,527,o),
(34,450,o),
(34,363,cs),
(34,275,o),
(126,206,o),
(251,206,cs),
(290,206,o),
(324,212,o),
(352,224,cs),
(362,228,o),
(370,225,o),
(368,218,cs),
(334,105,o),
(244,41,o),
(108,13,cs),
(99,11,o),
(94,8,o),
(94,3,cs),
(94,-3,o),
(102,-8,o),
(118,-6,cs)
);
},
{
closed = 1;
nodes = (
(130,460,o),
(170,508,o),
(258,508,cs),
(345,508,o),
(389,460,o),
(389,371,cs),
(389,277,o),
(343,224,o),
(253,224,cs),
(168,224,o),
(130,271,o),
(130,366,cs)
);
}
);
width = 608;
}
);
unicode = 57;
},
{
glyphname = .notdef;
lastChange = "2023-03-17 07:45:31 +0000";
layers = (
{
layerId = m01;
shapes = (
{
closed = 1;
nodes = (
(641,-94,ls),
(646,-94,o),
(651,-92,o),
(651,-88,cs),
(651,565,ls),
(651,569,o),
(646,571,o),
(641,571,cs),
(156,571,ls),
(150,571,o),
(145,569,o),
(145,565,cs),
(145,-88,ls),
(145,-92,o),
(150,-94,o),
(156,-94,cs)
);
},
{
closed = 1;
nodes = (
(187,547,l),
(608,547,l),
(608,-71,l),
(187,-71,l)
);
}
);
width = 796;
}
);
},
{
glyphname = period;
kernLeft = period;
kernRight = period;
lastChange = "2022-08-31 20:12:01 +0000";
layers = (
{
layerId = m01;
shapes = (
{
closed = 1;
nodes = (
(177,-7,o),
(210,8,o),
(210,31,cs),
(210,54,o),
(177,70,o),
(141,70,cs),
(102,70,o),
(71,54,o),
(71,31,cs),
(71,8,o),
(102,-7,o),
(141,-7,cs)
);
}
);
width = 282;
}
);
unicode = 46;
},
{
glyphname = comma;
kernLeft = period;
kernRight = period;
lastChange = "2022-08-31 20:13:38 +0000";
layers = (
{
layerId = m01;
shapes = (
{
closed = 1;
nodes = (
(167,-81,o),
(215,-31,o),
(215,21,cs),
(215,51,o),
(187,70,o),
(144,70,cs),
(107,70,o),
(80,55,o),
(80,36,cs),
(80,2,o),
(150,5,o),
(150,-26,cs),
(150,-51,o),
(131,-74,o),
(79,-102,cs),
(69,-108,o),
(69,-113,o),
(76,-116,cs),
(82,-118,o),
(91,-118,o),
(100,-113,cs)
);
}
);
width = 288;
}
);
unicode = 44;
},
{
glyphname = exclam;
lastChange = "2022-09-01 19:18:34 +0000";
layers = (
{
background = {
shapes = (
{
closed = 1;
nodes = (
(160,129,ls),
(172,129,o),
(175,138,o),
(177,168,cs),
(178,186,o),
(182,214,o),
(185,252,cs),
(206,430,o),
(212,467,o),
(212,484,cs),
(212,525,o),
(204,542,o),
(160,542,cs),
(116,542,o),
(108,525,o),
(108,484,cs),
(108,467,o),
(114,430,o),
(135,252,cs),
(140,209,o),
(141,180,o),
(144,162,cs),
(145,137,o),
(148,129,o),
(159,129,cs)
);
},
{
closed = 1;
nodes = (
(160,-8,ls),
(193,-8,o),
(212,12,o),
(212,31,cs),
(212,51,o),
(193,71,o),
(160,71,cs),
(126,71,o),
(108,51,o),
(108,31,cs),
(108,12,o),
(126,-8,o),
(159,-8,cs)
);
}
);
};
guides = (
{
angle = 90;
pos = (64,192);
},
{
angle = 90;
pos = (169,192);
}
);
layerId = m01;
shapes = (
{
closed = 1;
nodes = (
(166,129,o),
(170,133,o),
(170,141,cs),
(174,267,o),
(215,462,o),
(215,502,cs),
(215,525,o),
(193,542,o),
(155,542,cs),
(116,542,o),
(94,525,o),
(94,502,cs),
(94,462,o),
(136,267,o),
(139,141,cs),
(139,133,o),
(145,129,o),
(155,129,cs)
);
},
{
pos = (10,0);
ref = period;
}
);
width = 314;
}
);
unicode = 33;
},
{
glyphname = exclamdown;
lastChange = "2022-09-01 19:15:39 +0000";
layers = (
{
layerId = m01;
shapes = (
{
closed = 1;
nodes = (
(198,-156,o),
(221,-139,o),
(221,-115,cs),
(221,-75,o),
(178,102,o),
(176,229,cs),
(176,235,o),
(170,240,o),
(160,240,cs),
(151,240,o),
(144,235,o),
(144,229,cs),
(141,102,o),
(99,-75,o),
(99,-115,cs),
(99,-139,o),
(122,-156,o),
(160,-156,cs)
);
},
{
pos = (14,511);
ref = period;
scale = (1,-1);
}
);
width = 314;
}
);
metricLeft = "=|exclam";
metricRight = "=|exclam";
unicode = 161;
},
{
glyphname = question;
lastChange = "2022-09-01 19:14:29 +0000";
layers = (
{
background = {
shapes = (
{
closed = 1;
nodes = (
(41,488,ls),
(41,435,o),
(46,427,o),
(70,427,cs),
(89,427,o),
(98,449,o),
(109,473,cs),
(123,495,o),
(140,518,o),
(175,518,cs),
(217,518,o),
(256,484,o),
(256,430,cs),
(256,382,o),
(202,335,o),
(115,276,cs),
(98,264,o),
(92,261,o),
(92,224,cs),
(92,181,o),
(94,156,o),
(98,142,cs),
(102,127,o),
(107,122,o),
(116,122,cs),
(130,122,o),
(132,125,o),
(132,177,cs),
(132,193,o),
(133,194,o),
(153,212,cs),
(184,239,o),
(214,260,o),
(239,280,cs),
(284,314,o),
(315,345,o),
(315,402,cs),
(315,488,o),
(230,542,o),
(138,542,cs),
(69,542,o),
(47,536,o),
(43,510,cs),
(41,503,o),
(41,496,o),
(41,489,cs)
);
},
{
closed = 1;
nodes = (
(115,-8,ls),
(148,-8,o),
(167,12,o),
(167,31,cs),
(167,51,o),
(148,71,o),
(115,71,cs),
(82,71,o),
(63,51,o),
(63,31,cs),
(63,12,o),
(82,-8,o),
(114,-8,cs)
);
}
);
};
guides = (
{
pos = (192,750);
}
);
layerId = m01;
shapes = (
{
closed = 1;
nodes = (
(175,129,o),
(182,133,o),
(182,141,cs),
(186,246,ls),
(187,271,o),
(193,279,o),
(212,289,cs),
(263,315,ls),
(338,354,o),
(377,387,o),
(377,441,cs),
(377,505,o),
(304,542,o),
(183,542,cs),
(143,542,o),
(83,535,o),
(55,523,cs),
(46,518,o),
(41,514,o),
(41,507,cs),
(37,419,ls),
(37,411,o),
(43,407,o),
(52,407,cs),
(61,407,o),
(64,410,o),
(69,416,cs),
(108,488,o),
(145,520,o),
(221,520,cs),
(264,520,o),
(301,503,o),
(301,456,cs),
(301,407,o),
(270,385,o),
(214,354,cs),
(183,337,ls),
(151,320,o),
(141,302,o),
(143,269,cs),
(148,141,ls),
(148,133,o),
(155,129,o),
(164,129,cs)
);
},
{
pos = (16,0);
ref = period;
}
);
width = 420;
}
);
unicode = 63;
},
{
glyphname = questiondown;
lastChange = "2022-09-01 19:11:10 +0000";
layers = (
{
layerId = m01;
shapes = (
{
closed = 1;
nodes = (
(276,-156,o),
(336,-148,o),
(363,-136,cs),
(373,-132,o),
(378,-128,o),
(378,-120,cs),
(382,-32,ls),
(382,-25,o),
(377,-20,o),
(368,-20,cs),
(359,-20,o),
(354,-23,o),
(351,-31,cs),
(310,-101,o),
(274,-133,o),
(198,-133,cs),
(155,-133,o),
(117,-116,o),
(117,-69,cs),
(117,-20,o),
(150,2,o),
(205,31,cs),
(237,49,ls),
(268,66,o),
(277,84,o),
(276,118,cs),
(271,229,ls),
(271,236,o),
(264,240,o),
(255,240,cs),
(245,240,o),
(238,236,o),
(238,229,cs),
(232,140,ls),
(231,116,o),
(227,108,o),
(208,98,cs),
(156,71,ls),
(80,32,o),
(43,0,o),
(43,-55,cs),
(43,-118,o),
(115,-156,o),
(237,-156,cs)
);
},
{
angle = 180;
pos = (301,511);
ref = period;
}
);
width = 420;
}
);
metricLeft = "=|question";
metricRight = "=|question";
unicode = 191;
},
{
glyphname = asterisk;
kernLeft = asterisk;
kernRight = asterisk;
lastChange = "2022-08-23 20:03:46 +0000";
layers = (
{
background = {
shapes = (
{
closed = 1;
nodes = (
(294,303,ls),
(324,303,o),
(345,312,o),
(345,328,cs),
(345,353,o),
(302,393,o),
(302,404,cs),
(302,407,o),
(306,411,o),
(315,411,cs),
(332,411,o),
(352,397,o),
(371,381,cs),
(393,366,o),
(417,351,o),
(446,351,cs),
(470,351,o),
(492,364,o),
(492,377,cs),
(492,398,o),
(448,405,o),
(405,407,cs),
(362,411,o),
(319,411,o),
(319,422,cs),
(319,434,o),
(362,434,o),
(405,436,cs),
(448,439,o),
(492,445,o),
(492,468,cs),
(492,481,o),
(470,494,o),
(446,494,cs),
(416,494,o),
(390,479,o),
(370,464,cs),
(351,449,o),
(332,434,o),
(315,434,cs),
(307,434,o),
(302,437,o),
(302,440,cs),
(302,451,o),
(345,492,o),
(345,515,cs),
(345,532,o),
(324,541,o),
(294,541,cs),
(266,541,o),
(245,532,o),
(245,516,cs),
(245,492,o),
(288,451,o),
(288,440,cs),
(288,438,o),
(284,434,o),
(275,434,cs),
(258,434,o),
(240,449,o),
(218,463,cs),
(197,479,o),
(174,494,o),
(144,494,cs),
(118,494,o),
(98,481,o),
(98,468,cs),
(98,445,o),
(141,440,o),
(185,437,cs),
(228,434,o),
(271,433,o),
(271,422,cs),
(271,411,o),
(228,411,o),
(185,407,cs),
(141,405,o),
(98,398,o),
(98,377,cs),
(98,364,o),
(118,351,o),
(144,351,cs),
(174,351,o),
(197,366,o),
(220,381,cs),
(240,397,o),
(258,411,o),
(275,411,cs),
(283,411,o),
(288,407,o),
(288,404,cs),
(288,393,o),
(245,353,o),
(245,330,cs),
(245,312,o),
(266,303,o),
(293,303,cs)
);
}
);
};
layerId = m01;
shapes = (
{
closed = 1;
nodes = (
(327,301,o),
(345,314,o),
(345,329,cs),
(345,351,o),
(312,366,o),
(304,403,cs),
(302,409,o),
(310,411,o),
(319,407,cs),
(371,382,o),
(381,361,o),
(415,350,cs),
(438,343,o),
(468,345,o),
(485,360,cs),
(501,377,o),
(489,393,o),
(467,400,cs),
(430,411,o),
(389,402,o),
(328,416,cs),
(317,419,o),
(317,423,o),
(328,426,cs),
(389,440,o),
(430,431,o),
(467,443,cs),
(489,450,o),
(501,466,o),
(485,482,cs),
(468,497,o),
(438,499,o),
(415,492,cs),
(378,480,o),
(371,457,o),
(317,435,cs),
(309,431,o),
(302,434,o),
(304,439,cs),
(312,476,o),
(345,491,o),
(345,513,cs),
(345,528,o),
(327,542,o),
(293,542,cs),
(261,542,o),
(241,528,o),
(241,513,cs),
(241,491,o),
(275,476,o),
(283,439,cs),
(284,434,o),
(277,431,o),
(270,435,cs),
(215,457,o),
(209,480,o),
(172,492,cs),
(150,499,o),
(118,497,o),
(102,482,cs),
(86,466,o),
(98,450,o),
(121,443,cs),
(158,431,o),
(198,440,o),
(259,426,cs),
(270,423,o),
(270,419,o),
(259,416,cs),
(198,402,o),
(158,411,o),
(121,400,cs),
(98,393,o),
(86,377,o),
(102,360,cs),
(118,345,o),
(150,343,o),
(172,350,cs),
(206,361,o),
(215,382,o),
(268,407,cs),
(276,411,o),
(284,409,o),
(283,403,cs),
(275,366,o),
(241,351,o),
(241,329,cs),
(241,314,o),
(261,301,o),
(293,301,cs)
);
}
);
width = 588;
}
);
unicode = 42;
},
{
glyphname = numbersign;
lastChange = "2022-08-11 18:45:18 +0000";
layers = (
{
background = {
shapes = (
{
closed = 1;
nodes = (
(140,0,l),
(183,0,l),
(402,520,l),
(360,520,l)
);
},
{
closed = 1;
nodes = (
(438,0,l),
(480,0,l),
(699,520,l),
(658,520,l)
);
},
{
closed = 1;
nodes = (
(97,332,l),
(813,332,l),
(813,354,l),
(97,354,l)
);
},
{
closed = 1;
nodes = (
(26,167,l),
(743,167,l),
(743,188,l),
(26,188,l)
);
}
);
};
layerId = m01;
shapes = (
{
closed = 1;
nodes = (
(183,0,l),
(247,154,ls),
(251,162,o),
(261,167,o),
(276,167,cs),
(485,167,ls),
(499,167,o),
(505,162,o),
(503,154,cs),
(438,0,l),
(480,0,l),
(545,154,ls),
(549,162,o),
(558,167,o),
(574,167,cs),
(743,167,l),
(743,188,l),
(582,188,ls),
(568,188,o),
(562,192,o),
(565,200,cs),
(615,320,ls),
(619,327,o),
(628,332,o),
(644,332,cs),
(813,332,l),
(813,354,l),
(652,354,ls),
(638,354,o),
(632,359,o),
(635,366,cs),
(699,520,l),
(658,520,l),
(592,366,ls),
(589,359,o),
(580,354,o),
(564,354,cs),
(354,354,ls),
(342,354,o),
(335,359,o),
(337,366,cs),
(402,520,l),
(360,520,l),
(294,366,ls),
(291,359,o),
(282,354,o),
(266,354,cs),
(97,354,l),
(97,332,l),
(258,332,ls),
(271,332,o),
(277,328,o),
(275,320,cs),
(224,201,ls),
(221,193,o),
(212,188,o),
(195,188,cs),
(26,188,l),
(26,167,l),
(187,167,ls),
(201,167,o),
(208,162,o),
(205,154,cs),
(140,0,l)
);
},
{
closed = 1;
nodes = (
(271,188,o),
(264,192,o),
(267,200,cs),
(317,320,ls),
(321,327,o),
(331,332,o),
(346,332,cs),
(555,332,ls),
(568,332,o),
(575,328,o),
(573,320,cs),
(522,201,ls),
(519,193,o),
(509,188,o),
(493,188,cs),
(284,188,ls)
);
}
);
width = 839;
}
);
unicode = 35;
},
{
glyphname = slash;
lastChange = "2022-08-11 18:55:19 +0000";
layers = (
{
layerId = m01;
shapes = (
{
closed = 1;
nodes = (
(39,-94,ls),
(47,-94,o),
(53,-91,o),
(54,-88,cs),
(328,563,ls),
(329,567,o),
(327,571,o),
(317,571,cs),
(301,571,ls),
(293,571,o),
(289,568,o),
(288,564,cs),
(14,-86,ls),
(12,-90,o),
(15,-94,o),
(24,-94,cs)
);
}
);
width = 342;
}
);
unicode = 47;
},
{
glyphname = backslash;
lastChange = "2022-08-11 18:57:07 +0000";
layers = (
{
layerId = m01;
shapes = (
{
closed = 1;
nodes = (
(317,-94,ls),
(327,-94,o),
(329,-90,o),
(328,-86,cs),
(54,564,ls),
(53,568,o),
(47,571,o),
(39,571,cs),
(24,571,ls),
(15,571,o),
(12,567,o),
(14,563,cs),
(288,-88,ls),
(289,-91,o),
(293,-94,o),
(301,-94,cs)
);
}
);
width = 342;
}
);
unicode = 92;
},
{
glyphname = hyphen;
kernLeft = hyphen;
kernRight = hyphen;
lastChange = "2022-08-31 19:46:08 +0000";
layers = (
{
layerId = m01;
shapes = (
{
closed = 1;
nodes = (
(447,187,ls),
(455,187,o),
(460,190,o),
(460,195,cs),
(460,205,ls),
(460,209,o),
(455,212,o),
(447,212,cs),
(122,212,ls),
(114,212,o),
(108,209,o),
(108,205,cs),
(108,195,ls),
(108,190,o),
(114,187,o),
(122,187,cs)
);
}
);
width = 568;
}
);
unicode = 45;
},
{
glyphname = endash;
kernLeft = hyphen;
kernRight = hyphen;
lastChange = "2022-08-23 20:03:55 +0000";
layers = (
{
layerId = m01;
shapes = (
{
closed = 1;
nodes = (
(553,187,ls),
(561,187,o),
(566,190,o),
(566,195,cs),
(566,205,ls),
(566,209,o),
(561,212,o),
(553,212,cs),
(122,212,ls),
(114,212,o),
(108,209,o),
(108,205,cs),
(108,195,ls),
(108,190,o),
(114,187,o),
(122,187,cs)
);
}
);
width = 674;
}
);
unicode = 8211;
},
{
glyphname = emdash;
kernLeft = hyphen;
kernRight = hyphen;
lastChange = "2022-08-23 20:03:55 +0000";
layers = (
{
layerId = m01;
shapes = (
{
closed = 1;
nodes = (
(830,187,ls),
(838,187,o),
(844,190,o),
(844,195,cs),
(844,205,ls),
(844,209,o),
(838,212,o),
(830,212,cs),
(122,212,ls),
(114,212,o),
(108,209,o),
(108,205,cs),
(108,195,ls),
(108,190,o),
(114,187,o),
(122,187,cs)
);
}
);
width = 952;
}
);
unicode = 8212;
},
{
glyphname = underscore;
lastChange = "2022-08-11 19:14:16 +0000";
layers = (
{
layerId = m01;
shapes = (
{
closed = 1;
nodes = (
(465,-79,ls),
(473,-79,o),
(477,-76,o),
(477,-71,cs),
(477,-61,ls),
(477,-57,o),
(473,-54,o),
(465,-54,cs),
(33,-54,ls),
(25,-54,o),
(20,-57,o),
(20,-61,cs),
(20,-71,ls),
(20,-76,o),
(25,-79,o),
(33,-79,cs)
);
}
);
width = 497;
}
);
unicode = 95;
},
{
glyphname = parenleft;
lastChange = "2022-09-01 21:01:08 +0000";
layers = (
{
background = {
shapes = (
{
closed = 1;
nodes = (
(92,232,ls),
(92,36,o),
(365,-82,o),
(398,-82,cs),
(405,-82,o),
(408,-80,o),
(408,-76,cs),
(408,-71,o),
(385,-63,o),
(371,-56,cs),
(227,15,o),
(183,125,o),
(183,232,cs),
(183,339,o),
(227,449,o),
(371,520,cs),
(385,527,o),
(408,536,o),
(408,541,cs),
(408,543,o),
(405,546,o),
(398,546,cs),
(365,546,o),
(92,428,o),
(92,233,cs)
);
}
);
};
layerId = m01;
shapes = (
{
closed = 1;
nodes = (
(396,-78,o),
(399,-75,o),
(399,-72,cs),
(399,-70,o),
(397,-67,o),
(391,-65,cs),
(246,7,o),
(183,115,o),
(183,233,cs),
(183,350,o),
(246,458,o),
(391,530,cs),
(397,532,o),
(399,535,o),
(399,537,cs),
(399,541,o),
(396,543,o),
(388,543,cs),
(384,543,o),
(379,542,o),
(376,541,cs),
(251,493,o),
(92,383,o),
(92,233,cs),
(92,82,o),
(251,-27,o),
(376,-76,cs),
(379,-77,o),
(384,-78,o),
(388,-78,cs)
);
}
);
width = 450;
}
);
unicode = 40;
},
{
glyphname = braceleft;
lastChange = "2022-09-01 21:01:41 +0000";
layers = (
{
background = {
shapes = (
{
closed = 1;
nodes = (
(159,37,ls),
(159,-47,o),
(223,-71,o),
(323,-71,cs),
(335,-71,o),
(342,-68,o),
(342,-63,cs),
(342,-57,o),
(334,-55,o),
(320,-55,cs),
(255,-55,o),
(236,-24,o),
(236,32,cs),
(236,133,ls),
(236,187,o),
(220,218,o),
(131,231,c),
(131,233,l),
(220,246,o),
(236,277,o),
(236,331,cs),
(236,431,ls),
(236,488,o),
(255,518,o),
(320,518,cs),
(334,518,o),
(342,521,o),
(342,527,cs),
(342,532,o),
(335,535,o),
(323,535,cs),
(223,535,o),
(159,511,o),
(159,427,cs),
(159,320,ls),
(159,280,o),
(148,249,o),
(98,244,cs),
(71,241,o),
(59,238,o),
(59,232,cs),
(59,225,o),
(72,223,o),
(98,219,cs),
(148,214,o),
(159,184,o),
(159,144,cs)
);
}
);
};
layerId = m01;
shapes = (
{
closed = 1;
nodes = (
(335,-70,o),
(342,-65,o),
(342,-60,cs),
(342,-55,o),
(335,-52,o),
(325,-52,cs),
(263,-52,o),
(236,-27,o),
(236,26,cs),
(236,128,ls),
(236,193,o),
(206,218,o),
(138,233,c),
(206,247,o),
(236,272,o),
(236,337,cs),
(236,439,ls),
(236,493,o),
(263,518,o),
(325,518,cs),
(335,518,o),
(342,521,o),
(342,526,cs),
(342,531,o),
(335,535,o),
(325,535,cs),
(217,535,o),
(159,503,o),
(159,436,cs),
(159,334,ls),
(159,266,o),
(131,241,o),
(69,241,cs),
(60,241,o),
(53,238,o),
(53,233,cs),
(53,228,o),
(60,224,o),
(69,224,cs),
(131,224,o),
(159,200,o),
(159,132,cs),
(159,29,ls),
(159,-37,o),
(217,-70,o),
(325,-70,cs)
);
}
);
width = 421;
}
);
unicode = 123;
},
{
glyphname = bracketleft;
lastChange = "2022-09-01 21:02:14 +0000";
layers = (
{
background = {
shapes = (
{
pos = (10,0);
ref = parenleft;
}
);
};
guides = (
{
pos = (156,-108);
}
);
layerId = m01;
shapes = (
{
closed = 1;
nodes = (
(332,-71,ls),
(344,-71,o),
(351,-67,o),
(351,-62,cs),
(351,-57,o),
(344,-54,o),
(332,-54,cs),
(206,-54,ls),
(197,-54,o),
(191,-50,o),
(191,-45,cs),
(191,508,ls),
(191,513,o),
(197,518,o),
(206,518,cs),
(332,518,ls),
(344,518,o),
(351,521,o),
(351,526,cs),
(351,531,o),
(344,535,o),
(332,535,cs),
(145,535,ls),
(125,535,o),
(114,528,o),
(114,518,cs),
(114,-54,ls),
(114,-65,o),
(125,-71,o),
(145,-71,cs)
);
}
);
width = 430;
}
);
unicode = 91;
},
{
glyphname = quoteleft;
kernLeft = quoteleft;
kernRight = quoteleft;
lastChange = "2023-03-17 07:42:45 +0000";
layers = (
{
layerId = m01;
shapes = (
{
closed = 1;
nodes = (
(143,406,o),
(167,421,o),
(167,438,cs),
(167,472,o),
(98,465,o),
(98,500,cs),
(98,517,o),
(108,527,o),
(168,556,cs),
(179,561,o),
(178,566,o),
(172,570,cs),
(166,572,o),
(158,571,o),
(147,566,cs),
(64,535,o),
(32,498,o),
(32,455,cs),
(32,425,o),
(60,406,o),
(103,406,cs)
);
}
);
width = 220;
}
);
metricLeft = "=|quoteright";
metricRight = "=|quoteright";
unicode = 8216;
},
{
glyphname = quoteright;
kernLeft = quoteright;
kernRight = quoteright;
lastChange = "2022-09-19 13:28:36 +0000";
layers = (
{
layerId = m01;
shapes = (
{
closed = 1;
nodes = (
(155,399,o),
(187,435,o),
(187,479,cs),
(187,508,o),
(160,527,o),
(116,527,cs),
(77,527,o),
(53,513,o),
(53,496,cs),
(53,462,o),
(122,468,o),
(122,434,cs),
(122,422,o),
(112,406,o),
(52,378,cs),
(39,373,o),
(41,367,o),
(47,364,cs),
(54,361,o),
(62,363,o),
(72,367,cs)
);
}
);
width = 220;
}
);
unicode = 8217;
},
{
glyphname = guilsinglleft;
kernLeft = guilleft;
kernRight = guilleft;
lastChange = "2022-08-23 20:04:35 +0000";
layers = (
{
layerId = m01;
shapes = (
{
closed = 1;
nodes = (
(223,59,o),
(230,56,o),
(238,56,cs),
(251,56,o),
(254,63,o),
(250,67,cs),
(159,175,ls),
(155,179,o),
(155,184,o),
(159,188,cs),
(250,296,ls),
(254,300,o),
(251,306,o),
(238,306,cs),
(230,306,o),
(223,304,o),
(213,296,cs),
(79,194,ls),
(69,185,o),
(69,178,o),
(79,169,cs),
(213,67,ls)
);
}
);
width = 346;
}
);
unicode = 8249;
},
{
glyphname = guilsinglright;
kernLeft = guilright;
kernRight = guilright;
lastChange = "2022-08-23 20:04:44 +0000";
layers = (
{
background = {
shapes = (
{
closed = 1;
nodes = (
(143,56,l),
(307,181,l),
(143,306,l),
(112,306,l),
(214,181,l),
(112,56,l)
);
}
);
};
layerId = m01;
shapes = (
{
pos = (262,0);
ref = guilsinglleft;
scale = (-1,1);
}
);
width = 346;
}
);
metricLeft = "=|guilsinglleft";
metricRight = "=|guilsinglleft";
unicode = 8250;
},
{
glyphname = quotesingle;
kernLeft = quotesingle;
kernRight = quotesingle;
lastChange = "2022-09-01 20:16:30 +0000";
layers = (
{
background = {
shapes = (
{
pos = (-14,0);
ref = quoteright;
}
);
};
layerId = m01;
shapes = (
{
closed = 1;
nodes = (
(164,354,o),
(169,358,o),
(169,366,cs),
(174,432,o),
(213,465,o),
(213,492,cs),
(213,513,o),
(193,528,o),
(153,528,cs),
(115,528,o),
(95,513,o),
(95,492,cs),
(95,465,o),
(133,432,o),
(138,366,cs),
(138,358,o),
(144,354,o),
(153,354,cs)
);
}
);
width = 308;
}
);
unicode = 39;
},
{
glyphname = at;
kernLeft = o;
kernRight = o;
lastChange = "2022-08-23 20:05:05 +0000";
layers = (
{
layerId = m01;
shapes = (
{
closed = 1;
nodes = (
(554,-59,o),
(636,-45,o),
(697,-19,cs),
(708,-14,o),
(711,-8,o),
(704,-3,cs),
(697,3,o),
(685,3,o),
(670,-4,cs),
(616,-26,o),
(544,-37,o),
(458,-37,cs),
(251,-37,o),
(140,31,o),
(140,156,cs),
(140,299,o),
(290,400,o),
(503,400,cs),
(667,400,o),
(768,335,o),
(768,233,cs),
(768,149,o),
(685,68,o),
(598,68,cs),
(561,68,o),
(550,88,o),
(567,128,cs),
(641,298,ls),
(644,307,o),
(638,313,o),
(627,313,cs),
(618,313,o),
(608,309,o),
(603,301,cs),
(600,297,o),
(597,296,o),
(592,296,cs),
(588,296,o),
(584,297,o),
(581,301,cs),
(568,311,o),
(546,316,o),
(520,316,cs),
(398,316,o),
(259,206,o),
(259,109,cs),
(259,68,o),
(284,46,o),
(331,46,cs),
(385,46,o),
(442,76,o),
(505,139,cs),
(509,143,o),
(518,142,o),
(514,138,cs),
(513,134,o),
(512,132,o),
(511,128,cs),
(486,77,o),
(515,46,o),
(584,46,cs),
(707,46,o),
(820,133,o),
(820,230,cs),
(820,343,o),
(695,419,o),
(508,419,cs),
(266,419,o),
(53,297,o),
(53,157,cs),
(53,32,o),
(201,-59,o),
(460,-59,cs)
);
},
{
closed = 1;
nodes = (
(336,72,o),
(328,81,o),
(328,104,cs),
(328,186,o),
(434,297,o),
(514,297,cs),
(539,297,o),
(554,286,o),
(554,267,cs),
(554,201,o),
(422,72,o),
(354,72,cs)
);
}
);
width = 873;
}
);
metricLeft = O;
metricRight = O;
unicode = 64;
},
{
glyphname = ampersand;
lastChange = "2022-08-27 16:49:40 +0000";
layers = (
{
background = {
shapes = (
{
closed = 1;
nodes = (
(670,265,o),
(705,276,o),
(743,278,cs),
(768,280,ls),
(782,280,o),
(785,284,o),
(785,288,cs),
(785,293,o),
(779,296,o),
(767,296,cs),
(536,296,ls),
(523,296,o),
(518,293,o),
(518,289,cs),
(518,284,o),
(522,281,o),
(535,280,cs),
(581,277,ls),
(616,274,o),
(626,261,o),
(608,233,cs),
(511,73,o),
(399,27,o),
(290,27,cs),
(179,27,o),
(130,76,o),
(130,136,cs),
(130,196,o),
(169,245,o),
(254,277,cs),
(264,282,o),
(274,280,o),
(281,275,cs),
(503,83,l),
(585,12,ls),
(596,3,o),
(607,0,o),
(624,0,cs),
(759,0,ls),
(770,0,o),
(777,3,o),
(777,8,cs),
(777,13,o),
(773,16,o),
(761,17,cs),
(704,20,ls),
(682,20,o),
(672,28,o),
(654,42,cs),
(360,302,ls),
(353,308,o),
(355,312,o),
(367,315,cs),
(491,351,o),
(545,391,o),
(545,440,cs),
(545,481,o),
(484,530,o),
(373,530,cs),
(247,530,o),
(164,482,o),
(164,423,cs),
(164,386,o),
(191,354,o),
(241,308,cs),
(248,302,o),
(247,298,o),
(237,294,cs),
(121,254,o),
(43,194,o),
(43,122,cs),
(43,53,o),
(125,-7,o),
(273,-7,cs),
(408,-7,o),
(537,54,o),
(646,228,cs)
);
},
{
closed = 1;
nodes = (
(336,327,o),
(327,329,o),
(321,335,c),
(264,383,o),
(247,407,o),
(247,439,cs),
(247,474,o),
(293,510,o),
(367,510,cs),
(447,510,o),
(467,472,o),
(467,437,cs),
(467,400,o),
(427,358,o),
(346,331,cs)
);
}
);
};
guides = (
{
angle = 121.4641;
pos = (434,159);
},
{
angle = -57.6671;
pos = (272,286);
},
{
pos = (640,388);
}
);
layerId = m01;
shapes = (
{
closed = 1;
nodes = (
(351,-7,o),
(427,13,o),
(500,65,cs),
(508,70,o),
(518,70,o),
(526,64,cs),
(585,12,ls),
(596,3,o),
(607,0,o),
(624,0,cs),
(759,0,ls),
(770,0,o),
(777,3,o),
(777,8,cs),
(777,13,o),
(773,16,o),
(761,17,cs),
(704,20,ls),
(682,20,o),
(672,28,o),
(654,42,cs),
(578,110,ls),
(568,118,o),
(568,125,o),
(576,133,cs),
(600,161,o),
(626,192,o),
(642,213,cs),
(669,249,o),
(705,260,o),
(743,263,cs),
(768,264,ls),
(782,264,o),
(785,268,o),
(785,272,cs),
(785,277,o),
(779,280,o),
(767,280,cs),
(536,280,ls),
(523,280,o),
(518,277,o),
(518,273,cs),
(518,268,o),
(522,265,o),
(535,264,cs),
(581,261,ls),
(616,258,o),
(623,246,o),
(603,218,cs),
(592,204,o),
(573,178,o),
(553,156,cs),
(546,148,o),
(536,148,o),
(528,155,cs),
(360,302,ls),
(353,308,o),
(355,312,o),
(367,315,cs),
(491,351,o),
(545,391,o),
(545,440,cs),
(545,481,o),
(484,530,o),
(373,530,cs),
(247,530,o),
(164,482,o),
(164,423,cs),
(164,386,o),
(191,354,o),
(241,308,cs),
(248,302,o),
(247,298,o),
(237,294,cs),
(121,254,o),
(43,194,o),
(43,122,cs),
(43,53,o),
(125,-7,o),
(273,-7,cs)
);
},
{
closed = 1;
nodes = (
(179,27,o),
(130,76,o),
(130,136,cs),
(130,196,o),
(169,245,o),
(254,277,cs),
(264,282,o),
(274,280,o),
(281,275,cs),
(475,107,ls),
(484,99,o),
(484,91,o),
(474,82,cs),
(413,42,o),
(352,27,o),
(290,27,cs)
);
},
{
closed = 1;
nodes = (
(336,327,o),
(327,329,o),
(321,335,c),
(264,383,o),
(247,407,o),
(247,439,cs),
(247,474,o),
(293,510,o),
(367,510,cs),
(447,510,o),
(467,472,o),
(467,437,cs),
(467,400,o),
(427,358,o),
(346,331,cs)
);
}
);
width = 766;
}
);
unicode = 38;
},
